<svg xmlns="http://www.w3.org/2000/svg" xmlns:xlink="http://www.w3.org/1999/xlink" width="1240" height="599.137" viewBox="0 0 1240 599.137">
  <defs>
    <linearGradient id="linear-gradient" y1="0.5" x2="0.923" y2="0.5" gradientUnits="objectBoundingBox">
      <stop offset="0" stop-color="#e01650"/>
      <stop offset="1" stop-color="#e01650" stop-opacity="0"/>
    </linearGradient>
    <linearGradient id="linear-gradient-2" y1="0.5" x2="0.923" y2="0.5" gradientUnits="objectBoundingBox">
      <stop offset="0" stop-color="#ffb206"/>
      <stop offset="1" stop-color="#ffb206" stop-opacity="0"/>
    </linearGradient>
    <clipPath id="clip-path">
      <rect id="Rectángulo_373436" data-name="Rectángulo 373436" width="92.19" height="79.356" fill="url(#linear-gradient)"/>
    </clipPath>
    <linearGradient id="linear-gradient-5" x1="1" y1="0.5" x2="0" y2="0.5" xlink:href="#linear-gradient-2"/>
    <linearGradient id="linear-gradient-6" x1="0" y1="0.5" x2="1" y2="0.5" xlink:href="#linear-gradient"/>
    <clipPath id="clip-path-3">
      <rect id="Rectángulo_374053" data-name="Rectángulo 374053" width="819.341" height="487.275" fill="none"/>
    </clipPath>
    <clipPath id="clip-path-7">
      <rect id="Rectángulo_374030" data-name="Rectángulo 374030" width="14.595" height="31.352" fill="none"/>
    </clipPath>
    <clipPath id="clip-path-15">
      <rect id="Rectángulo_374050" data-name="Rectángulo 374050" width="29.998" height="54.424" fill="none"/>
    </clipPath>
    <filter id="Trazado_778918" x="516" y="526.137" width="208" height="73" filterUnits="userSpaceOnUse">
      <feOffset dy="3" input="SourceAlpha"/>
      <feGaussianBlur stdDeviation="3" result="blur"/>
      <feFlood flood-opacity="0.42"/>
      <feComposite operator="in" in2="blur"/>
      <feComposite in="SourceGraphic"/>
    </filter>
  </defs>
  <g id="Grupo_1065120" data-name="Grupo 1065120" transform="translate(-180 -574.863)">
    <g id="Grupo_1064879" data-name="Grupo 1064879" transform="translate(0 -3850.107)">
      <rect id="Rectángulo_373620" data-name="Rectángulo 373620" width="1240" height="261" transform="translate(180 4706)" fill="#8f52f5" opacity="0.3"/>
      <g id="Grupo_1064150" data-name="Grupo 1064150" transform="translate(713.356 4554) rotate(90)" clip-path="url(#clip-path)">
        <path id="Trazado_777248" data-name="Trazado 777248" d="M92.19,71.378H39.678a31.7,31.7,0,0,1,0-63.4H92.19V0H39.678A39.678,39.678,0,0,0,0,39.678H0A39.678,39.678,0,0,0,39.678,79.356H92.19Z" transform="translate(0)" fill="url(#linear-gradient)"/>
      </g>
      <g id="Grupo_1064150-2" data-name="Grupo 1064150" transform="translate(1112.19 4725.547) rotate(180)" clip-path="url(#clip-path)">
        <path id="Trazado_777248-2" data-name="Trazado 777248" d="M92.19,71.378H39.678a31.7,31.7,0,0,1,0-63.4H92.19V0H39.678A39.678,39.678,0,0,0,0,39.678H0A39.678,39.678,0,0,0,39.678,79.356H92.19Z" transform="translate(0)" fill="url(#linear-gradient-2)"/>
      </g>
      <rect id="Rectángulo_373430" data-name="Rectángulo 373430" width="116.905" height="21.667" transform="translate(1198.095 4695.167)" fill="url(#linear-gradient-5)"/>
      <rect id="Rectángulo_373431" data-name="Rectángulo 373431" width="114.429" height="20.538" transform="translate(285 4956.73)" fill="url(#linear-gradient-6)"/>
    </g>
    <g id="Grupo_1064907" data-name="Grupo 1064907" transform="translate(384 574.863)">
      <g id="Grupo_1064906" data-name="Grupo 1064906" clip-path="url(#clip-path-3)">
        <rect id="Rectángulo_374025" data-name="Rectángulo 374025" width="73.37" height="100.402" transform="translate(158.692 0.026)" fill="#f5f5f5"/>
        <rect id="Rectángulo_374026" data-name="Rectángulo 374026" width="73.371" height="100.402" transform="translate(140.095 12.665)" fill="#e0e0e0"/>
        <g id="Grupo_1064881" data-name="Grupo 1064881">
          <g id="Grupo_1064880" data-name="Grupo 1064880" clip-path="url(#clip-path-3)">
            <path id="Trazado_778704" data-name="Trazado 778704" d="M478.284,133.128s-.155.012-.472.018l-1.42.018-5.527.038-20.728.073-71.542.111H378.4l-.055-.186a17.774,17.774,0,0,1,17.54-22.756l-.265.341a15.063,15.063,0,0,1-.554-4.8,15.831,15.831,0,0,1,8.191-13.344,16.2,16.2,0,0,1,15.159.083l-.369.131A23.6,23.6,0,0,1,431.933,79.92a22.153,22.153,0,0,1,17.6.829,24.018,24.018,0,0,1,10.9,11.9,22.749,22.749,0,0,1,1.341,14.272l-.2-.228a17.026,17.026,0,0,1,8.283,1.188A17.318,17.318,0,0,1,476,112.1a11.047,11.047,0,0,1,1.935,2.774,15.588,15.588,0,0,1,1.03,2.946,26.274,26.274,0,0,1,.7,5.382,30.6,30.6,0,0,1-.645,7.441,16.974,16.974,0,0,1-.514,1.875c-.143.417-.222.613-.222.613" transform="translate(80.99 16.834)" fill="#ebebeb"/>
            <path id="Trazado_778705" data-name="Trazado 778705" d="M620.285,84.234a18.283,18.283,0,1,0,21.235,19.3h.007l5.012-.833,2.674-5.635,3.914,4.54,6.28-1.043,2.674-5.635L666,99.47l5.4-.9,1.63-3.434,2.385,2.767,3.142-.522L682,92.812l-5.918-6.506-37.337,6.206a18.285,18.285,0,0,0-18.463-8.278M610.1,104.46a5.245,5.245,0,1,1,6.033,4.314,5.244,5.244,0,0,1-6.033-4.314" transform="translate(129.743 18.011)" fill="#ebebeb"/>
            <path id="Trazado_778706" data-name="Trazado 778706" d="M602.32,199.752l2.252,41.407a2.794,2.794,0,0,0,2.77,2.643l74.509.546a2.8,2.8,0,0,0,2.815-2.775l.237-32.23a2.8,2.8,0,0,0-2.793-2.816l-45.824-.04a2.8,2.8,0,0,1-1.975-.819l-7.906-7.9a2.793,2.793,0,0,0-1.955-.817l-19.318-.142a2.8,2.8,0,0,0-2.811,2.947" transform="translate(129.168 42.205)" fill="#ebebeb"/>
            <rect id="Rectángulo_374027" data-name="Rectángulo 374027" width="48.648" height="81.411" transform="translate(732.361 291.912) rotate(-89.58)" fill="#f5f5f5"/>
            <path id="Trazado_778707" data-name="Trazado 778707" d="M597.974,204.217l5.844,50.775a1.8,1.8,0,0,0,1.773,1.592l79.338.582a1.8,1.8,0,0,0,1.8-1.644l4.366-50.7a1.8,1.8,0,0,0-1.778-1.952l-89.549-.656a1.8,1.8,0,0,0-1.8,2" transform="translate(128.234 43.365)" fill="#ebebeb"/>
            <path id="Trazado_778708" data-name="Trazado 778708" d="M598.55,410.5c-18.887-13.2-23.172-37.688-22.425-59.7.124-3.675-.279-7.549,1.468-10.775s5.828-5.427,9.118-3.879c2.73,1.285,3.919,4.459,5.446,7.085a21.512,21.512,0,0,0,8.619,8.233c2.34,1.214,5.237,1.956,7.547.682,3.17-1.749,3.544-6.128,3.521-9.785q-.064-10.218-.128-20.437c-.023-3.654-.034-7.386,1.1-10.856s3.649-6.692,7.126-7.666,7.777,1.031,8.511,4.609a33.778,33.778,0,0,1,.1,4.551c.1,1.518.808,3.2,2.249,3.619,1.459.429,2.922-.607,4.014-1.677,3.773-3.691,6.333-8.445,8.726-13.173s4.714-9.569,8.138-13.593,8.159-7.215,13.393-7.511,10.812,2.934,12.135,8.072c1.326,5.154-1.68,10.382-4.951,14.553a81.577,81.577,0,0,1-16.988,16.194,6.71,6.71,0,0,0-2.842,3.056c-.793,2.436,1.516,4.857,3.921,5.658,2.724.907,5.681.624,8.53.959s5.937,1.592,7.016,4.287c1.5,3.736-1.627,7.651-4.7,10.216a69.905,69.905,0,0,1-20.686,11.94c-2.689.984-5.518,1.847-7.686,3.737s-3.477,5.174-2.168,7.748,4.673,3.4,7.49,2.878,5.337-2.051,8.021-3.063c5.023-1.9,11.509-1.551,14.728,2.791,2.114,2.854,2.3,6.828,1.231,10.229a26.686,26.686,0,0,1-5.542,9.033c-8.051,9.445-18.358,17.05-30.01,21.09s-22.449,5.133-34.029.9" transform="translate(123.534 60.09)" fill="#fafafa"/>
            <path id="Trazado_778709" data-name="Trazado 778709" d="M594.338,426.278a160.5,160.5,0,0,1,5.973-30.124,327.276,327.276,0,0,1,13-35.263l3.883-9.068c1.281-2.973,2.552-5.922,3.972-8.728a163.636,163.636,0,0,1,9.088-15.664c3.132-4.842,6.281-9.323,9.255-13.491s5.839-7.992,8.59-11.371a129.692,129.692,0,0,1,14.154-14.96c1.8-1.63,3.243-2.848,4.23-3.66l1.128-.917a2.828,2.828,0,0,1,.4-.294,2.684,2.684,0,0,1-.355.347l-1.086.968c-.957.845-2.368,2.095-4.142,3.751a137.137,137.137,0,0,0-13.961,15.069c-2.72,3.387-5.546,7.224-8.506,11.4s-6.08,8.666-9.19,13.5a165.265,165.265,0,0,0-9.017,15.623c-1.41,2.793-2.666,5.718-3.948,8.7s-2.567,6-3.878,9.065A335.6,335.6,0,0,0,600.9,396.332a163.35,163.35,0,0,0-6.092,29.992" transform="translate(127.457 60.633)" fill="#e0e0e0"/>
            <path id="Trazado_778710" data-name="Trazado 778710" d="M617.533,339.515a7.3,7.3,0,0,1-.357-1.559c-.193-1.01-.423-2.48-.679-4.3-.516-3.64-1.059-8.689-1.636-14.26s-1.189-10.6-1.759-14.222c-.282-1.811-.522-3.275-.7-4.285a7.274,7.274,0,0,1-.205-1.587,7.324,7.324,0,0,1,.459,1.533c.259.995.574,2.451.913,4.258.693,3.613,1.384,8.653,1.961,14.231.556,5.5,1.055,10.472,1.439,14.273.183,1.715.341,3.161.465,4.322a7.47,7.47,0,0,1,.1,1.6" transform="translate(131.284 64.186)" fill="#e0e0e0"/>
            <path id="Trazado_778711" data-name="Trazado 778711" d="M663.582,325.191a10.243,10.243,0,0,1-1.875.225c-1.2.107-2.951.253-5.1.5-4.305.464-10.228,1.314-16.722,2.538s-12.323,2.6-16.51,3.715c-2.1.542-3.784,1.025-4.953,1.352a10.071,10.071,0,0,1-1.834.451,10.075,10.075,0,0,1,1.756-.7c1.146-.4,2.818-.961,4.905-1.563,4.167-1.234,10-2.68,16.513-3.921a166,166,0,0,1,16.8-2.346c2.164-.189,3.92-.264,5.135-.288a9.992,9.992,0,0,1,1.887.039" transform="translate(132.228 69.728)" fill="#e0e0e0"/>
            <path id="Trazado_778712" data-name="Trazado 778712" d="M603.911,386.013a2.371,2.371,0,0,1-.322-.573c-.217-.459-.483-1.02-.8-1.7-.691-1.479-1.636-3.646-2.768-6.338-2.267-5.384-5.165-12.919-8.25-21.277s-5.912-15.913-8.063-21.336c-1.054-2.637-1.922-4.8-2.567-6.416-.276-.7-.5-1.276-.688-1.75a.332.332,0,1,1,.124-.056c.217.46.482,1.02.8,1.7.691,1.479,1.636,3.647,2.767,6.339,2.267,5.384,5.166,12.918,8.252,21.28s5.91,15.909,8.062,21.333c1.055,2.635,1.922,4.8,2.566,6.416.277.7.5,1.278.69,1.75a2.4,2.4,0,0,1,.2.629" transform="translate(124.435 69.91)" fill="#e0e0e0"/>
            <path id="Trazado_778713" data-name="Trazado 778713" d="M662.179,358.843a2.522,2.522,0,0,1-.619.255l-1.814.608c-1.675.543-3.936,1.276-6.687,2.167-5.646,1.831-13.415,4.45-22,7.355s-16.385,5.457-22.07,7.171c-2.843.859-5.149,1.529-6.754,1.96l-1.85.486a2.5,2.5,0,0,1-.657.125,2.507,2.507,0,0,1,.619-.257c.487-.162,1.086-.363,1.813-.606l6.687-2.168c5.646-1.83,13.416-4.45,22-7.356s16.38-5.454,22.067-7.169c2.843-.859,5.149-1.53,6.754-1.961l1.85-.486a2.45,2.45,0,0,1,.658-.124" transform="translate(128.614 76.953)" fill="#e0e0e0"/>
          </g>
        </g>
        <g id="Grupo_1064883" data-name="Grupo 1064883">
          <g id="Grupo_1064882" data-name="Grupo 1064882" clip-path="url(#clip-path-3)">
            <path id="Trazado_778714" data-name="Trazado 778714" d="M795.565,401.026c0,.175-174.6.316-389.941.316-215.41,0-389.978-.141-389.978-.316s174.568-.316,389.978-.316c215.337,0,389.941.141,389.941.316" transform="translate(3.355 85.933)" fill="#263238"/>
          </g>
        </g>
        <g id="Grupo_1064888" data-name="Grupo 1064888">
          <g id="Grupo_1064887" data-name="Grupo 1064887" clip-path="url(#clip-path-3)">
            <path id="Trazado_778715" data-name="Trazado 778715" d="M584.179,371.307c2.122,2.726,5.922,1.6,7.618-.219s2.324-4.355,2.89-6.774c1.292-5.529,2.584-11.325,1.138-16.815a9.305,9.305,0,0,0-2.365-4.436,4.857,4.857,0,0,0-4.674-1.3c-1.914.61-3.024,2.571-3.8,4.422a39.889,39.889,0,0,0-3.073,17.3c.13,2.754.6,5.627,2.269,7.822" transform="translate(124.783 73.254)" fill="#ffb206"/>
            <g id="Grupo_1064886" data-name="Grupo 1064886" transform="translate(706.259 414.839)" opacity="0.2">
              <g id="Grupo_1064885" data-name="Grupo 1064885" transform="translate(0 0)">
                <g id="Grupo_1064884" data-name="Grupo 1064884" clip-path="url(#clip-path-7)">
                  <path id="Trazado_778716" data-name="Trazado 778716" d="M584.179,371.307c2.122,2.726,5.922,1.6,7.618-.219s2.324-4.355,2.89-6.774c1.292-5.529,2.584-11.325,1.138-16.815a9.305,9.305,0,0,0-2.365-4.436,4.857,4.857,0,0,0-4.674-1.3c-1.914.61-3.024,2.571-3.8,4.422a39.889,39.889,0,0,0-3.073,17.3c.13,2.754.6,5.627,2.269,7.822" transform="translate(-581.867 -341.586)"/>
                </g>
              </g>
            </g>
            <path id="Trazado_778717" data-name="Trazado 778717" d="M591.1,377.888a17.178,17.178,0,0,1,10.577-1.831,8.859,8.859,0,0,1,5.375,2.082c1.388,1.383,1.766,3.923.319,5.245a5.044,5.044,0,0,1-3.272,1.009c-2.815.109-5.961-.228-8.124,1.578-1.233,1.031-2.005,2.679-3.515,3.232a3.629,3.629,0,0,1-4.077-1.573,6.2,6.2,0,0,1-.683-4.549,6.987,6.987,0,0,1,3.4-5.192" transform="translate(126.002 80.615)" fill="#ffb206"/>
            <path id="Trazado_778718" data-name="Trazado 778718" d="M583.67,373.761a10.3,10.3,0,0,0,1.122-9.547,18.255,18.255,0,0,0-6.018-7.849,30.214,30.214,0,0,0-10.339-5.416,10.721,10.721,0,0,0-4.554-.539,4.746,4.746,0,0,0-3.674,2.484c-.955,2.069.182,4.462,1.378,6.4a76.49,76.49,0,0,0,7.1,9.708c2.1,2.448,4.5,4.848,7.566,5.848s6.194.706,7.684-1.465" transform="translate(120.061 75.131)" fill="#ffb206"/>
            <path id="Trazado_778719" data-name="Trazado 778719" d="M585.456,405.9a6.134,6.134,0,0,0,.114-1.293c.044-.94.1-2.119.164-3.523a50.61,50.61,0,0,1,.528-5.182,39.746,39.746,0,0,1,1.563-6.163,22.39,22.39,0,0,1,2.821-5.648,11.6,11.6,0,0,1,3.754-3.455,11,11,0,0,1,3.247-1.194,6.1,6.1,0,0,0,1.269-.25,6.014,6.014,0,0,0-1.3.046,9.988,9.988,0,0,0-3.4,1.069,11.56,11.56,0,0,0-3.966,3.5,21.842,21.842,0,0,0-2.929,5.764,37.143,37.143,0,0,0-1.545,6.262,43.628,43.628,0,0,0-.42,5.242c-.036,1.495-.017,2.7,0,3.536a5.991,5.991,0,0,0,.092,1.3" transform="translate(125.527 81.314)" fill="#263238"/>
            <path id="Trazado_778720" data-name="Trazado 778720" d="M585.671,409.239a2.528,2.528,0,0,0,0-.6c-.024-.448-.055-1.013-.091-1.705-.079-1.478-.186-3.619-.24-6.267-.136-5.294-.05-12.615.424-20.68s1.289-15.346,2.1-20.579c.187-1.31.383-2.492.571-3.526s.328-1.931.48-2.656c.128-.681.232-1.236.315-1.676a.3.3,0,1,0-.1-.024c-.108.435-.245.984-.413,1.658-.183.72-.363,1.609-.568,2.644s-.438,2.211-.65,3.521a193.782,193.782,0,0,0-2.258,20.607c-.475,8.082-.5,15.421-.268,20.723.1,2.651.267,4.793.409,6.27.078.691.141,1.252.191,1.7a2.5,2.5,0,0,0,.1.588" transform="translate(125.417 75.264)" fill="#263238"/>
            <path id="Trazado_778721" data-name="Trazado 778721" d="M588.651,394.131a11.354,11.354,0,0,0-.1-1.78c-.124-1.14-.364-2.786-.789-4.8a63.565,63.565,0,0,0-1.924-6.949,62.594,62.594,0,0,0-3.359-8.168,44.379,44.379,0,0,0-9.311-13,21.958,21.958,0,0,0-2.125-1.784c-.326-.248-.613-.5-.9-.691l-.815-.5a11.3,11.3,0,0,0-1.548-.884,53.116,53.116,0,0,1,5.136,4.135A46.749,46.749,0,0,1,582,372.673a66.33,66.33,0,0,1,3.372,8.091,71.391,71.391,0,0,1,2.021,6.874c.47,1.987.765,3.614.951,4.741a11.427,11.427,0,0,0,.307,1.752" transform="translate(121.76 76.253)" fill="#263238"/>
          </g>
        </g>
        <rect id="Rectángulo_374032" data-name="Rectángulo 374032" width="137.304" height="91.961" transform="translate(0.316 214.341)" fill="#fafafa"/>
        <g id="Grupo_1064890" data-name="Grupo 1064890">
          <g id="Grupo_1064889" data-name="Grupo 1064889" clip-path="url(#clip-path-3)">
            <path id="Trazado_778722" data-name="Trazado 778722" d="M87.288,228.641H83.629V206.63a9.587,9.587,0,0,0-19.175,0v22.011H60.795V206.63a13.247,13.247,0,0,1,26.493,0Z" transform="translate(13.038 41.472)" fill="#263238"/>
            <path id="Trazado_778723" data-name="Trazado 778723" d="M88.892,237.592H60.908a4.12,4.12,0,0,1-4.119-4.119v-15a4.12,4.12,0,0,1,4.119-4.119H88.892a4.12,4.12,0,0,1,4.119,4.119v15a4.12,4.12,0,0,1-4.119,4.119" transform="translate(12.179 45.968)" fill="#263238"/>
            <path id="Trazado_778724" data-name="Trazado 778724" d="M72.237,224.99a3.028,3.028,0,1,1,3.028-3.028,3.027,3.027,0,0,1-3.028,3.028" transform="translate(14.842 46.951)" fill="#455a64"/>
            <rect id="Rectángulo_374033" data-name="Rectángulo 374033" width="1.652" height="6.226" transform="translate(86.253 270.112)" fill="#455a64"/>
            <path id="Trazado_778725" data-name="Trazado 778725" d="M61.378,227.195a14.659,14.659,0,0,0,8.734-13.561c.033-8.1-6.094-14.689-13.688-14.724s-13.772,6.5-13.806,14.6a14.637,14.637,0,0,0,8.76,13.688c-21.156,3.187-20.2,26.179-20.2,26.179l50.024.231s1.142-23.242-19.83-26.409" transform="translate(6.686 42.657)" fill="#ffb206"/>
            <path id="Trazado_778726" data-name="Trazado 778726" d="M137.619,268.509s-.018-.579-.028-1.678-.016-2.737-.028-4.858c-.015-4.264-.036-10.507-.064-18.5-.032-15.98-.077-38.937-.132-66.924l.253.253L.327,176.864H.316l.316-.316C.623,209.31.613,240.463.606,268.509l-.29-.29,98.9.143,28.268.078,7.524.035,1.944.017c.438.006.67.017.67.017s-.209.011-.636.017l-1.912.017-7.465.035-28.2.078L.316,268.8H.027v-.29C.018,240.463.009,209.31,0,176.548v-.317H.327l137.293.064h.253v.253c-.056,28.053-.1,51.064-.132,67.08-.028,7.969-.05,14.195-.064,18.445-.012,2.1-.022,3.709-.029,4.809-.008,1.083-.027,1.626-.027,1.626" transform="translate(0 37.793)" fill="#263238"/>
            <path id="Trazado_778727" data-name="Trazado 778727" d="M137.522,185.644c0,.175-30.717.316-68.6.316S.313,185.819.313,185.644s30.711-.316,68.608-.316,68.6.141,68.6.316" transform="translate(0.067 39.744)" fill="#263238"/>
            <path id="Trazado_778728" data-name="Trazado 778728" d="M8.206,181.3a1.418,1.418,0,1,1-1.418-1.418A1.419,1.419,0,0,1,8.206,181.3" transform="translate(1.151 38.576)" fill="#263238"/>
            <path id="Trazado_778729" data-name="Trazado 778729" d="M12.033,181.3a1.418,1.418,0,1,1-1.418-1.418,1.419,1.419,0,0,1,1.418,1.418" transform="translate(1.972 38.576)" fill="#263238"/>
            <path id="Trazado_778730" data-name="Trazado 778730" d="M16.147,181.3a1.418,1.418,0,1,1-1.418-1.418,1.419,1.419,0,0,1,1.418,1.418" transform="translate(2.854 38.576)" fill="#263238"/>
            <path id="Trazado_778731" data-name="Trazado 778731" d="M137.619,268.509s-.018-.579-.028-1.678-.016-2.737-.028-4.858c-.015-4.264-.036-10.507-.064-18.5-.032-15.98-.077-38.937-.132-66.924l.253.253L.327,176.864H.316l.316-.316C.623,209.31.613,240.463.606,268.509l-.29-.29,98.9.143,28.268.078,7.524.035,1.944.017c.438.006.67.017.67.017s-.209.011-.636.017l-1.912.017-7.465.035-28.2.078L.316,268.8H.027v-.29C.018,240.463.009,209.31,0,176.548v-.317H.327l137.293.064h.253v.253c-.056,28.053-.1,51.064-.132,67.08-.028,7.969-.05,14.195-.064,18.445-.012,2.1-.022,3.709-.029,4.809-.008,1.083-.027,1.626-.027,1.626" transform="translate(0 37.793)" fill="#263238"/>
            <path id="Trazado_778732" data-name="Trazado 778732" d="M56.116,255.25c-.175,0-.317-.68-.317-1.518s.142-1.518.317-1.518.316.679.316,1.518-.141,1.518-.316,1.518" transform="translate(11.966 54.088)" fill="#263238"/>
            <path id="Trazado_778733" data-name="Trazado 778733" d="M56.116,266.828c-.175,0-.317-1.488-.317-3.322s.142-3.322.317-3.322.316,1.486.316,3.322-.141,3.322-.316,3.322" transform="translate(11.966 55.797)" fill="#263238"/>
            <path id="Trazado_778734" data-name="Trazado 778734" d="M56.116,277.769c-.175,0-.317-1.488-.317-3.322s.142-3.322.317-3.322.316,1.486.316,3.322-.141,3.322-.316,3.322" transform="translate(11.966 58.144)" fill="#263238"/>
            <path id="Trazado_778735" data-name="Trazado 778735" d="M56.116,288.71c-.175,0-.317-1.488-.317-3.322s.142-3.322.317-3.322.316,1.486.316,3.322-.141,3.322-.316,3.322" transform="translate(11.966 60.49)" fill="#263238"/>
            <path id="Trazado_778736" data-name="Trazado 778736" d="M56.116,299.65c-.175,0-.317-1.488-.317-3.322s.142-3.322.317-3.322.316,1.486.316,3.322-.141,3.322-.316,3.322" transform="translate(11.966 62.836)" fill="#263238"/>
            <path id="Trazado_778737" data-name="Trazado 778737" d="M59.157,306.984c0,.175-1.359.316-3.036.316-.632-.632-.175-.175-.316-.317h0v-.307l0-.3c.006-.18.012-.367.018-.57.016-.363.039-.691.068-.966.057-.549.136-.889.223-.889s.166.34.223.889c.029.275.052.6.068.966.006.2.012.39.018.57l0,.3v.307h0c-.141-.141.316.317-.316-.315,1.677,0,3.036.141,3.036.316" transform="translate(11.961 65.182)" fill="#263238"/>
            <path id="Trazado_778738" data-name="Trazado 778738" d="M69.44,306.5c0,.175-1.336.316-2.984.316s-2.983-.141-2.983-.316,1.335-.316,2.983-.316,2.984.141,2.984.316" transform="translate(13.612 65.663)" fill="#263238"/>
            <path id="Trazado_778739" data-name="Trazado 778739" d="M79.267,306.5c0,.175-1.336.316-2.984.316s-2.983-.141-2.983-.316,1.335-.316,2.983-.316,2.984.141,2.984.316" transform="translate(15.719 65.663)" fill="#263238"/>
            <path id="Trazado_778740" data-name="Trazado 778740" d="M89.094,306.5c0,.175-1.336.316-2.984.316s-2.983-.141-2.983-.316,1.335-.316,2.983-.316,2.984.141,2.984.316" transform="translate(17.827 65.663)" fill="#263238"/>
            <path id="Trazado_778741" data-name="Trazado 778741" d="M98.921,306.5c0,.175-1.336.316-2.984.316s-2.983-.141-2.983-.316,1.335-.316,2.983-.316,2.984.141,2.984.316" transform="translate(19.934 65.663)" fill="#263238"/>
            <path id="Trazado_778742" data-name="Trazado 778742" d="M108.748,306.5c0,.175-1.336.316-2.984.316s-2.983-.141-2.983-.316,1.335-.316,2.983-.316,2.984.141,2.984.316" transform="translate(22.042 65.663)" fill="#263238"/>
            <path id="Trazado_778743" data-name="Trazado 778743" d="M118.575,306.5c0,.175-1.336.316-2.984.316s-2.983-.141-2.983-.316,1.335-.316,2.983-.316,2.984.141,2.984.316" transform="translate(24.149 65.663)" fill="#263238"/>
            <path id="Trazado_778744" data-name="Trazado 778744" d="M128.4,306.5c0,.175-1.336.316-2.984.316s-2.983-.141-2.983-.316,1.335-.316,2.983-.316,2.984.141,2.984.316" transform="translate(26.256 65.663)" fill="#263238"/>
            <path id="Trazado_778745" data-name="Trazado 778745" d="M138.228,306.5c0,.175-1.336.316-2.984.316s-2.983-.141-2.983-.316,1.335-.316,2.983-.316,2.984.141,2.984.316" transform="translate(28.364 65.663)" fill="#263238"/>
            <path id="Trazado_778746" data-name="Trazado 778746" d="M148.055,306.5c0,.175-1.336.316-2.984.316s-2.983-.141-2.983-.316,1.335-.316,2.983-.316,2.984.141,2.984.316" transform="translate(30.471 65.663)" fill="#263238"/>
            <path id="Trazado_778747" data-name="Trazado 778747" d="M157.882,306.5c0,.175-1.336.316-2.984.316s-2.983-.141-2.983-.316,1.335-.316,2.983-.316,2.984.141,2.984.316" transform="translate(32.578 65.663)" fill="#263238"/>
            <path id="Trazado_778748" data-name="Trazado 778748" d="M164.778,306.5c0,.175-.68.316-1.518.316s-1.518-.141-1.518-.316.68-.316,1.518-.316,1.518.141,1.518.316" transform="translate(34.686 65.663)" fill="#263238"/>
          </g>
        </g>
        <rect id="Rectángulo_374035" data-name="Rectángulo 374035" width="73.371" height="100.402" transform="translate(127.522 28.085)" fill="#fff"/>
        <g id="Grupo_1064892" data-name="Grupo 1064892">
          <g id="Grupo_1064891" data-name="Grupo 1064891" clip-path="url(#clip-path-3)">
            <path id="Trazado_778749" data-name="Trazado 778749" d="M178.482,123.564s-.013-.172-.019-.494c0-.342-.012-.811-.021-1.42-.01-1.272-.024-3.108-.044-5.488-.024-4.806-.06-11.791-.1-20.624-.053-17.67-.129-42.726-.217-72.376l.332.332-73.361.087h-.009l.366-.367c0,37.5,0,72.223,0,100.4l-.3-.3,53.278.117,14.826.067,3.908.03c.887.011,1.359.032,1.359.032s-.43.022-1.3.034l-3.851.036c-3.421.019-8.4.049-14.759.087l-53.465.193h-.3v-.3c-.039-28.18-.087-62.9-.14-100.4v-.367h.374l73.363-.018h.333v.332c-.046,29.74-.085,54.869-.113,72.593-.032,8.8-.057,15.761-.074,20.549-.016,2.352-.027,4.167-.035,5.423-.008.593-.015,1.049-.018,1.383a3.784,3.784,0,0,1-.019.455" transform="translate(22.447 4.896)" fill="#263238"/>
            <path id="Trazado_778750" data-name="Trazado 778750" d="M148.23,39.8c0,.2-7.983.372-17.827.379s-17.828-.151-17.828-.353,7.98-.372,17.828-.379,17.827.152,17.827.353" transform="translate(24.142 8.459)" fill="#263238"/>
            <path id="Trazado_778751" data-name="Trazado 778751" d="M167.518,46.97c0,.2-12.3.375-27.468.386s-27.471-.145-27.471-.346,12.3-.375,27.471-.386,27.468.143,27.468.346" transform="translate(24.143 9.999)" fill="#263238"/>
            <path id="Trazado_778752" data-name="Trazado 778752" d="M167.524,54.464c0,.2-12.3.375-27.468.386s-27.471-.145-27.471-.346,12.3-.375,27.471-.386,27.468.143,27.468.346" transform="translate(24.144 11.606)" fill="#263238"/>
            <path id="Trazado_778753" data-name="Trazado 778753" d="M167.529,61.959c0,.2-12.3.375-27.467.386S112.59,62.2,112.59,62s12.3-.375,27.471-.386,27.468.145,27.468.346" transform="translate(24.145 13.213)" fill="#263238"/>
            <path id="Trazado_778754" data-name="Trazado 778754" d="M167.535,69.453c0,.2-12.3.375-27.468.386s-27.471-.145-27.471-.346,12.3-.375,27.471-.386,27.468.145,27.468.346" transform="translate(24.146 14.82)" fill="#263238"/>
            <path id="Trazado_778755" data-name="Trazado 778755" d="M167.54,76.948c0,.2-12.3.375-27.468.386S112.6,77.19,112.6,76.988s12.3-.375,27.471-.386,27.468.145,27.468.346" transform="translate(24.148 16.427)" fill="#263238"/>
            <path id="Trazado_778756" data-name="Trazado 778756" d="M167.545,84.442c0,.2-12.3.375-27.468.386s-27.471-.145-27.471-.347,12.3-.374,27.471-.385,27.468.143,27.468.346" transform="translate(24.149 18.034)" fill="#263238"/>
            <path id="Trazado_778757" data-name="Trazado 778757" d="M142.143,91.954c0,.2-6.61.37-14.764.376s-14.767-.153-14.767-.356,6.61-.37,14.767-.376,14.764.153,14.764.356" transform="translate(24.15 19.643)" fill="#263238"/>
            <path id="Trazado_778758" data-name="Trazado 778758" d="M177.7,102.147a14.9,14.9,0,1,1-14.9-14.9,14.9,14.9,0,0,1,14.9,14.9" transform="translate(31.716 18.709)" fill="#500c75"/>
            <path id="Trazado_778759" data-name="Trazado 778759" d="M170.087,94.8c.639.6-2.289,4.767-6.536,9.315-.684.732-1.36,1.429-2,2.068l-1.031,1.024-1.025-.861c-3.708-3.115-6.132-5.783-5.682-6.361s3.632,1.117,7.561,3.949l-2.056.163c.593-.686,1.242-1.409,1.926-2.14,4.247-4.548,8.21-7.753,8.847-7.157" transform="translate(32.973 20.314)" fill="#e0e0e0"/>
            <path id="Trazado_778760" data-name="Trazado 778760" d="M130.695,111.376c-.175,0-.316-1.359-.316-3.036s.141-3.036.316-3.036.316,1.359.316,3.036-.141,3.036-.316,3.036" transform="translate(27.96 22.583)" fill="#263238"/>
            <path id="Trazado_778761" data-name="Trazado 778761" d="M130.695,121.376c-.175,0-.316-1.359-.316-3.036s.141-3.036.316-3.036.316,1.359.316,3.036-.141,3.036-.316,3.036" transform="translate(27.96 24.727)" fill="#263238"/>
            <path id="Trazado_778762" data-name="Trazado 778762" d="M130.695,131.376c-.175,0-.316-1.359-.316-3.036s.141-3.036.316-3.036.316,1.359.316,3.036-.141,3.036-.316,3.036" transform="translate(27.96 26.872)" fill="#263238"/>
            <path id="Trazado_778763" data-name="Trazado 778763" d="M130.695,141.376c-.175,0-.316-1.359-.316-3.036s.141-3.036.316-3.036.316,1.359.316,3.036-.141,3.036-.316,3.036" transform="translate(27.96 29.016)" fill="#263238"/>
            <path id="Trazado_778764" data-name="Trazado 778764" d="M130.695,151.376c-.175,0-.316-1.359-.316-3.036s.141-3.036.316-3.036.316,1.359.316,3.036-.141,3.036-.316,3.036" transform="translate(27.96 31.161)" fill="#263238"/>
            <path id="Trazado_778765" data-name="Trazado 778765" d="M130.695,161.376c-.175,0-.316-1.359-.316-3.036s.141-3.036.316-3.036.316,1.359.316,3.036-.141,3.036-.316,3.036" transform="translate(27.96 33.305)" fill="#263238"/>
            <path id="Trazado_778766" data-name="Trazado 778766" d="M130.695,171.376c-.175,0-.316-1.359-.316-3.036s.141-3.036.316-3.036.316,1.359.316,3.036-.141,3.036-.316,3.036" transform="translate(27.96 35.45)" fill="#263238"/>
            <path id="Trazado_778767" data-name="Trazado 778767" d="M130.695,181.376c-.175,0-.316-1.359-.316-3.036s.141-3.036.316-3.036.316,1.359.316,3.036-.141,3.036-.316,3.036" transform="translate(27.96 37.594)" fill="#263238"/>
            <path id="Trazado_778768" data-name="Trazado 778768" d="M136.523,185.535c0,.175-1.359.317-3.036.317a14.261,14.261,0,0,1-2.824-.2l-.135-.038.019-.078c.036-.14.075-.213.115-.213s.079.073.114.213l-.114-.114a14.26,14.26,0,0,1,2.824-.2c1.677,0,3.036.141,3.036.316" transform="translate(27.992 39.721)" fill="#263238"/>
            <path id="Trazado_778769" data-name="Trazado 778769" d="M146.536,185.535c0,.175-1.359.317-3.036.317s-3.036-.142-3.036-.317,1.359-.316,3.036-.316,3.036.141,3.036.316" transform="translate(30.123 39.721)" fill="#263238"/>
            <path id="Trazado_778770" data-name="Trazado 778770" d="M156.536,185.535c0,.175-1.359.317-3.036.317s-3.036-.142-3.036-.317,1.359-.316,3.036-.316,3.036.141,3.036.316" transform="translate(32.267 39.721)" fill="#263238"/>
            <path id="Trazado_778771" data-name="Trazado 778771" d="M166.536,185.535c0,.175-1.359.317-3.036.317s-3.036-.142-3.036-.317,1.359-.316,3.036-.316,3.036.141,3.036.316" transform="translate(34.412 39.721)" fill="#263238"/>
            <path id="Trazado_778772" data-name="Trazado 778772" d="M176.536,185.535c0,.175-1.359.317-3.036.317s-3.036-.142-3.036-.317,1.359-.316,3.036-.316,3.036.141,3.036.316" transform="translate(36.556 39.721)" fill="#263238"/>
          </g>
        </g>
        <g id="Grupo_1064894" data-name="Grupo 1064894">
          <g id="Grupo_1064893" data-name="Grupo 1064893" clip-path="url(#clip-path-3)">
            <path id="Trazado_778773" data-name="Trazado 778773" d="M342.074,96.092c-.175,0-.316-1.359-.316-3.035s.141-3.035.316-3.035.316,1.359.316,3.035-.141,3.035-.316,3.035" transform="translate(73.291 19.305)" fill="#263238"/>
            <path id="Trazado_778774" data-name="Trazado 778774" d="M342.074,106.089c-.175,0-.316-1.359-.316-3.036s.141-3.036.316-3.036.316,1.359.316,3.036-.141,3.036-.316,3.036" transform="translate(73.291 21.449)" fill="#263238"/>
            <path id="Trazado_778775" data-name="Trazado 778775" d="M342.074,116.087c-.175,0-.316-1.359-.316-3.035s.141-3.035.316-3.035.316,1.359.316,3.035-.141,3.035-.316,3.035" transform="translate(73.291 23.593)" fill="#263238"/>
            <path id="Trazado_778776" data-name="Trazado 778776" d="M342.074,126.083c-.175,0-.316-1.359-.316-3.035s.141-3.035.316-3.035.316,1.358.316,3.035-.141,3.035-.316,3.035" transform="translate(73.291 25.737)" fill="#263238"/>
            <path id="Trazado_778777" data-name="Trazado 778777" d="M342.074,136.086c-.175,0-.316-1.36-.316-3.037s.141-3.037.316-3.037.316,1.359.316,3.037-.141,3.037-.316,3.037" transform="translate(73.291 27.881)" fill="#263238"/>
            <path id="Trazado_778778" data-name="Trazado 778778" d="M342.074,146.09c-.175,0-.316-1.359-.316-3.036s.141-3.036.316-3.036.316,1.359.316,3.036-.141,3.036-.316,3.036" transform="translate(73.291 30.027)" fill="#263238"/>
            <path id="Trazado_778779" data-name="Trazado 778779" d="M342.074,156.09c-.175,0-.316-1.36-.316-3.036s.141-3.036.316-3.036.316,1.359.316,3.036-.141,3.036-.316,3.036" transform="translate(73.291 32.172)" fill="#263238"/>
            <path id="Trazado_778780" data-name="Trazado 778780" d="M342.074,166.1c-.175,0-.316-1.36-.316-3.039s.141-3.039.316-3.039.316,1.36.316,3.039-.141,3.039-.316,3.039" transform="translate(73.291 34.316)" fill="#263238"/>
            <path id="Trazado_778781" data-name="Trazado 778781" d="M436.832,116.043s-.236.019-.717.028l-2.148.028-8.368.056-31.385.111-108.319.168H285.6l-.083-.282A26.912,26.912,0,0,1,312.079,81.7l-.4.517a22.8,22.8,0,0,1-.838-7.272c.334-8.372,5.095-16.461,12.4-20.2a24.513,24.513,0,0,1,22.951.124l-.56.2c3.894-9.5,12.108-16.387,21.021-19.578,8.938-3.249,18.853-2.822,26.647,1.256a36.359,36.359,0,0,1,16.5,18.022,34.433,34.433,0,0,1,2.029,21.609l-.3-.344a25.767,25.767,0,0,1,12.539,1.8,26.219,26.219,0,0,1,9.3,6.375,16.747,16.747,0,0,1,2.929,4.2,23.611,23.611,0,0,1,1.559,4.462,39.683,39.683,0,0,1,1.066,8.149,46.28,46.28,0,0,1-.975,11.265,25.835,25.835,0,0,1-.778,2.839c-.217.632-.336.929-.336.929" transform="translate(61.007 7.147)" fill="#ffb206"/>
            <path id="Trazado_778782" data-name="Trazado 778782" d="M404.593,75.143h-4.677V47.012a12.253,12.253,0,0,0-24.506,0v28.13h-4.677V47.012a16.93,16.93,0,0,1,33.86,0Z" transform="translate(79.504 6.451)" fill="#e0e0e0"/>
            <path id="Trazado_778783" data-name="Trazado 778783" d="M407.788,86.583H369.734a4.119,4.119,0,0,1-4.119-4.119V61a4.119,4.119,0,0,1,4.119-4.119h38.054A4.12,4.12,0,0,1,411.907,61V82.463a4.12,4.12,0,0,1-4.119,4.119" transform="translate(78.407 12.198)" fill="#e0e0e0"/>
            <path id="Trazado_778784" data-name="Trazado 778784" d="M385.357,70.476a3.869,3.869,0,1,1,3.869-3.869,3.869,3.869,0,0,1-3.869,3.869" transform="translate(81.811 13.454)" fill="#455a64"/>
            <rect id="Rectángulo_374037" data-name="Rectángulo 374037" width="2.111" height="7.958" transform="translate(466.113 81.594)" fill="#455a64"/>
          </g>
        </g>
        <g id="Grupo_1064896" data-name="Grupo 1064896">
          <g id="Grupo_1064895" data-name="Grupo 1064895" clip-path="url(#clip-path-3)">
            <path id="Trazado_778785" data-name="Trazado 778785" d="M632.8,67.243a25.326,25.326,0,1,0-39.3-6.009l-5.153,4.808,1.232,8.553-8-2.242-6.446,6.015,1.23,8.553-8-2.241-5.542,5.17.75,5.212L558.7,93.7l-3.226,3.009-.483,7.922,11.815,2.974,38.337-35.767A25.333,25.333,0,0,0,632.8,67.243M629.052,36.1a7.265,7.265,0,1,1-10.268-.356,7.266,7.266,0,0,1,10.268.356" transform="translate(119.02 5.018)" fill="#263238"/>
            <path id="Trazado_778786" data-name="Trazado 778786" d="M618.249,34.3c-.046.047-.475-.442-1.443-1.038a7.247,7.247,0,0,0-4.572-1,6.992,6.992,0,1,0,7.636,8.184,7.252,7.252,0,0,0-.685-4.631c-.528-1.007-.987-1.468-.936-1.511.016-.015.135.092.347.315a5.558,5.558,0,0,1,.8,1.077,7.232,7.232,0,0,1,.911,4.825,7.49,7.49,0,0,1-8.78,6.174,7.508,7.508,0,0,1-6.109-6.548,7.489,7.489,0,0,1,6.767-8.33,7.228,7.228,0,0,1,4.751,1.242,5.552,5.552,0,0,1,1.02.876c.207.228.3.355.289.369" transform="translate(129.823 6.817)" fill="#263238"/>
            <path id="Trazado_778787" data-name="Trazado 778787" d="M632.851,67.283s-.117.125-.364.35l-1.115.995a26.571,26.571,0,0,1-4.9,3.115,25.5,25.5,0,0,1-21.348.307l.209-.034-38.273,35.835-.113.106-.151-.038-11.818-2.962-.238-.061.015-.245c.148-2.47.312-5.178.477-7.922l.006-.12.089-.083,3.223-3.011.126-.118.165.046,4.874,1.364-.387.34c-.236-1.627-.493-3.414-.753-5.212l-.023-.16.119-.112,5.539-5.171.129-.12.17.047,8,2.239-.4.349c-.39-2.712-.81-5.622-1.231-8.553l-.024-.164.122-.113,1.709-1.595,4.739-4.419.13-.121.171.047,8,2.243-.4.347q-.621-4.321-1.229-8.553l-.023-.162.119-.112,5.155-4.8-.058.379A25.861,25.861,0,0,1,589.993,49.9a24.546,24.546,0,0,1,.42-5.86,24.853,24.853,0,0,1,1.686-5.509,25.515,25.515,0,0,1,48.851,12.233,25.04,25.04,0,0,1-2.842,9.751l-.471.9-.52.8c-.345.513-.631,1.015-.962,1.438-.682.823-1.207,1.563-1.723,2.078L633.262,66.9c-.266.26-.411.383-.411.383s.119-.149.37-.423c.27-.287.642-.685,1.128-1.2s1.008-1.272,1.673-2.1c.319-.424.6-.929.933-1.442l.505-.8.457-.9a25.362,25.362,0,0,0,.183-22.767,25.092,25.092,0,0,0-45.464,1.117A24.3,24.3,0,0,0,591,44.146a23.925,23.925,0,0,0-.4,5.724,25.234,25.234,0,0,0,3.226,11.252l.119.214-.177.165-5.151,4.809.1-.272q.61,4.23,1.233,8.552l.069.479-.465-.13-8-2.241.3-.073q-2.354,2.2-4.739,4.421L575.4,78.64l.1-.276c.421,2.932.84,5.842,1.23,8.553l.069.478-.466-.13-8-2.243.3-.073-5.543,5.167.095-.271c.259,1.8.515,3.585.748,5.214l.067.468-.455-.128-4.872-1.369.29-.07-3.227,3.007.095-.2c-.169,2.745-.336,5.452-.488,7.922l-.223-.306,11.812,2.985-.264.068,38.4-35.7.094-.086.115.052a25.379,25.379,0,0,0,21.1-.143,27.835,27.835,0,0,0,4.923-3.013l1.146-.951c.259-.213.4-.311.4-.311" transform="translate(118.965 4.978)" fill="#263238"/>
            <path id="Trazado_778788" data-name="Trazado 778788" d="M632.1,64.876a25.326,25.326,0,1,0-39.3-6.009l-.006.007-5.147,4.8,1.231,8.553-8-2.242L574.434,76l1.232,8.553-8-2.241-5.542,5.17.75,5.212L558,91.331l-3.226,3.011-.483,7.921,11.815,2.974,38.337-35.767A25.333,25.333,0,0,0,632.1,64.876m-3.744-31.143a7.265,7.265,0,1,1-10.268-.356,7.266,7.266,0,0,1,10.268.356" transform="translate(118.87 4.51)" fill="#e0e0e0"/>
            <path id="Trazado_778789" data-name="Trazado 778789" d="M617.55,31.934c-.046.047-.475-.442-1.443-1.038a7.247,7.247,0,0,0-4.572-1,6.991,6.991,0,1,0,7.636,8.184,7.248,7.248,0,0,0-.685-4.629c-.528-1.008-.987-1.469-.936-1.512.016-.015.135.092.347.315a5.584,5.584,0,0,1,.8,1.078,7.23,7.23,0,0,1,.911,4.824,7.49,7.49,0,0,1-8.78,6.174,7.508,7.508,0,0,1-6.109-6.548,7.489,7.489,0,0,1,6.767-8.33,7.228,7.228,0,0,1,4.751,1.242,5.605,5.605,0,0,1,1.02.876c.206.228.3.355.289.369" transform="translate(129.673 6.309)" fill="#263238"/>
            <path id="Trazado_778790" data-name="Trazado 778790" d="M632.153,64.916s-.117.125-.364.35l-1.115.995a26.564,26.564,0,0,1-4.9,3.115,25.5,25.5,0,0,1-21.348.307l.209-.034L566.36,105.484l-.113.106-.151-.038-11.818-2.962-.239-.061.016-.245c.148-2.47.311-5.178.476-7.922l.007-.12.089-.083,3.223-3.012.126-.117.165.046,4.874,1.364-.387.34c-.236-1.627-.493-3.414-.753-5.212l-.023-.16.119-.112,5.539-5.171.129-.12.17.047,8,2.239-.4.349c-.391-2.712-.81-5.622-1.231-8.553l-.024-.164.121-.113,1.709-1.595,4.739-4.419.13-.121.171.047,8,2.243-.4.347q-.619-4.321-1.228-8.553l-.023-.162.119-.112,5.155-4.8-.058.378a25.84,25.84,0,0,1-3.292-11.53A25.861,25.861,0,0,1,591.4,36.161a25.515,25.515,0,0,1,48.851,12.233,25.043,25.043,0,0,1-2.842,9.751l-.471.9-.521.8c-.344.512-.631,1.015-.961,1.437-.683.823-1.207,1.563-1.725,2.078s-.891.89-1.171,1.17c-.265.26-.409.383-.409.383s.119-.149.37-.423l1.127-1.2c.5-.525,1.009-1.272,1.675-2.1.319-.424.6-.929.933-1.442l.505-.8q.222-.437.455-.9a25.357,25.357,0,0,0,.185-22.767A25.092,25.092,0,0,0,591.938,36.4a24.245,24.245,0,0,0-1.638,5.384,23.988,23.988,0,0,0-.4,5.724,25.267,25.267,0,0,0,3.226,11.252l.12.214-.177.165-5.15,4.809.1-.272q.61,4.23,1.233,8.552l.069.478-.465-.13-8-2.241.3-.073-4.739,4.421-1.709,1.595.1-.276c.421,2.932.84,5.842,1.23,8.553l.069.478-.466-.13-8-2.243.3-.073-5.543,5.167.095-.271c.259,1.8.515,3.585.748,5.214l.067.468-.455-.128-4.872-1.369.29-.07L555.04,94.6l.095-.2c-.169,2.743-.336,5.452-.488,7.922l-.223-.306L566.234,105l-.264.068,38.4-35.7.093-.086.115.052a25.391,25.391,0,0,0,21.1-.143,27.84,27.84,0,0,0,4.923-3.013l1.146-.951c.259-.213.4-.311.4-.311" transform="translate(118.815 4.47)" fill="#263238"/>
            <path id="Trazado_778791" data-name="Trazado 778791" d="M623.118,62.374a34.669,34.669,0,0,0,3.4-4.291,21.3,21.3,0,0,0,2.6-5.829,22.059,22.059,0,0,0-11.217-25.761,20.673,20.673,0,0,0-5.989-2.022,20.127,20.127,0,0,0-6.585-.21,21.888,21.888,0,0,0-19,17.727,25.086,25.086,0,0,0-.4,3.314,24.963,24.963,0,0,0,.149,3.272,20.668,20.668,0,0,0,1.6,6.115,22.115,22.115,0,0,0,24.922,12.974,21.288,21.288,0,0,0,6-2.193,34.581,34.581,0,0,0,4.515-3.1,1.518,1.518,0,0,1-.255.257l-.792.708a10.277,10.277,0,0,1-1.359,1.07,15.527,15.527,0,0,1-1.99,1.275,21.08,21.08,0,0,1-6.039,2.324,22.471,22.471,0,0,1-18.134-3.777,22.6,22.6,0,0,1-7.4-9.315,21.209,21.209,0,0,1-1.666-6.275,25.257,25.257,0,0,1-.162-3.36,25.454,25.454,0,0,1,.4-3.408,22.462,22.462,0,0,1,19.541-18.229,20.7,20.7,0,0,1,6.768.232,21.174,21.174,0,0,1,6.143,2.1A22.594,22.594,0,0,1,626.951,34a22.475,22.475,0,0,1,2.512,18.353,21.037,21.037,0,0,1-2.736,5.865,15.58,15.58,0,0,1-1.41,1.9,10.245,10.245,0,0,1-1.162,1.282l-.761.741a1.5,1.5,0,0,1-.275.237" transform="translate(125.523 5.036)" fill="#263238"/>
            <path id="Trazado_778792" data-name="Trazado 778792" d="M618.18,43.366c-.051-.049.53-.545,1.235-1.681a8.48,8.48,0,0,0,1.2-5.375,8.268,8.268,0,0,0-4.506-6.491,8.145,8.145,0,0,0-4.7-.823,8.19,8.19,0,0,0-7.095,6.619,8.146,8.146,0,0,0,.5,4.745,8.278,8.278,0,0,0,6.163,4.945,8.49,8.49,0,0,0,5.446-.822c1.182-.627,1.717-1.17,1.762-1.116.015.016-.114.152-.375.4a6.657,6.657,0,0,1-1.267.931,8.477,8.477,0,0,1-5.64,1.048,8.619,8.619,0,0,1-3.728-1.539,8.778,8.778,0,0,1,4.166-15.826,8.671,8.671,0,0,1,5.038.919,8.766,8.766,0,0,1,3.408,3.139,8.617,8.617,0,0,1,1.278,3.826,8.49,8.49,0,0,1-1.435,5.555,6.754,6.754,0,0,1-1.018,1.2c-.265.243-.411.362-.425.346" transform="translate(129.433 6.073)" fill="#263238"/>
            <path id="Trazado_778793" data-name="Trazado 778793" d="M561.474,95.636c-.119-.128,8.513-8.375,19.279-18.42s19.594-18.087,19.713-17.959-8.512,8.374-19.282,18.422-19.591,18.084-19.711,17.957" transform="translate(120.409 12.708)" fill="#263238"/>
            <path id="Trazado_778794" data-name="Trazado 778794" d="M531.83,179.6c0,.175-1.359.316-3.036.316s-3.036-.141-3.036-.316,1.359-.316,3.036-.316,3.036.141,3.036.316" transform="translate(112.75 38.449)" fill="#263238"/>
            <path id="Trazado_778795" data-name="Trazado 778795" d="M541.83,179.6c0,.175-1.359.316-3.036.316s-3.036-.141-3.036-.316,1.359-.316,3.036-.316,3.036.141,3.036.316" transform="translate(114.894 38.449)" fill="#263238"/>
            <path id="Trazado_778796" data-name="Trazado 778796" d="M551.83,179.6c0,.175-1.359.316-3.036.316s-3.036-.141-3.036-.316,1.359-.316,3.036-.316,3.036.141,3.036.316" transform="translate(117.039 38.449)" fill="#263238"/>
            <path id="Trazado_778797" data-name="Trazado 778797" d="M561.83,179.6c0,.175-1.359.316-3.036.316s-3.036-.141-3.036-.316,1.359-.316,3.036-.316,3.036.141,3.036.316" transform="translate(119.184 38.449)" fill="#263238"/>
            <path id="Trazado_778798" data-name="Trazado 778798" d="M571.83,179.6c0,.175-1.359.316-3.036.316s-3.036-.141-3.036-.316,1.359-.316,3.036-.316,3.036.141,3.036.316" transform="translate(121.328 38.449)" fill="#263238"/>
            <path id="Trazado_778799" data-name="Trazado 778799" d="M581.83,179.6c0,.175-1.359.316-3.036.316s-3.036-.141-3.036-.316,1.359-.316,3.036-.316,3.036.141,3.036.316" transform="translate(123.472 38.449)" fill="#263238"/>
            <path id="Trazado_778800" data-name="Trazado 778800" d="M589.989,178.033c.13,0,.243.758.29,1.84l.013.278-.3.013c-.367.016-.771.026-1.2.026-1.677,0-3.037-.142-3.037-.317s1.36-.316,3.037-.316c.424,0,.828.009,1.2.026l-.29.29c.049-1.082.16-1.84.29-1.84" transform="translate(125.617 38.18)" fill="#263238"/>
            <path id="Trazado_778801" data-name="Trazado 778801" d="M589.3,168.033c.175,0,.316,1.359.316,3.036s-.141,3.036-.316,3.036-.316-1.359-.316-3.036.141-3.036.316-3.036" transform="translate(126.308 36.035)" fill="#263238"/>
            <path id="Trazado_778802" data-name="Trazado 778802" d="M589.3,158.033c.175,0,.316,1.359.316,3.036s-.141,3.036-.316,3.036-.316-1.359-.316-3.036.141-3.036.316-3.036" transform="translate(126.308 33.891)" fill="#263238"/>
            <path id="Trazado_778803" data-name="Trazado 778803" d="M589.3,148.033c.175,0,.316,1.359.316,3.036s-.141,3.036-.316,3.036-.316-1.359-.316-3.036.141-3.036.316-3.036" transform="translate(126.308 31.746)" fill="#263238"/>
            <path id="Trazado_778804" data-name="Trazado 778804" d="M589.3,138.033c.175,0,.316,1.359.316,3.036s-.141,3.036-.316,3.036-.316-1.359-.316-3.036.141-3.036.316-3.036" transform="translate(126.308 29.601)" fill="#263238"/>
            <path id="Trazado_778805" data-name="Trazado 778805" d="M589.3,128.033c.175,0,.316,1.359.316,3.036s-.141,3.036-.316,3.036-.316-1.359-.316-3.036.141-3.036.316-3.036" transform="translate(126.308 27.457)" fill="#263238"/>
            <path id="Trazado_778806" data-name="Trazado 778806" d="M589.3,118.033c.175,0,.316,1.359.316,3.036s-.141,3.036-.316,3.036-.316-1.359-.316-3.036.141-3.036.316-3.036" transform="translate(126.308 25.312)" fill="#263238"/>
            <path id="Trazado_778807" data-name="Trazado 778807" d="M589.3,108.033c.175,0,.316,1.359.316,3.036s-.141,3.036-.316,3.036-.316-1.359-.316-3.036.141-3.036.316-3.036" transform="translate(126.308 23.168)" fill="#263238"/>
            <path id="Trazado_778808" data-name="Trazado 778808" d="M589.3,98.033c.175,0,.316,1.359.316,3.036s-.141,3.036-.316,3.036-.316-1.359-.316-3.036.141-3.036.316-3.036" transform="translate(126.308 21.023)" fill="#263238"/>
            <path id="Trazado_778809" data-name="Trazado 778809" d="M589.3,88.033c.175,0,.316,1.359.316,3.036s-.141,3.036-.316,3.036-.316-1.359-.316-3.036.141-3.036.316-3.036" transform="translate(126.308 18.879)" fill="#263238"/>
            <path id="Trazado_778810" data-name="Trazado 778810" d="M589.3,78.033c.175,0,.316,1.359.316,3.036s-.141,3.036-.316,3.036-.316-1.359-.316-3.036.141-3.036.316-3.036" transform="translate(126.308 16.734)" fill="#263238"/>
          </g>
        </g>
        <g id="Grupo_1064898" data-name="Grupo 1064898">
          <g id="Grupo_1064897" data-name="Grupo 1064897" clip-path="url(#clip-path-3)">
            <path id="Trazado_778811" data-name="Trazado 778811" d="M515.337,279.278c0,.175-1.359.316-3.036.316s-3.036-.141-3.036-.316,1.359-.316,3.036-.316,3.036.141,3.036.316" transform="translate(109.213 59.824)" fill="#263238"/>
            <path id="Trazado_778812" data-name="Trazado 778812" d="M525.337,279.278c0,.175-1.359.316-3.036.316s-3.036-.141-3.036-.316,1.359-.316,3.036-.316,3.036.141,3.036.316" transform="translate(111.357 59.824)" fill="#263238"/>
            <path id="Trazado_778813" data-name="Trazado 778813" d="M535.337,279.278c0,.175-1.359.316-3.036.316s-3.036-.141-3.036-.316,1.359-.316,3.036-.316,3.036.141,3.036.316" transform="translate(113.502 59.824)" fill="#263238"/>
            <path id="Trazado_778814" data-name="Trazado 778814" d="M545.337,279.278c0,.175-1.359.316-3.036.316s-3.036-.141-3.036-.316,1.359-.316,3.036-.316,3.036.141,3.036.316" transform="translate(115.646 59.824)" fill="#263238"/>
            <path id="Trazado_778815" data-name="Trazado 778815" d="M555.337,279.278c0,.175-1.359.316-3.036.316s-3.036-.141-3.036-.316,1.359-.316,3.036-.316,3.036.141,3.036.316" transform="translate(117.791 59.824)" fill="#263238"/>
            <path id="Trazado_778816" data-name="Trazado 778816" d="M565.337,279.278c0,.175-1.359.316-3.036.316s-3.036-.141-3.036-.316,1.359-.316,3.036-.316,3.036.141,3.036.316" transform="translate(119.936 59.824)" fill="#263238"/>
            <path id="Trazado_778817" data-name="Trazado 778817" d="M575.337,279.278c0,.175-1.359.316-3.036.316s-3.036-.141-3.036-.316,1.359-.316,3.036-.316,3.036.141,3.036.316" transform="translate(122.08 59.824)" fill="#263238"/>
            <path id="Trazado_778818" data-name="Trazado 778818" d="M585.337,279.278c0,.175-1.359.316-3.036.316s-3.036-.141-3.036-.316,1.359-.316,3.036-.316,3.036.141,3.036.316" transform="translate(124.225 59.824)" fill="#263238"/>
            <path id="Trazado_778819" data-name="Trazado 778819" d="M595.337,279.278c0,.175-1.359.316-3.036.316s-3.036-.141-3.036-.316,1.359-.316,3.036-.316,3.036.141,3.036.316" transform="translate(126.369 59.824)" fill="#263238"/>
            <path id="Trazado_778820" data-name="Trazado 778820" d="M605.337,279.278c0,.175-1.359.316-3.036.316s-3.036-.141-3.036-.316,1.359-.316,3.036-.316,3.036.141,3.036.316" transform="translate(128.514 59.824)" fill="#263238"/>
            <path id="Trazado_778821" data-name="Trazado 778821" d="M614.211,278.286c.1,0,.183.442.234,1.139l.017.221-.262.023c-.513.044-1.177.069-1.9.069-1.677,0-3.036-.141-3.036-.316s1.359-.316,3.036-.316c.723,0,1.387.025,1.9.07l-.247.243c.066-.7.158-1.136.258-1.134" transform="translate(130.658 59.679)" fill="#263238"/>
            <path id="Trazado_778822" data-name="Trazado 778822" d="M613.5,268.287c.175,0,.3,1.363.287,3.039s-.172,3.035-.346,3.034-.3-1.363-.287-3.04.171-3.034.346-3.033" transform="translate(131.492 57.535)" fill="#263238"/>
            <path id="Trazado_778823" data-name="Trazado 778823" d="M613.6,258.287c.175,0,.3,1.363.286,3.039s-.172,3.035-.346,3.034-.3-1.363-.287-3.04.171-3.034.346-3.033" transform="translate(131.513 55.39)" fill="#263238"/>
            <path id="Trazado_778824" data-name="Trazado 778824" d="M613.7,248.288c.175,0,.3,1.363.286,3.039s-.172,3.035-.346,3.034-.3-1.363-.287-3.04.171-3.034.346-3.033" transform="translate(131.534 53.246)" fill="#263238"/>
            <path id="Trazado_778825" data-name="Trazado 778825" d="M580.544,217.464l2.231,41.042a2.77,2.77,0,0,0,2.747,2.62l73.852.542a2.771,2.771,0,0,0,2.791-2.751l.234-31.947a2.771,2.771,0,0,0-2.768-2.791l-45.422-.04a2.776,2.776,0,0,1-1.956-.811l-7.837-7.833a2.765,2.765,0,0,0-1.938-.811l-19.147-.14a2.771,2.771,0,0,0-2.787,2.921" transform="translate(124.498 46.009)" fill="#e01650"/>
            <rect id="Rectángulo_374040" data-name="Rectángulo 374040" width="48.22" height="80.695" transform="translate(705.907 312.987) rotate(-89.58)" fill="#f5f5f5"/>
            <path id="Trazado_778826" data-name="Trazado 778826" d="M576.237,221.89l5.793,50.328a1.78,1.78,0,0,0,1.756,1.578l78.641.577a1.783,1.783,0,0,0,1.789-1.63l4.327-50.254a1.783,1.783,0,0,0-1.762-1.935l-88.761-.65a1.782,1.782,0,0,0-1.783,1.986" transform="translate(123.573 47.159)" fill="#e01650"/>
          </g>
        </g>
        <g id="Grupo_1064900" data-name="Grupo 1064900">
          <g id="Grupo_1064899" data-name="Grupo 1064899" clip-path="url(#clip-path-3)">
            <path id="Trazado_778827" data-name="Trazado 778827" d="M596.875,449.309H190.4a17.691,17.691,0,0,1-17.692-17.691V174.8A17.692,17.692,0,0,1,190.4,157.112H596.875A17.691,17.691,0,0,1,614.566,174.8V431.618a17.691,17.691,0,0,1-17.691,17.691" transform="translate(37.037 33.693)" fill="#263238"/>
            <path id="Trazado_778828" data-name="Trazado 778828" d="M614.6,405.485H179.107a21.614,21.614,0,0,1-21.614-21.615v-3.952h478.72v3.952A21.615,21.615,0,0,1,614.6,405.485" transform="translate(33.775 81.474)" fill="#263238"/>
            <rect id="Rectángulo_374042" data-name="Rectángulo 374042" width="416.902" height="246.756" transform="translate(221.606 202.415)" fill="#455a64"/>
            <path id="Trazado_778829" data-name="Trazado 778829" d="M318.758,379.917l5.94,9.45h83.591l5.516-9.45Z" transform="translate(68.358 81.474)" fill="#455a64"/>
            <path id="Trazado_778830" data-name="Trazado 778830" d="M586.156,411.163H193.52a3.976,3.976,0,0,1-3.975-3.975V177.526a3.974,3.974,0,0,1,3.975-3.975H586.156a3.975,3.975,0,0,1,3.975,3.974V407.188a3.975,3.975,0,0,1-3.975,3.975" transform="translate(40.648 37.218)" fill="#ebebeb"/>
            <rect id="Rectángulo_374043" data-name="Rectángulo 374043" width="400.586" height="220.203" transform="translate(230.192 228.179)" fill="#fafafa"/>
            <path id="Trazado_778831" data-name="Trazado 778831" d="M217.727,181.671a3.2,3.2,0,1,1-3.2-3.2,3.2,3.2,0,0,1,3.2,3.2" transform="translate(45.32 38.274)" fill="#263238"/>
            <path id="Trazado_778832" data-name="Trazado 778832" d="M201.762,181.671a3.2,3.2,0,1,1-3.2-3.2,3.2,3.2,0,0,1,3.2,3.2" transform="translate(41.896 38.274)" fill="#263238"/>
            <path id="Trazado_778833" data-name="Trazado 778833" d="M209.425,181.671a3.2,3.2,0,1,1-3.2-3.2,3.2,3.2,0,0,1,3.2,3.2" transform="translate(43.539 38.274)" fill="#263238"/>
            <path id="Trazado_778834" data-name="Trazado 778834" d="M610.769,379.968c0,.158-98.071.287-219.02.287-120.991,0-219.041-.129-219.041-.287s98.05-.287,219.041-.287c120.95,0,219.02.129,219.02.287" transform="translate(37.038 81.423)" fill="#455a64"/>
            <rect id="Rectángulo_374044" data-name="Rectángulo 374044" width="91.412" height="6.115" transform="translate(257.954 339.105)" fill="#e0e0e0"/>
            <rect id="Rectángulo_374045" data-name="Rectángulo 374045" width="91.412" height="6.115" transform="translate(376.026 254.207)" fill="#e0e0e0"/>
            <path id="Trazado_778835" data-name="Trazado 778835" d="M536.995,228.121c0,.158-50.9.287-113.679.287-62.8,0-113.691-.129-113.691-.287s50.892-.287,113.691-.287c62.776,0,113.679.129,113.679.287" transform="translate(66.4 48.859)" fill="#e0e0e0"/>
            <path id="Trazado_778836" data-name="Trazado 778836" d="M536.995,239.116c0,.158-50.9.287-113.679.287-62.8,0-113.691-.129-113.691-.287s50.892-.287,113.691-.287c62.776,0,113.679.129,113.679.287" transform="translate(66.4 51.217)" fill="#e0e0e0"/>
            <path id="Trazado_778837" data-name="Trazado 778837" d="M536.995,250.11c0,.158-50.9.287-113.679.287-62.8,0-113.691-.129-113.691-.287s50.892-.287,113.691-.287c62.776,0,113.679.129,113.679.287" transform="translate(66.4 53.575)" fill="#e0e0e0"/>
            <path id="Trazado_778838" data-name="Trazado 778838" d="M536.995,261.106c0,.158-50.9.287-113.679.287-62.8,0-113.691-.129-113.691-.287s50.892-.287,113.691-.287c62.776,0,113.679.129,113.679.287" transform="translate(66.4 55.933)" fill="#e0e0e0"/>
            <path id="Trazado_778839" data-name="Trazado 778839" d="M536.995,272.1c0,.158-50.9.287-113.679.287-62.8,0-113.691-.129-113.691-.287s50.892-.287,113.691-.287c62.776,0,113.679.129,113.679.287" transform="translate(66.4 58.291)" fill="#e0e0e0"/>
            <path id="Trazado_778840" data-name="Trazado 778840" d="M398.379,283.095c0,.158-19.87.287-44.375.287s-44.378-.129-44.378-.287,19.865-.287,44.378-.287,44.375.129,44.375.287" transform="translate(66.4 60.649)" fill="#e0e0e0"/>
            <path id="Trazado_778841" data-name="Trazado 778841" d="M521.865,304.434c0,.158-33.457.287-74.719.287s-74.725-.129-74.725-.287,33.45-.287,74.725-.287,74.719.129,74.719.287" transform="translate(79.866 65.225)" fill="#e0e0e0"/>
            <path id="Trazado_778842" data-name="Trazado 778842" d="M521.865,316.1c0,.158-33.457.287-74.719.287s-74.725-.129-74.725-.287,33.45-.287,74.725-.287,74.719.129,74.719.287" transform="translate(79.866 67.728)" fill="#e0e0e0"/>
            <path id="Trazado_778843" data-name="Trazado 778843" d="M521.865,327.776c0,.158-33.457.287-74.719.287s-74.725-.129-74.725-.287,33.45-.287,74.725-.287,74.719.129,74.719.287" transform="translate(79.866 70.231)" fill="#e0e0e0"/>
            <path id="Trazado_778844" data-name="Trazado 778844" d="M521.865,339.448c0,.158-33.457.287-74.719.287s-74.725-.129-74.725-.287,33.45-.287,74.725-.287,74.719.129,74.719.287" transform="translate(79.866 72.734)" fill="#e0e0e0"/>
            <path id="Trazado_778845" data-name="Trazado 778845" d="M303.6,303.317c0,.158-19.944.287-44.541.287s-44.545-.129-44.545-.287,19.94-.287,44.545-.287,44.541.129,44.541.287" transform="translate(46.002 64.985)" fill="#e0e0e0"/>
            <path id="Trazado_778846" data-name="Trazado 778846" d="M303.6,312.483c0,.158-19.944.287-44.541.287s-44.545-.129-44.545-.287,19.94-.287,44.545-.287,44.541.129,44.541.287" transform="translate(46.002 66.951)" fill="#e0e0e0"/>
            <path id="Trazado_778847" data-name="Trazado 778847" d="M303.6,321.649c0,.158-19.944.287-44.541.287s-44.545-.129-44.545-.287,19.94-.287,44.545-.287,44.541.129,44.541.287" transform="translate(46.002 68.917)" fill="#e0e0e0"/>
            <path id="Trazado_778848" data-name="Trazado 778848" d="M303.6,330.815c0,.158-19.944.287-44.541.287s-44.545-.129-44.545-.287,19.94-.287,44.545-.287,44.541.129,44.541.287" transform="translate(46.002 70.882)" fill="#e0e0e0"/>
            <path id="Trazado_778849" data-name="Trazado 778849" d="M303.6,339.981c0,.158-19.944.287-44.541.287s-44.545-.129-44.545-.287,19.94-.287,44.545-.287,44.541.129,44.541.287" transform="translate(46.002 72.848)" fill="#e0e0e0"/>
            <rect id="Rectángulo_374046" data-name="Rectángulo 374046" width="64.857" height="62.748" transform="translate(375.97 362.895)" fill="#f5f5f5"/>
            <path id="Trazado_778850" data-name="Trazado 778850" d="M313.72,351.762l17.941-32.29,14.675,20.638,8.917-10.959,13.267,22.611Z" transform="translate(67.278 68.511)" fill="#ebebeb"/>
            <path id="Trazado_778851" data-name="Trazado 778851" d="M347.372,315.125a4.667,4.667,0,1,1-4.667-4.667,4.667,4.667,0,0,1,4.667,4.667" transform="translate(72.493 66.578)" fill="#ebebeb"/>
            <path id="Trazado_778852" data-name="Trazado 778852" d="M368.586,355.5a1.889,1.889,0,0,1-.015-.257c0-.188-.008-.427-.015-.731q-.011-1-.032-2.824c-.016-2.488-.039-6.088-.068-10.657-.034-9.165-.08-22.217-.136-37.887l.265.265-54.794.044c-.074.066.579-.581.3-.3v7.1q0,3.527,0,6.986c0,4.611,0,9.127-.007,13.522-.01,8.788-.021,17.1-.029,24.738l-.27-.268,39.621.137,11.175.07,2.964.032.769.015a2.2,2.2,0,0,1,.27.016,1.349,1.349,0,0,1-.239.015l-.74.016-2.912.032-11.115.07-39.794.136h-.268V355.5c-.01-7.643-.019-15.951-.03-24.738,0-4.4,0-8.91-.007-13.522q0-3.458,0-6.986v-7.1c-.274.272.375-.386.316-.317l54.794.043h.266v.265c-.057,15.741-.1,28.849-.136,38.056-.03,4.543-.053,8.122-.069,10.6q-.02,1.789-.03,2.773c-.006.294-.011.523-.016.7a1.217,1.217,0,0,1-.015.227" transform="translate(67.211 64.944)" fill="#ebebeb"/>
            <rect id="Rectángulo_374047" data-name="Rectángulo 374047" width="87.965" height="85.105" transform="translate(259.678 243.767)" fill="#f5f5f5"/>
            <path id="Trazado_778853" data-name="Trazado 778853" d="M219.439,272.534l24.334-43.794,19.9,27.992,12.094-14.865,17.993,30.667Z" transform="translate(47.059 49.054)" fill="#e0e0e0"/>
            <path id="Trazado_778854" data-name="Trazado 778854" d="M265.082,222.845a6.33,6.33,0,1,1-6.331-6.331,6.33,6.33,0,0,1,6.331,6.331" transform="translate(54.132 46.432)" fill="#e0e0e0"/>
            <path id="Trazado_778855" data-name="Trazado 778855" d="M293.854,277.61a2.452,2.452,0,0,1-.021-.349c0-.255-.011-.579-.019-.992q-.015-1.359-.042-3.83c-.022-3.375-.052-8.256-.092-14.453-.045-12.431-.108-30.133-.185-51.386l.359.359-74.317.06c-.1.087.786-.788.41-.407v9.629q0,4.784,0,9.475-.005,9.382-.01,18.339c-.013,11.919-.028,23.187-.04,33.553l-.364-.364,53.738.186,15.156.1,4.022.042,1.041.021a2.723,2.723,0,0,1,.367.021,1.763,1.763,0,0,1-.325.021l-1,.021-3.949.043-15.075.1-53.973.186h-.366v-.368c-.012-10.365-.026-21.634-.04-33.553q-.005-8.943-.011-18.339,0-4.689,0-9.475v-9.629c-.373.367.509-.526.427-.431l74.317.058h.361v.359c-.076,21.348-.14,39.128-.183,51.614-.04,6.163-.072,11.018-.094,14.373q-.027,2.425-.043,3.76c-.008.4-.015.709-.019.955a1.594,1.594,0,0,1-.021.308" transform="translate(46.969 44.214)" fill="#e0e0e0"/>
            <path id="Trazado_778856" data-name="Trazado 778856" d="M298.446,227.351l4.345,8.8,9.717,1.412-7.032,6.853,1.66,9.678-8.691-4.57-8.691,4.57,1.659-9.678-7.03-6.853,9.717-1.412Z" transform="translate(60.987 48.756)" fill="#ffb206"/>
            <path id="Trazado_778857" data-name="Trazado 778857" d="M323.648,202.149l4.345,8.8,9.717,1.412-7.03,6.853,1.659,9.678-8.691-4.57-8.691,4.57,1.66-9.678-7.032-6.853,9.717-1.412Z" transform="translate(66.391 43.351)" fill="#ffb206"/>
            <path id="Trazado_778858" data-name="Trazado 778858" d="M357.329,192.257l4.345,8.8,9.717,1.412-7.032,6.853L366.02,219l-8.691-4.57L348.638,219l1.659-9.678-7.03-6.853,9.717-1.412Z" transform="translate(73.614 41.23)" fill="#ffb206"/>
            <path id="Trazado_778859" data-name="Trazado 778859" d="M392.187,202.384l4.345,8.8,9.717,1.412-7.03,6.853,1.659,9.678-8.691-4.57-8.691,4.57,1.66-9.678-7.032-6.853,9.717-1.412Z" transform="translate(81.09 43.402)" fill="#ffb206"/>
            <path id="Trazado_778860" data-name="Trazado 778860" d="M416.212,226.408l4.345,8.8,9.717,1.412-7.032,6.853,1.66,9.678-8.691-4.57-8.691,4.57,1.66-9.678-7.032-6.853,9.717-1.412Z" transform="translate(86.242 48.554)" fill="#ffb206"/>
            <path id="Trazado_778861" data-name="Trazado 778861" d="M424.926,261.267l4.345,8.8,9.717,1.412-7.032,6.853,1.66,9.678-8.691-4.57-8.691,4.57,1.66-9.678-7.032-6.853,9.717-1.412Z" transform="translate(88.111 56.029)" fill="#ffb206"/>
            <path id="Trazado_778862" data-name="Trazado 778862" d="M416.447,295.89l4.345,8.8,9.717,1.412-7.032,6.853,1.66,9.678-8.691-4.57-8.691,4.57,1.659-9.678-7.03-6.853,9.717-1.412Z" transform="translate(86.292 63.454)" fill="#ffb206"/>
            <path id="Trazado_778863" data-name="Trazado 778863" d="M390.933,319.914l4.345,8.8,9.717,1.412-7.03,6.853,1.659,9.678-8.691-4.57-8.691,4.57,1.66-9.678-7.032-6.853,9.717-1.412Z" transform="translate(80.821 68.606)" fill="#ffb206"/>
            <path id="Trazado_778864" data-name="Trazado 778864" d="M356.651,329.818l4.345,8.8,9.717,1.412-7.032,6.853,1.66,9.678L356.651,352l-8.691,4.57,1.659-9.678-7.03-6.853,9.717-1.412Z" transform="translate(73.469 70.73)" fill="#ffb206"/>
            <path id="Trazado_778865" data-name="Trazado 778865" d="M323.912,319.925l4.345,8.8,9.717,1.412L330.943,337l1.66,9.678-8.691-4.57-8.691,4.57L316.881,337l-7.03-6.853,9.717-1.412Z" transform="translate(66.448 68.609)" fill="#ffb206"/>
            <path id="Trazado_778866" data-name="Trazado 778866" d="M298,295.264l4.345,8.8,9.717,1.412-7.03,6.853,1.659,9.678L298,317.442l-8.691,4.57,1.66-9.678-7.032-6.853,9.717-1.412Z" transform="translate(60.892 63.32)" fill="#ffb206"/>
            <path id="Trazado_778867" data-name="Trazado 778867" d="M289.289,261.307l4.345,8.8,9.717,1.412-7.03,6.853,1.659,9.678-8.691-4.57-8.691,4.57,1.66-9.678-7.032-6.853,9.717-1.412Z" transform="translate(59.023 56.038)" fill="#ffb206"/>
            <path id="Trazado_778868" data-name="Trazado 778868" d="M389.517,299.335h-8.5V253.064a19.751,19.751,0,1,0-39.5,0v46.271h-8.5V253.064a28.252,28.252,0,1,1,56.5,0Z" transform="translate(71.415 48.211)" fill="#263238"/>
            <path id="Trazado_778869" data-name="Trazado 778869" d="M394.016,318.081H331.981a7.057,7.057,0,0,1-7.056-7.057V276.283a7.057,7.057,0,0,1,7.056-7.057h62.035a7.058,7.058,0,0,1,7.057,7.057v34.741a7.058,7.058,0,0,1-7.057,7.057" transform="translate(69.681 57.736)" fill="#809299"/>
            <path id="Trazado_778870" data-name="Trazado 778870" d="M363.765,285.224a6.366,6.366,0,1,1-6.366-6.365,6.364,6.364,0,0,1,6.366,6.365" transform="translate(75.28 59.802)" fill="#263238"/>
            <rect id="Rectángulo_374048" data-name="Rectángulo 374048" width="3.472" height="13.089" transform="translate(430.943 347.547)" fill="#263238"/>
            <path id="Trazado_778871" data-name="Trazado 778871" d="M328.324,312.066c-.175,0-.316-8.148-.316-18.195s.141-18.2.316-18.2.316,8.147.316,18.2-.141,18.195-.316,18.195" transform="translate(70.342 59.119)" fill="#fafafa"/>
            <path id="Trazado_778872" data-name="Trazado 778872" d="M352.909,293.7c-.021.032-.3-.1-.747-.424a7.762,7.762,0,0,1-1.641-1.671,8.921,8.921,0,0,1,3.17-13.386,7.807,7.807,0,0,1,2.216-.758,1.953,1.953,0,0,1,.857-.044,19.642,19.642,0,0,0-2.859,1.194,8.823,8.823,0,0,0-3.017,12.738,19.9,19.9,0,0,0,2.02,2.35" transform="translate(74.786 59.487)" fill="#fafafa"/>
          </g>
        </g>
        <g id="Grupo_1064905" data-name="Grupo 1064905">
          <g id="Grupo_1064904" data-name="Grupo 1064904" clip-path="url(#clip-path-3)">
            <path id="Trazado_778873" data-name="Trazado 778873" d="M135.827,251.827a13.34,13.34,0,0,0,.194,8.511,39.73,39.73,0,0,0,3.833,7.754,138.6,138.6,0,0,0,5.164-14.875c.3-1.116.51-2.459-.285-3.3a3.067,3.067,0,0,0-2.451-.675,11.3,11.3,0,0,0-6.947,2.966" transform="translate(28.997 53.449)" fill="#263238"/>
            <path id="Trazado_778874" data-name="Trazado 778874" d="M51.045,363.6,31.176,409.018H58.527L78,363.236Z" transform="translate(6.686 77.897)" fill="#263238"/>
            <path id="Trazado_778875" data-name="Trazado 778875" d="M167.03,408.313c26.805-8.874,8.425-44.33,8.425-44.33L58.3,375a16.95,16.95,0,1,0-.114,33.9Z" transform="translate(8.844 78.057)" fill="#455a64"/>
            <path id="Trazado_778876" data-name="Trazado 778876" d="M188.286,408.9c26.119-8.816,8.9-44.926,8.9-44.926L82.977,374.744c-11.155.145-16.6,5.526-16.6,16.91.021,9.359,3.479,17.249,16.564,16.983Z" transform="translate(14.234 78.056)" fill="#455a64"/>
            <path id="Trazado_778877" data-name="Trazado 778877" d="M162.552,368.913a1.291,1.291,0,0,0-.325-.013l-.951.023-3.656.151-13.438.666-44.318,2.43c-2.163.1-4.305.29-6.407.321s-4.2.121-6.241.244-4.049.277-6.012.488a21.459,21.459,0,0,0-5.712,1.172,13.749,13.749,0,0,0-4.75,3.042,12.669,12.669,0,0,0-2.881,4.623,23.107,23.107,0,0,0-1.173,5,34.754,34.754,0,0,0-.315,4.723,20.094,20.094,0,0,0,1.508,7.953,13.088,13.088,0,0,0,3.551,4.84,9.608,9.608,0,0,0,3.234,1.825c.809.255.822.172.038-.118a10.038,10.038,0,0,1-3.127-1.895,13.05,13.05,0,0,1-3.4-4.795,19.9,19.9,0,0,1-1.392-7.813,34.765,34.765,0,0,1,.347-4.654,22.829,22.829,0,0,1,1.177-4.876,12.172,12.172,0,0,1,2.784-4.417,13.251,13.251,0,0,1,4.582-2.9,21.1,21.1,0,0,1,5.583-1.12c1.949-.2,3.949-.35,5.986-.471s4.112-.2,6.218-.233,4.249-.215,6.416-.317l44.32-2.611c5.639-.363,10.215-.657,13.431-.862l3.649-.266.948-.085a1.219,1.219,0,0,0,.322-.05" transform="translate(14.234 79.111)" fill="#263238"/>
            <path id="Trazado_778878" data-name="Trazado 778878" d="M169.518,380.689a2.793,2.793,0,0,1-.928.462,9.681,9.681,0,0,1-2.775.565,10.834,10.834,0,0,1-11.609-11.905,9.622,9.622,0,0,1,.635-2.759,2.785,2.785,0,0,1,.485-.917,19.587,19.587,0,0,0-.676,3.7A10.739,10.739,0,0,0,165.8,381.272a19.635,19.635,0,0,0,3.72-.583" transform="translate(33.06 78.518)" fill="#263238"/>
            <path id="Trazado_778879" data-name="Trazado 778879" d="M127.959,318.992l-10.837,37.08-40.112,4.3v7.119l58.939.814,8.025-48.284Z" transform="translate(16.515 68.409)" fill="#ffbe9d"/>
            <path id="Trazado_778880" data-name="Trazado 778880" d="M171.705,287.149c7.117.015,26.389,3.648,28.083,16.639,1.528,11.729,3.818,25.041,3.818,25.041l-25.369.681,8.642,2.288,3.7,54.757-65.65-2.276,3.482-28.151,2.859-28.14-14.346-1.172s4.909-24.494,13.469-32.054a34.874,34.874,0,0,1,18.9-7.613,198.182,198.182,0,0,1,22.414,0" transform="translate(25.075 61.51)" fill="#e01650"/>
            <path id="Trazado_778881" data-name="Trazado 778881" d="M131.567,305.739c.152.017-.85,9.915-2.238,22.1s-2.637,22.059-2.788,22.042.849-9.912,2.238-22.105,2.637-22.057,2.788-22.04" transform="translate(27.134 65.566)" fill="#263238"/>
            <path id="Trazado_778882" data-name="Trazado 778882" d="M168.3,287.16a1.551,1.551,0,0,1,.072.46c.027.3.057.749.067,1.329a14.754,14.754,0,0,1-.71,4.848,14.188,14.188,0,0,1-3.722,6.315,10.706,10.706,0,0,1-3.8,2.356,15.173,15.173,0,0,1-4.776.759,26.094,26.094,0,0,1-4.813-.327,9.906,9.906,0,0,1-4.166-1.691,10.931,10.931,0,0,1-3.955-6.157,16,16,0,0,1-.544-4.869c.021-.578.066-1.024.1-1.326a1.541,1.541,0,0,1,.084-.459c.041,0,.009.64.022,1.788a17.352,17.352,0,0,0,.7,4.774,10.739,10.739,0,0,0,3.886,5.877,9.5,9.5,0,0,0,3.97,1.576,26.087,26.087,0,0,0,4.706.307,14.836,14.836,0,0,0,4.609-.718,10.306,10.306,0,0,0,3.635-2.225,14.124,14.124,0,0,0,3.707-6.088,15.867,15.867,0,0,0,.861-4.745c.04-1.145.024-1.784.067-1.785" transform="translate(30.44 61.582)" fill="#263238"/>
            <g id="Grupo_1064903" data-name="Grupo 1064903" transform="translate(172.719 371.307)" opacity="0.2">
              <g id="Grupo_1064902" data-name="Grupo 1064902">
                <g id="Grupo_1064901" data-name="Grupo 1064901" clip-path="url(#clip-path-15)">
                  <path id="Trazado_778883" data-name="Trazado 778883" d="M171.763,305.741c-2.43,11.617-5.6,23.558-8.029,35.177-.517,2.469-1.071,5.024-2.579,7.046a16.578,16.578,0,0,1-3.467,3.19c-4.79,3.595-9.841,6.96-15.467,9.011a139.162,139.162,0,0,0,24.079-4.191,5,5,0,0,0,4.7-5.319c1.749-14.9,1.244-29.923.765-44.914" transform="translate(-142.22 -305.741)"/>
                </g>
              </g>
            </g>
            <path id="Trazado_778884" data-name="Trazado 778884" d="M193.378,325.388a12.426,12.426,0,0,1-1.907.146l-5.2.192c-4.394.137-10.465.289-17.171.423l-2.156.043-.271,0-.011-.267c-.242-6.226-.131-11.762-.013-15.745.062-1.99.137-3.591.205-4.7a10.736,10.736,0,0,1,.158-1.708,10.7,10.7,0,0,1,.047,1.715c-.01,1.193-.021,2.774-.035,4.7-.019,3.977-.063,9.516.189,15.71l-.281-.262,2.156-.044c6.706-.134,12.778-.223,17.175-.261l5.206-.015a12.755,12.755,0,0,1,1.912.069" transform="translate(35.709 65.146)" fill="#263238"/>
            <path id="Trazado_778885" data-name="Trazado 778885" d="M35.68,324.34l22.408,44.054h70.648l-2.86-5.755-20.467-.608L88.728,324.888a6.428,6.428,0,0,0-5.865-3.8H37.672a2.234,2.234,0,0,0-1.992,3.247" transform="translate(7.599 68.859)" fill="#fafafa"/>
            <path id="Trazado_778886" data-name="Trazado 778886" d="M65.724,340.488a2.7,2.7,0,1,1-2.7-2.7,2.7,2.7,0,0,1,2.7,2.7" transform="translate(12.935 72.439)" fill="#263238"/>
            <path id="Trazado_778887" data-name="Trazado 778887" d="M169.8,262.831l-2.53,35.847a11.176,11.176,0,0,1-22.3-1.518c.223-3.413.426-6.207.426-6.207s-8.663-1.349-8.785-10.025c-.057-4.088.488-12.177,1.1-19.783a17.08,17.08,0,0,1,17.022-15.724h.008a16.058,16.058,0,0,1,15.062,17.41" transform="translate(29.295 52.631)" fill="#ffbe9d"/>
            <path id="Trazado_778888" data-name="Trazado 778888" d="M143.8,283.825a20.18,20.18,0,0,0,11.311-3.215s-2.673,6.245-11.332,5.463Z" transform="translate(30.834 60.177)" fill="#eb996e"/>
            <path id="Trazado_778889" data-name="Trazado 778889" d="M139.741,263.208a1.238,1.238,0,0,0,1.2,1.25,1.184,1.184,0,0,0,1.276-1.117,1.239,1.239,0,0,0-1.193-1.251,1.187,1.187,0,0,0-1.279,1.119" transform="translate(29.968 56.205)" fill="#263238"/>
            <path id="Trazado_778890" data-name="Trazado 778890" d="M139.11,261.835c.153.162,1.092-.533,2.425-.53,1.332-.016,2.311.67,2.456.506.07-.072-.085-.363-.511-.674a3.407,3.407,0,0,0-1.966-.6,3.254,3.254,0,0,0-1.93.623c-.41.315-.549.607-.474.679" transform="translate(29.828 55.872)" fill="#263238"/>
            <path id="Trazado_778891" data-name="Trazado 778891" d="M150.082,263.5a1.239,1.239,0,0,0,1.2,1.25,1.186,1.186,0,0,0,1.278-1.117,1.241,1.241,0,0,0-1.194-1.251,1.186,1.186,0,0,0-1.279,1.118" transform="translate(32.185 56.269)" fill="#263238"/>
            <path id="Trazado_778892" data-name="Trazado 778892" d="M149.9,262.04c.154.161,1.094-.533,2.426-.53,1.331-.016,2.31.67,2.454.506.072-.072-.084-.363-.511-.674a3.408,3.408,0,0,0-1.965-.606,3.266,3.266,0,0,0-1.931.624c-.409.315-.549.606-.474.679" transform="translate(32.143 55.916)" fill="#263238"/>
            <path id="Trazado_778893" data-name="Trazado 778893" d="M146.515,271.914a8.883,8.883,0,0,0-2.165-.391c-.341-.035-.663-.1-.72-.335a1.733,1.733,0,0,1,.227-1.009q.481-1.235,1.007-2.593a44.517,44.517,0,0,0,2.261-6.782,44.635,44.635,0,0,0-2.8,6.584c-.336.911-.658,1.778-.964,2.609a1.972,1.972,0,0,0-.177,1.336.855.855,0,0,0,.56.5,2.352,2.352,0,0,0,.578.081,8.749,8.749,0,0,0,2.2,0" transform="translate(30.692 55.93)" fill="#263238"/>
            <path id="Trazado_778894" data-name="Trazado 778894" d="M149.9,270.711c-.217-.012-.22,1.434-1.459,2.462s-2.78.868-2.791,1.071c-.019.09.344.281.995.3a3.605,3.605,0,0,0,2.331-.812,3.139,3.139,0,0,0,1.129-2.065c.056-.6-.106-.963-.205-.955" transform="translate(31.234 58.055)" fill="#263238"/>
            <path id="Trazado_778895" data-name="Trazado 778895" d="M149.617,257.683c.131.362,1.462.191,3.026.379,1.569.158,2.831.616,3.037.29.094-.155-.126-.5-.636-.848a5.3,5.3,0,0,0-4.621-.51c-.574.232-.863.516-.806.689" transform="translate(32.084 55.046)" fill="#263238"/>
            <path id="Trazado_778896" data-name="Trazado 778896" d="M139.517,258.671c.234.3,1.153-.012,2.258-.027,1.1-.053,2.039.2,2.255-.113.094-.154-.053-.457-.461-.743a3.269,3.269,0,0,0-3.636.112c-.391.311-.519.623-.415.771" transform="translate(29.912 55.176)" fill="#263238"/>
            <path id="Trazado_778897" data-name="Trazado 778897" d="M161.585,265.614c.148-.064,5.962-1.763,5.772,4.168s-6.106,4.519-6.111,4.348.339-8.516.339-8.516" transform="translate(34.58 56.903)" fill="#ffbe9d"/>
            <path id="Trazado_778898" data-name="Trazado 778898" d="M162.8,271.6c.027-.018.1.075.273.162a1.04,1.04,0,0,0,.772.04,2.558,2.558,0,0,0,1.256-2.256,3.407,3.407,0,0,0-.242-1.488,1.193,1.193,0,0,0-.752-.819.526.526,0,0,0-.619.264c-.085.163-.051.283-.083.293s-.124-.1-.068-.347a.657.657,0,0,1,.245-.364.773.773,0,0,1,.576-.132,1.452,1.452,0,0,1,1.051.955,3.509,3.509,0,0,1,.3,1.664,2.687,2.687,0,0,1-1.589,2.514,1.109,1.109,0,0,1-.941-.187c-.179-.153-.205-.287-.185-.3" transform="translate(34.911 57.246)" fill="#eb996e"/>
            <rect id="Rectángulo_374051" data-name="Rectángulo 374051" width="86.363" height="4.213" transform="translate(57.499 437.324)" fill="#263238"/>
            <path id="Trazado_778899" data-name="Trazado 778899" d="M96.557,361.834l26.267,47.528h23.518l-23.186-45.421Z" transform="translate(20.707 77.596)" fill="#263238"/>
            <path id="Trazado_778900" data-name="Trazado 778900" d="M133.729,363.6c0,.175-19.355.413-43.227.533s-43.234.075-43.234-.1,19.351-.413,43.231-.533,43.23-.075,43.231.1" transform="translate(10.137 77.939)" fill="#455a64"/>
            <path id="Trazado_778901" data-name="Trazado 778901" d="M136.384,257.986a5.891,5.891,0,0,0,4.882-.35,1.4,1.4,0,0,0,.236,2.071,3.508,3.508,0,0,0,2.292.506,17.561,17.561,0,0,0,11.515-4.925,3.849,3.849,0,0,0,2.651,3.3,7.783,7.783,0,0,0,4.438.017,16.994,16.994,0,0,0-.273,6.7c.5,2.192,2.13,4.289,4.355,4.622.447,1.092.2,2.328.276,3.5s.77,2.53,1.949,2.563c1.041.029,1.818-1.037,1.955-2.069s-.469-3.132.271-4.8c.8-1.814.482-1.478,1.28-3.294s1.248-4.313,1.87-6.195a8.776,8.776,0,0,0,.152-5.831,4.8,4.8,0,0,0-4.526-3.218,4.772,4.772,0,0,0-7.015-5.749s-6.76-4.592-14.227-2.057c-7.426,2.521-8.585,9.317-10.207,9.529s-6.56-2.469-5.714-.775,2.258,3.314,2.963,3.385-5.644-2.61-3.456-.211a13.528,13.528,0,0,0,4.334,3.279" transform="translate(28.219 51.901)" fill="#263238"/>
            <path id="Trazado_778902" data-name="Trazado 778902" d="M197.849,303.683a14.114,14.114,0,0,0-2.343-2.253,13.869,13.869,0,0,0-8.331-2.456c-3.751-.013-8.058,1.615-12.278,4.207-4.27,2.527-8.561,6.084-13.927,8.421a21.352,21.352,0,0,1-16.073.585,22.55,22.55,0,0,1-6.212-3.538c-1.767-1.367-3.317-2.735-4.834-3.841a14.889,14.889,0,0,0-8.071-3.294,10.75,10.75,0,0,0-3.21.427c0-.011.061-.045.192-.1a4.76,4.76,0,0,1,.6-.223,7.877,7.877,0,0,1,2.428-.349,14.776,14.776,0,0,1,8.326,3.177c3.111,2.153,6.275,5.557,10.982,7.194a20.986,20.986,0,0,0,15.626-.619c5.253-2.282,9.547-5.809,13.878-8.34,4.28-2.59,8.708-4.226,12.576-4.155a13.824,13.824,0,0,1,8.48,2.707,9.426,9.426,0,0,1,1.732,1.733,4.264,4.264,0,0,1,.463.717" transform="translate(26.285 64.019)" fill="#fafafa"/>
            <path id="Trazado_778903" data-name="Trazado 778903" d="M174.995,329.843c-.035.045-.588-.384-1.674-1.01a17.331,17.331,0,0,0-4.916-1.892,16.47,16.47,0,0,0-7.728.137c-2.864.71-5.789,2.213-9.044,3.416a22.086,22.086,0,0,1-17.358-.772,19.509,19.509,0,0,1-4.5-2.927,11.467,11.467,0,0,1-1.06-1c-.232-.24-.345-.373-.33-.389.041-.044.549.44,1.545,1.2a21.71,21.71,0,0,0,4.538,2.712,22.98,22.98,0,0,0,7.554,1.931,21.588,21.588,0,0,0,9.4-1.347c3.2-1.179,6.163-2.684,9.119-3.387a16.5,16.5,0,0,1,7.97-.008,16.018,16.018,0,0,1,4.942,2.118,11.292,11.292,0,0,1,1.178.866c.255.216.381.338.368.355" transform="translate(27.531 69.782)" fill="#fafafa"/>
            <path id="Trazado_778904" data-name="Trazado 778904" d="M184.946,346.323a19.743,19.743,0,0,0-2.348-.744,13.113,13.113,0,0,0-6.587.591,26.242,26.242,0,0,0-4.258,1.817c-1.478.779-3.02,1.7-4.691,2.605a27.411,27.411,0,0,1-5.5,2.365,13.379,13.379,0,0,1-6.449.264c-4.4-.955-7.883-3.5-11.093-5.415-3.2-1.97-6.337-3.4-9.159-3.6a10.521,10.521,0,0,0-6.4,1.375,11.712,11.712,0,0,0-1.891,1.567,2.465,2.465,0,0,1,.369-.532,6.817,6.817,0,0,1,1.387-1.24,10.465,10.465,0,0,1,6.57-1.615c2.943.149,6.191,1.588,9.427,3.545,3.249,1.909,6.7,4.387,10.922,5.3a12.836,12.836,0,0,0,6.155-.242,27.407,27.407,0,0,0,5.393-2.281c1.665-.879,3.216-1.789,4.725-2.556a25.773,25.773,0,0,1,4.367-1.779,12.839,12.839,0,0,1,6.772-.4,7.932,7.932,0,0,1,1.743.647,2.417,2.417,0,0,1,.551.338" transform="translate(27.142 73.715)" fill="#fafafa"/>
            <path id="Trazado_778905" data-name="Trazado 778905" d="M188.261,365.891a2.086,2.086,0,0,1-.616.253,7.516,7.516,0,0,1-1.884.321,17.15,17.15,0,0,1-6.834-1.427,39.252,39.252,0,0,0-4.54-1.478,17.987,17.987,0,0,0-5.4-.307c-3.84.324-7.882,1.774-12.2,3.016a36.815,36.815,0,0,1-6.462,1.323,28.159,28.159,0,0,1-6.154-.085,42.016,42.016,0,0,1-10.018-2.673c-2.747-1.083-4.889-2.136-6.356-2.883-.734-.372-1.3-.676-1.674-.889a2.61,2.61,0,0,1-.562-.351,2.673,2.673,0,0,1,.619.237l1.725.782c1.5.676,3.66,1.664,6.407,2.685a43.37,43.37,0,0,0,9.927,2.513,28.029,28.029,0,0,0,6.022.047,37.008,37.008,0,0,0,6.353-1.314c4.287-1.229,8.376-2.684,12.324-2.988a18.227,18.227,0,0,1,5.571.378,37.542,37.542,0,0,1,4.576,1.569,17.878,17.878,0,0,0,6.67,1.6,13.259,13.259,0,0,0,2.507-.327" transform="translate(26.927 77.354)" fill="#fafafa"/>
            <path id="Trazado_778906" data-name="Trazado 778906" d="M191.827,316.776c.023.022-.206.334-.735.783a9.77,9.77,0,0,1-2.505,1.531,10.719,10.719,0,0,1-4.289.831,11.992,11.992,0,0,1-5.164-1.365c-1.7-.817-3.23-1.7-4.724-2.231a8.776,8.776,0,0,0-4.1-.457,5.24,5.24,0,0,0-2.552,1.061c-.509.428-.721.749-.77.715a2.1,2.1,0,0,1,.6-.9,5.064,5.064,0,0,1,2.641-1.32,8.823,8.823,0,0,1,4.366.347,44.346,44.346,0,0,1,4.8,2.209,11.893,11.893,0,0,0,4.908,1.355,10.907,10.907,0,0,0,4.111-.666,17.923,17.923,0,0,0,3.4-1.9" transform="translate(35.81 67.616)" fill="#fafafa"/>
            <path id="Trazado_778907" data-name="Trazado 778907" d="M131.655,316.532c.026.026-.081.21-.395.424a2.657,2.657,0,0,1-1.53.4,4.714,4.714,0,0,1-2.243-.647c-.766-.42-1.5-1.012-2.29-1.521a6.129,6.129,0,0,0-4.538-.917c-1.213.225-1.885.67-1.939.576a3.261,3.261,0,0,1,1.84-1.012,6.087,6.087,0,0,1,4.978.82c.84.542,1.545,1.133,2.242,1.55a4.691,4.691,0,0,0,1.976.7,3.739,3.739,0,0,0,1.9-.379" transform="translate(25.459 67.257)" fill="#fafafa"/>
            <path id="Trazado_778908" data-name="Trazado 778908" d="M103.3,354.042l17.67-2.124,12.451,8.165,47.614-11.412,1.394-26.571,21.371-.527-.5,31.181a18.1,18.1,0,0,1-18.593,17.709l-69.736-1.931-2.961-5.935-14.961-.445Z" transform="translate(20.814 68.962)" fill="#ffbe9d"/>
            <path id="Trazado_778909" data-name="Trazado 778909" d="M180.543,343.886a5.927,5.927,0,0,1-.9.272l-2.59.674-9.555,2.382-31.571,7.65-2.937.7-.117.028-.1-.066-12.438-8.182.17.04-17.68,2.043.117-.067-4.668,5.927-1.259,1.561a3.86,3.86,0,0,1-.459.517,3.741,3.741,0,0,1,.383-.577c.3-.4.691-.939,1.188-1.615l4.542-6.024.042-.057.074-.01,17.661-2.2.092-.012.079.052,12.462,8.145-.216-.038,2.938-.7,31.609-7.492,9.6-2.209,2.616-.574a5.879,5.879,0,0,1,.921-.163" transform="translate(20.707 73.746)" fill="#eb996e"/>
            <path id="Trazado_778910" data-name="Trazado 778910" d="M112.34,352.526a42.776,42.776,0,0,1-6.864.277l-1.256,0,.177-.064a32.472,32.472,0,0,1-4.45,3.425,32.252,32.252,0,0,1,4.1-3.84l.075-.064h.1l1.256,0a42.773,42.773,0,0,1,6.864.277" transform="translate(21.433 75.541)" fill="#eb996e"/>
            <path id="Trazado_778911" data-name="Trazado 778911" d="M174.387,349.209a10.334,10.334,0,0,0-8.234-5.182,2.947,2.947,0,0,1,1.536-.121,8.164,8.164,0,0,1,6.141,3.866,2.939,2.939,0,0,1,.556,1.438" transform="translate(35.632 73.746)" fill="#eb996e"/>
          </g>
        </g>
      </g>
    </g>
    <g transform="matrix(1, 0, 0, 1, 180, 574.86)" filter="url(#Trazado_778918)">
      <path id="Trazado_778918-2" data-name="Trazado 778918" d="M9.048,0h171.9c5,0,9.048,4.477,9.048,10V45c0,5.523-4.051,10-9.048,10H9.048C4.051,55,0,50.523,0,45V10C0,4.477,4.051,0,9.048,0Z" transform="translate(525 532.14)" fill="#e01650"/>
    </g>
    <path id="Trazado_779458" data-name="Trazado 779458" d="M1.328-5.344H2.641l.1,8.156H1.227ZM2.8-7.781a.863.863,0,0,1-.215.594.807.807,0,0,1-.637.242A.819.819,0,0,1,1.3-7.187a.854.854,0,0,1-.219-.594A.826.826,0,0,1,1.3-8.367.834.834,0,0,1,1.945-8.6a.821.821,0,0,1,.637.234A.834.834,0,0,1,2.8-7.781ZM6.828,0h-1.5V-11.375h1.5ZM10.7-8.453l.039.938A3.122,3.122,0,0,1,13.25-8.609,2.417,2.417,0,0,1,15.664-7.25a3.2,3.2,0,0,1,1.1-.984,3.242,3.242,0,0,1,1.6-.375q2.781,0,2.828,2.945V0H19.742V-5.578a1.941,1.941,0,0,0-.414-1.355,1.823,1.823,0,0,0-1.391-.449A1.916,1.916,0,0,0,16.6-6.9a1.949,1.949,0,0,0-.617,1.293V0H14.531V-5.539a1.613,1.613,0,0,0-1.8-1.844,1.934,1.934,0,0,0-1.945,1.211V0H9.336V-8.453Zm19.8,4.32a5.062,5.062,0,0,1-.883,3.109A2.829,2.829,0,0,1,27.234.156,3.1,3.1,0,0,1,24.813-.82V3.25H23.367v-11.7h1.32l.07.938a2.977,2.977,0,0,1,2.453-1.094,2.882,2.882,0,0,1,2.41,1.148,5.117,5.117,0,0,1,.887,3.2ZM29.063-4.3a3.735,3.735,0,0,0-.609-2.258,1.963,1.963,0,0,0-1.672-.828,2.125,2.125,0,0,0-1.969,1.164V-2.18A2.129,2.129,0,0,0,26.8-1.023a1.954,1.954,0,0,0,1.652-.824A4.077,4.077,0,0,0,29.063-4.3Zm2.9-.008a4.993,4.993,0,0,1,.488-2.234A3.643,3.643,0,0,1,33.809-8.07,3.7,3.7,0,0,1,35.8-8.609a3.565,3.565,0,0,1,2.793,1.2,4.6,4.6,0,0,1,1.066,3.18v.1a5.036,5.036,0,0,1-.473,2.215A3.589,3.589,0,0,1,37.832-.391a3.743,3.743,0,0,1-2.02.547,3.556,3.556,0,0,1-2.785-1.2A4.575,4.575,0,0,1,31.961-4.2Zm1.453.172a3.616,3.616,0,0,0,.652,2.258,2.088,2.088,0,0,0,1.746.852,2.075,2.075,0,0,0,1.75-.863A3.955,3.955,0,0,0,38.211-4.3a3.61,3.61,0,0,0-.66-2.254A2.1,2.1,0,0,0,35.8-7.422a2.075,2.075,0,0,0-1.727.852A3.925,3.925,0,0,0,33.414-4.133ZM45.555-7.156a4.331,4.331,0,0,0-.711-.055A1.9,1.9,0,0,0,42.914-6V0H41.469V-8.453h1.406l.023.977a2.251,2.251,0,0,1,2.016-1.133,1.477,1.477,0,0,1,.641.109Zm3.68-3.344v2.047h1.578v1.117H49.234v5.249a1.173,1.173,0,0,0,.211.763.888.888,0,0,0,.719.254,3.5,3.5,0,0,0,.688-.094V0a4.215,4.215,0,0,1-1.109.155A1.8,1.8,0,0,1,48.281-.43a2.517,2.517,0,0,1-.492-1.664V-7.336H46.25V-8.453h1.539V-10.5ZM57.719,0a3.036,3.036,0,0,1-.2-.891A3.225,3.225,0,0,1,55.109.156a2.984,2.984,0,0,1-2.051-.707,2.287,2.287,0,0,1-.8-1.793,2.39,2.39,0,0,1,1-2.051,4.733,4.733,0,0,1,2.824-.73h1.406v-.664A1.623,1.623,0,0,0,57.039-7,1.821,1.821,0,0,0,55.7-7.445a2.107,2.107,0,0,0-1.3.391,1.151,1.151,0,0,0-.523.945H52.43a2,2,0,0,1,.449-1.223A3.066,3.066,0,0,1,54.1-8.266a4.1,4.1,0,0,1,1.691-.344,3.342,3.342,0,0,1,2.289.73,2.635,2.635,0,0,1,.859,2.012v3.891a4.757,4.757,0,0,0,.3,1.852V0Zm-2.4-1.1a2.54,2.54,0,0,0,1.289-.352,2.127,2.127,0,0,0,.883-.914V-4.1H56.359Q53.7-4.1,53.7-2.547a1.316,1.316,0,0,0,.453,1.063A1.742,1.742,0,0,0,55.32-1.1Zm7.25-7.352.047,1.063a3.08,3.08,0,0,1,2.531-1.219q2.68,0,2.7,3.023V0H66.406V-5.594a1.946,1.946,0,0,0-.418-1.352,1.675,1.675,0,0,0-1.277-.437,2.086,2.086,0,0,0-1.234.375,2.546,2.546,0,0,0-.828.984V0H61.2V-8.453ZM71.992-10.5v2.047H73.57v1.117H71.992v5.249a1.173,1.173,0,0,0,.211.763.888.888,0,0,0,.719.254,3.5,3.5,0,0,0,.688-.094V0A4.215,4.215,0,0,1,72.5.156,1.8,1.8,0,0,1,71.039-.43a2.517,2.517,0,0,1-.492-1.664V-7.336H69.008V-8.453h1.539V-10.5ZM78.766.156a3.693,3.693,0,0,1-2.8-1.129,4.19,4.19,0,0,1-1.078-3.02v-.266a5.073,5.073,0,0,1,.48-2.246,3.748,3.748,0,0,1,1.344-1.547,3.378,3.378,0,0,1,1.871-.559,3.166,3.166,0,0,1,2.563,1.086,4.7,4.7,0,0,1,.914,3.109v.6H76.336a3,3,0,0,0,.73,2.02,2.3,2.3,0,0,0,1.777.77,2.517,2.517,0,0,0,1.3-.312,3.259,3.259,0,0,0,.93-.828l.883.688A3.55,3.55,0,0,1,78.766.156Zm-.18-7.578a1.928,1.928,0,0,0-1.469.637A3.1,3.1,0,0,0,76.383-5h4.234v-.109a2.753,2.753,0,0,0-.594-1.707A1.815,1.815,0,0,0,78.586-7.422Zm6.766,4.2h-1.3l-.1-8.151h1.516ZM83.891-.734a.861.861,0,0,1,.215-.6.81.81,0,0,1,.637-.241.822.822,0,0,1,.641.241.852.852,0,0,1,.219.6.824.824,0,0,1-.219.588.837.837,0,0,1-.641.233.824.824,0,0,1-.637-.233A.832.832,0,0,1,83.891-.734Z" transform="translate(730 1139)" fill="#fff"/>
    <g id="Grupo_1064937" data-name="Grupo 1064937" transform="translate(834 1066.743)">
      <g id="Grupo_1064934" data-name="Grupo 1064934" transform="translate(4.387 55.956)">
        <g id="Grupo_1064933" data-name="Grupo 1064933">
          <path id="Trazado_778916" data-name="Trazado 778916" d="M85.673,94.26l-6.381-7.012a3.248,3.248,0,0,0-4.594.01,3.176,3.176,0,0,0-.821,1.4,3.251,3.251,0,0,0-5.093,1.7,3.252,3.252,0,0,0-4.268.3,3.212,3.212,0,0,0-.815,1.369L60.7,89.015A3.248,3.248,0,0,0,56.1,93.609l11.553,11.553L60.8,106.237a3.8,3.8,0,0,0-3.248,3.745,2.549,2.549,0,0,0,2.545,2.545h16a9.271,9.271,0,0,0,6.6-2.734l2.669-2.669a9.322,9.322,0,0,0,.3-12.865Zm-1.5,11.665L81.5,108.594a7.586,7.586,0,0,1-5.4,2.237h-16a.849.849,0,0,1-.849-.849,2.1,2.1,0,0,1,1.8-2.067l8.51-1.337a.848.848,0,0,0,.468-1.437L57.3,92.409A1.552,1.552,0,0,1,59.5,90.215l8.49,8.49a.848.848,0,1,0,1.2-1.2l-3.467-3.467a1.552,1.552,0,0,1,2.194-2.194l3.469,3.469a.848.848,0,1,0,1.2-1.2l-1.77-1.77A1.552,1.552,0,0,1,73,90.145l1.778,1.778s0,0,0,0l0,0,0,0,0,0h0a0,0,0,0,1,0,0,.849.849,0,0,0,1.183-1.217l-.073-.073a1.552,1.552,0,0,1,2.165-2.223L84.418,95.4a7.627,7.627,0,0,1-.25,10.523Z" transform="translate(-55.153 -86.302)" fill="#fff"/>
        </g>
      </g>
      <g id="Grupo_1064936" data-name="Grupo 1064936" transform="translate(0 53.333)">
        <g id="Grupo_1064935" data-name="Grupo 1064935" transform="translate(0 0)">
          <path id="Trazado_778917" data-name="Trazado 778917" d="M14.587,57.835A7.629,7.629,0,1,0,4.5,67.922a.849.849,0,0,0,.7-1.548,5.932,5.932,0,1,1,7.84-7.84.848.848,0,1,0,1.546-.7Z" transform="translate(0 -53.333)" fill="#fff"/>
        </g>
      </g>
    </g>
  </g>
</svg>
