<svg xmlns="http://www.w3.org/2000/svg" xmlns:xlink="http://www.w3.org/1999/xlink" width="85" height="97" viewBox="0 0 85 97">
  <defs>
    <linearGradient id="linear-gradient" x1="1" y1="0.5" x2="0" y2="0.5" gradientUnits="objectBoundingBox">
      <stop offset="0" stop-color="#ffb206"/>
      <stop offset="1" stop-color="#ffb206" stop-opacity="0"/>
    </linearGradient>
    <linearGradient id="linear-gradient-2" y1="0.5" x2="1" y2="0.5" gradientUnits="objectBoundingBox">
      <stop offset="0" stop-color="#e01650"/>
      <stop offset="1" stop-color="#e01650" stop-opacity="0"/>
    </linearGradient>
  </defs>
  <g id="Grupo_1064867" data-name="Grupo 1064867" transform="translate(-180 -447)">
    <rect id="Rect치ngulo_373439" data-name="Rect치ngulo 373439" width="46" height="14" transform="translate(219 447)" fill="url(#linear-gradient)"/>
    <rect id="Rect치ngulo_373440" data-name="Rect치ngulo 373440" width="52" height="14" transform="translate(180 530)" fill="url(#linear-gradient-2)"/>
    <g id="Grupo_1064995" data-name="Grupo 1064995" transform="translate(181.99 450.499)">
      <g id="Grupo_1064993" data-name="Grupo 1064993" transform="translate(1.172 1.165)">
        <g id="Grupo_1064988" data-name="Grupo 1064988" transform="translate(0 19.37)">
          <path id="Trazado_779087" data-name="Trazado 779087" d="M110.706,138.381V178.32L77.984,180.9,45.262,178.32V138.381a6.134,6.134,0,0,1,6.135-6.135h53.174A6.134,6.134,0,0,1,110.706,138.381Z" transform="translate(-39.398 -132.246)" fill="#f9f6f9"/>
          <path id="Trazado_779088" data-name="Trazado 779088" d="M110.705,412.011v2.633l-32.722,2.582-32.722-2.582v-2.633Z" transform="translate(-39.397 -368.571)" fill="#dddaec"/>
          <path id="Trazado_779089" data-name="Trazado 779089" d="M47.294,179.232l-2.03-.909V138.385A6.133,6.133,0,0,1,51.4,132.25h3.1a6.134,6.134,0,0,0-6.135,6.135v39.939Z" transform="translate(-39.399 -132.249)" fill="#dddaec"/>
          <path id="Trazado_779090" data-name="Trazado 779090" d="M78.809,428.975H13.366a5.864,5.864,0,1,0,0,11.727H78.809a5.864,5.864,0,1,0,0-11.727Z" transform="translate(-7.501 -382.901)" fill="#f9f6f9"/>
          <path id="Trazado_779091" data-name="Trazado 779091" d="M83.729,438.014A5.857,5.857,0,0,1,78.8,440.7H13.36a5.864,5.864,0,1,1,0-11.728h1.888a5.864,5.864,0,0,0,4.927,9.043H83.729Z" transform="translate(-7.495 -382.897)" fill="#dddaec"/>
          <path id="Trazado_779092" data-name="Trazado 779092" d="M83.262,201.637V173.36a3.115,3.115,0,0,1,3.115-3.115H133.79a3.115,3.115,0,0,1,3.115,3.115v28.277a2.881,2.881,0,0,1-2.881,2.881H86.143A2.881,2.881,0,0,1,83.262,201.637Z" transform="translate(-71.497 -164.345)" fill="#9dc6fb"/>
          <path id="Trazado_779093" data-name="Trazado 779093" d="M90.673,204.52H86.142a2.88,2.88,0,0,1-2.88-2.88V173.363a3.115,3.115,0,0,1,3.115-3.115h4.531a3.115,3.115,0,0,0-3.115,3.115V201.64A2.881,2.881,0,0,0,90.673,204.52Z" transform="translate(-71.497 -164.347)" fill="#80b4fb"/>
          <path id="Trazado_779094" data-name="Trazado 779094" d="M197.306,434.137H183.521a5.164,5.164,0,0,1-5.163-5.164h24.111A5.163,5.163,0,0,1,197.306,434.137Z" transform="translate(-151.827 -382.9)" fill="#12263f"/>
        </g>
        <g id="Grupo_1064990" data-name="Grupo 1064990" transform="translate(21.118)">
          <path id="Trazado_779095" data-name="Trazado 779095" d="M176.142,27.235l-1.856-.769a13.3,13.3,0,0,0,0-3l1.854-.768A3.712,3.712,0,1,0,173.3,15.84l-1.854.768a13.3,13.3,0,0,0-2.122-2.12l.768-1.855a3.712,3.712,0,1,0-6.859-2.841l-.768,1.856a13.288,13.288,0,0,0-3,0L158.7,9.792a3.712,3.712,0,1,0-6.859,2.841l.768,1.854a13.3,13.3,0,0,0-2.12,2.122l-1.856-.768a3.712,3.712,0,1,0-2.84,6.859l1.855.768a13.333,13.333,0,0,0,0,3l-1.854.768a3.712,3.712,0,1,0,2.841,6.858l1.854-.768.027.032,0,0a13.234,13.234,0,0,0,2.092,2.083L151.84,37.3a3.71,3.71,0,0,0,4.968,4.8h0a3.692,3.692,0,0,0,1.89-1.957l.769-1.855a13.333,13.333,0,0,0,3,0l.768,1.854a3.712,3.712,0,1,0,6.859-2.841l-.768-1.854a13.325,13.325,0,0,0,2.12-2.122l1.855.768a3.712,3.712,0,1,0,2.841-6.858ZM160.967,31.2a6.234,6.234,0,1,1,6.234-6.234A6.235,6.235,0,0,1,160.967,31.2Z" transform="translate(-143.499 -7.499)" fill="#500c75"/>
          <g id="Grupo_1064989" data-name="Grupo 1064989" transform="translate(0 0)">
            <path id="Trazado_779096" data-name="Trazado 779096" d="M265.942,11.647a13.3,13.3,0,0,1,3,0l.768-1.856A3.7,3.7,0,0,1,271.6,7.835c-.039-.018-.078-.036-.117-.052a3.71,3.71,0,0,0-4.85,2.009l-.729,1.762Z" transform="translate(-246.898 -7.5)" fill="#500c75"/>
            <path id="Trazado_779097" data-name="Trazado 779097" d="M146.862,75.922a3.711,3.711,0,0,1,2.009-4.85l1.854-.768a13.334,13.334,0,0,1,0-3l-1.855-.768a3.711,3.711,0,0,1-.114-6.808l-.122-.05a3.712,3.712,0,1,0-2.84,6.859l1.855.768a13.334,13.334,0,0,0,0,3l-1.854.768a3.712,3.712,0,1,0,2.841,6.859l.122-.05A3.7,3.7,0,0,1,146.862,75.922Z" transform="translate(-143.501 -51.336)" fill="#500c75"/>
            <path id="Trazado_779098" data-name="Trazado 779098" d="M269.71,207.633l-.768-1.854a13.333,13.333,0,0,1-3,0l-.039.094.729,1.761a3.712,3.712,0,0,0,4.85,2.009l.118-.052A3.7,3.7,0,0,1,269.71,207.633Z" transform="translate(-246.898 -174.991)" fill="#500c75"/>
            <path id="Trazado_779099" data-name="Trazado 779099" d="M194.823,182.6a3.711,3.711,0,0,1-4.968-4.8l.769-1.856a13.235,13.235,0,0,1-2.092-2.083l0,0a.3.3,0,0,0-.027-.032h3.077a13.271,13.271,0,0,0,2.122,2.12l-.769,1.856A3.713,3.713,0,0,0,194.823,182.6Z" transform="translate(-181.515 -148.001)" fill="#500c75"/>
            <path id="Trazado_779100" data-name="Trazado 779100" d="M194.823,7.84a3.711,3.711,0,0,0-4.968,4.8l.769,1.856a13.234,13.234,0,0,0-2.092,2.083l0,0a.3.3,0,0,1-.027.032h3.077a13.271,13.271,0,0,1,2.122-2.12l-.769-1.856a3.713,3.713,0,0,1,1.891-4.8Z" transform="translate(-181.515 -7.504)" fill="#500c75"/>
          </g>
        </g>
        <g id="Grupo_1064991" data-name="Grupo 1064991" transform="translate(44.017 38.362)">
          <path id="Trazado_779101" data-name="Trazado 779101" d="M298.06,270.209a2.651,2.651,0,0,1-2.095-1.027l-4.432-5.717a2.651,2.651,0,0,1,4.19-3.248l1.99,2.567,3.883-6.875a2.651,2.651,0,0,1,4.616,2.607l-5.843,10.347a2.651,2.651,0,0,1-2.116,1.34C298.188,270.207,298.124,270.209,298.06,270.209Z" transform="translate(-290.977 -254.56)" fill="#ffb206"/>
        </g>
        <g id="Grupo_1064992" data-name="Grupo 1064992" transform="translate(20.125 39.93)">
          <path id="Trazado_779102" data-name="Trazado 779102" d="M148.042,271.691l2.319-2.319a2.76,2.76,0,1,0-3.9-3.9l-2.319,2.319-2.319-2.319a2.76,2.76,0,1,0-3.9,3.9l2.319,2.319-2.319,2.319a2.76,2.76,0,0,0,3.9,3.9l2.319-2.319,2.319,2.319a2.76,2.76,0,1,0,3.9-3.9Z" transform="translate(-137.107 -264.659)" fill="#e01650"/>
        </g>
      </g>
      <g id="Grupo_1064994" data-name="Grupo 1064994" transform="translate(0.01 0.001)">
        <path id="Trazado_779103" data-name="Trazado 779103" d="M77.448,67.5a6.985,6.985,0,0,0-3.8-1.96V26.67a7.307,7.307,0,0,0-7.3-7.3H54.307a14.53,14.53,0,0,0,0-1.487l1.07-.443a4.883,4.883,0,0,0,2.64-6.372c-.01-.023-.02-.047-.031-.069a1.165,1.165,0,0,0-2.109.987,2.551,2.551,0,0,1-1.39,3.3l-1.854.767a1.165,1.165,0,0,0-.712,1.206,12.236,12.236,0,0,1,0,2.739,1.164,1.164,0,0,0,.711,1.207l1.856.769a2.547,2.547,0,1,1-1.949,4.706l-1.856-.769a1.164,1.164,0,0,0-1.357.35A12.243,12.243,0,0,1,47.39,28.2a1.165,1.165,0,0,0-.349,1.356l.768,1.854A2.547,2.547,0,0,1,43.1,33.363l-.769-1.854a1.163,1.163,0,0,0-1.206-.711,12.216,12.216,0,0,1-2.738,0,1.165,1.165,0,0,0-1.207.711l-.769,1.856a2.547,2.547,0,0,1-4.707-1.95l.769-1.856a1.165,1.165,0,0,0-.351-1.357,12.151,12.151,0,0,1-1.935-1.934,1.165,1.165,0,0,0-1.356-.351l-1.857.768a2.547,2.547,0,0,1-1.949-4.707l1.854-.767A1.165,1.165,0,0,0,27.594,20a12.238,12.238,0,0,1,0-2.739,1.164,1.164,0,0,0-.711-1.207l-1.856-.769a2.547,2.547,0,1,1,1.949-4.706l1.856.769A1.165,1.165,0,0,0,30.189,11a12.188,12.188,0,0,1,1.936-1.937,1.165,1.165,0,0,0,.35-1.357l-.768-1.854A2.547,2.547,0,0,1,36.414,3.9l.769,1.854a1.163,1.163,0,0,0,1.206.711,12.225,12.225,0,0,1,2.738,0,1.167,1.167,0,0,0,1.207-.711L43.1,3.9a2.547,2.547,0,0,1,4.707,1.95L47.04,7.71a1.165,1.165,0,0,0,.351,1.357A12.158,12.158,0,0,1,49.326,11a1.164,1.164,0,0,0,1.356.351l1.859-.769a2.546,2.546,0,0,1,.647-.173,1.165,1.165,0,1,0-.3-2.309,4.867,4.867,0,0,0-1.237.332l-1.072.443a14.485,14.485,0,0,0-1.059-1.058l.444-1.071a4.876,4.876,0,1,0-9.01-3.732l-.444,1.071a14.515,14.515,0,0,0-1.5,0l-.444-1.07a4.876,4.876,0,1,0-9.01,3.733L30,7.816a14.541,14.541,0,0,0-1.059,1.06l-1.071-.444a4.876,4.876,0,1,0-3.732,9.01l1.071.444a14.649,14.649,0,0,0,0,1.486H13.172a7.307,7.307,0,0,0-7.3,7.3V65.543A7.028,7.028,0,0,0,7.037,79.5H72.48a7.029,7.029,0,0,0,4.968-12ZM26,29.209a4.843,4.843,0,0,0,1.864-.373l1.072-.443A14.487,14.487,0,0,0,30,29.451l-.444,1.071a4.876,4.876,0,1,0,9.01,3.732l.444-1.071a14.559,14.559,0,0,0,1.5,0l.444,1.07a4.876,4.876,0,1,0,9.01-3.733l-.444-1.07a14.6,14.6,0,0,0,1.059-1.06l1.07.443A4.884,4.884,0,0,0,57.133,27.6h6.332a1.952,1.952,0,0,1,1.95,1.95V57.828A1.718,1.718,0,0,1,63.7,59.544H15.818A1.718,1.718,0,0,1,14.1,57.828V29.552a1.952,1.952,0,0,1,1.95-1.95h6.334A4.86,4.86,0,0,0,26,29.209ZM72.48,77.172H7.037a4.7,4.7,0,0,1,0-9.4h7.98a1.165,1.165,0,0,0,0-2.329H8.2V26.67a4.975,4.975,0,0,1,4.97-4.969H21.9a4.888,4.888,0,0,0-.682,3.571H16.052a4.284,4.284,0,0,0-4.279,4.279V57.828a4.049,4.049,0,0,0,4.045,4.045H63.7a4.049,4.049,0,0,0,4.045-4.045V29.552a4.284,4.284,0,0,0-4.279-4.279H58.3a4.888,4.888,0,0,0-.682-3.571h8.73a4.975,4.975,0,0,1,4.97,4.969V65.444H19.644a1.165,1.165,0,1,0,0,2.329h7a6.337,6.337,0,0,0,6.219,5.164H46.65a6.337,6.337,0,0,0,6.219-5.164H72.48a4.7,4.7,0,0,1,0,9.4Zm-22-9.4a4.007,4.007,0,0,1-3.826,2.834H32.866a4.006,4.006,0,0,1-3.826-2.834Z" transform="translate(-0.01 -0.001)"/>
        <path id="Trazado_779104" data-name="Trazado 779104" d="M215.745,72.353a7.4,7.4,0,1,0,7.4,7.4A7.407,7.407,0,0,0,215.745,72.353Zm0,2.329a5.068,5.068,0,0,1,5.016,5.808H210.729a5.068,5.068,0,0,1,5.015-5.808Zm0,10.139a5.064,5.064,0,0,1-4.033-2h8.066A5.064,5.064,0,0,1,215.745,84.821Z" transform="translate(-175.997 -61.119)"/>
        <path id="Trazado_779105" data-name="Trazado 779105" d="M288.7,263.571a3.841,3.841,0,0,0,3.015,1.478q.137,0,.277-.01a3.807,3.807,0,0,0,3.045-1.929l5.843-10.347a3.815,3.815,0,0,0-6.644-3.753l-3.022,5.35-.917-1.182a3.815,3.815,0,1,0-6.031,4.675Zm-2.892-8.242a1.487,1.487,0,0,1,1.472-1.3,1.529,1.529,0,0,1,.19.012,1.476,1.476,0,0,1,.988.564l1.99,2.567a1.165,1.165,0,0,0,1.934-.141l3.883-6.875a1.486,1.486,0,1,1,2.588,1.462l-5.843,10.347a1.483,1.483,0,0,1-1.185.751,1.5,1.5,0,0,1-1.284-.572l-4.432-5.717A1.476,1.476,0,0,1,285.813,255.329Z" transform="translate(-239.457 -208.708)"/>
        <path id="Trazado_779106" data-name="Trazado 779106" d="M130.769,263.865l1.5,1.5-1.5,1.5a3.925,3.925,0,0,0,5.55,5.55l1.5-1.5,1.5,1.5a3.925,3.925,0,0,0,5.551-5.55l-1.5-1.5,1.5-1.5a3.925,3.925,0,0,0-5.551-5.55l-1.5,1.5-1.5-1.5a3.925,3.925,0,1,0-5.551,5.55Zm1.647-3.9a1.6,1.6,0,0,1,2.257,0l2.319,2.319a1.165,1.165,0,0,0,1.647,0l2.319-2.319a1.6,1.6,0,0,1,2.256,2.257l-2.319,2.319a1.164,1.164,0,0,0,0,1.647l2.319,2.319a1.6,1.6,0,1,1-2.256,2.257l-2.319-2.319a1.165,1.165,0,0,0-1.647,0l-2.319,2.319a1.6,1.6,0,0,1-2.256-2.257l2.319-2.319a1.164,1.164,0,0,0,0-1.647l-2.319-2.319A1.6,1.6,0,0,1,132.416,259.961Z" transform="translate(-109.496 -217.234)"/>
      </g>
    </g>
  </g>
</svg>
