<svg id="Grupo_1065096" data-name="Grupo 1065096" xmlns="http://www.w3.org/2000/svg" xmlns:xlink="http://www.w3.org/1999/xlink" width="313" height="238.166" viewBox="0 0 313 238.166">
  <defs>
    <clipPath id="clip-path">
      <rect id="Rectángulo_374145" data-name="Rectángulo 374145" width="313" height="238.166" fill="none"/>
    </clipPath>
  </defs>
  <g id="Grupo_1065091" data-name="Grupo 1065091">
    <g id="Grupo_1065090" data-name="Grupo 1065090" clip-path="url(#clip-path)">
      <path id="Trazado_779376" data-name="Trazado 779376" d="M313,230.1c0,4.453-70.067,8.063-156.5,8.063S0,234.557,0,230.1s70.068-8.062,156.5-8.062S313,225.651,313,230.1" fill="#263238"/>
    </g>
  </g>
  <g id="Grupo_1065093" data-name="Grupo 1065093">
    <g id="Grupo_1065092" data-name="Grupo 1065092" clip-path="url(#clip-path)">
      <path id="Trazado_779377" data-name="Trazado 779377" d="M261.943,215.581H60.04V91.483a4.3,4.3,0,0,1,4.295-4.295H257.648a4.3,4.3,0,0,1,4.295,4.295Z" fill="#fff"/>
      <path id="Trazado_779378" data-name="Trazado 779378" d="M261.943,215.581H60.04V91.483a4.3,4.3,0,0,1,4.295-4.295H257.648a4.3,4.3,0,0,1,4.295,4.295Z" fill="none" stroke="#263238" stroke-linecap="round" stroke-linejoin="round" stroke-width="1"/>
      <path id="Trazado_779379" data-name="Trazado 779379" d="M251.571,217.309H70.411V101.229a4.3,4.3,0,0,1,4.295-4.295h172.57a4.3,4.3,0,0,1,4.295,4.295Z" fill="#263238"/>
      <path id="Trazado_779380" data-name="Trazado 779380" d="M251.571,217.309H70.411V101.229a4.3,4.3,0,0,1,4.295-4.295h172.57a4.3,4.3,0,0,1,4.295,4.295Z" fill="none" stroke="#263238" stroke-linecap="round" stroke-linejoin="round" stroke-width="1"/>
      <path id="Trazado_779381" data-name="Trazado 779381" d="M260.214,225.952H52.785c-9.546,0-17.285-5.781-17.285-12.911h242c0,7.13-7.739,12.911-17.286,12.911" fill="#fff"/>
      <path id="Trazado_779382" data-name="Trazado 779382" d="M260.214,225.952H52.785c-9.546,0-17.285-5.781-17.285-12.911h242C277.5,220.171,269.761,225.952,260.214,225.952Z" fill="none" stroke="#263238" stroke-linecap="round" stroke-linejoin="round" stroke-width="1"/>
    </g>
  </g>
  <g id="Grupo_1065095" data-name="Grupo 1065095">
    <g id="Grupo_1065094" data-name="Grupo 1065094" clip-path="url(#clip-path)">
      <path id="Trazado_779383" data-name="Trazado 779383" d="M160.128.5c-13.313,12.677-47.39,25.472-87.12,52.621,0,0,2.482,91.742,87.12,141.888Z" fill="#c6ff00"/>
      <path id="Trazado_779384" data-name="Trazado 779384" d="M160.128.5c-13.313,12.677-47.39,25.472-87.12,52.621,0,0,2.482,91.742,87.12,141.888Z" fill="#ffb206" stroke="#263238" stroke-linecap="round" stroke-linejoin="round" stroke-width="1"/>
      <path id="Trazado_779385" data-name="Trazado 779385" d="M160.128.5c13.313,12.677,47.39,25.472,87.12,52.621,0,0-2.482,91.742-87.12,141.888Z" fill="#263238"/>
      <path id="Trazado_779386" data-name="Trazado 779386" d="M160.128.5c13.313,12.677,47.39,25.472,87.12,52.621,0,0-2.482,91.742-87.12,141.888Z" fill="none" stroke="#263238" stroke-linecap="round" stroke-linejoin="round" stroke-width="1"/>
      <path id="Trazado_779387" data-name="Trazado 779387" d="M160.128,8.31C144.058,19.7,116.214,30.56,79.4,55.718c0,0,2.3,85.013,80.73,131.481,78.43-46.468,80.73-131.481,80.73-131.481C204.042,30.56,176.322,19.7,160.128,8.31" fill="#263238"/>
      <path id="Trazado_779388" data-name="Trazado 779388" d="M160.128,8.31C144.058,19.7,116.214,30.56,79.4,55.718c0,0,2.3,85.013,80.73,131.481,78.43-46.468,80.73-131.481,80.73-131.481C204.042,30.56,176.322,19.7,160.128,8.31Z" fill="none" stroke="#263238" stroke-linecap="round" stroke-linejoin="round" stroke-width="1"/>
      <path id="Trazado_779389" data-name="Trazado 779389" d="M227.1,46.687c-56.161,16.992-99.046,66.348-118.484,92.377a160.986,160.986,0,0,0,51.51,48.136c78.43-46.468,80.73-131.481,80.73-131.481-4.739-3.239-9.324-6.236-13.756-9.032" fill="#ffb206"/>
      <path id="Trazado_779390" data-name="Trazado 779390" d="M227.1,46.687c-56.161,16.992-99.046,66.348-118.484,92.377a160.986,160.986,0,0,0,51.51,48.136c78.43-46.468,80.73-131.481,80.73-131.481C236.119,52.48,231.534,49.483,227.1,46.687Z" fill="none" stroke="#263238" stroke-linecap="round" stroke-linejoin="round" stroke-width="1"/>
      <path id="Trazado_779391" data-name="Trazado 779391" d="M190.709,94.028H130.542a5,5,0,0,1-5-5V60.688a35.083,35.083,0,1,1,70.167,0v28.34a5,5,0,0,1-5,5m-55.167-10h50.167V60.688a25.083,25.083,0,1,0-50.167,0Z" fill="#fff"/>
      <path id="Trazado_779392" data-name="Trazado 779392" d="M190.709,94.028H130.542a5,5,0,0,1-5-5V60.688a35.083,35.083,0,1,1,70.167,0v28.34A5,5,0,0,1,190.709,94.028Zm-55.167-10h50.167V60.688a25.083,25.083,0,1,0-50.167,0Z" fill="none" stroke="#263238" stroke-linecap="round" stroke-linejoin="round" stroke-width="1"/>
      <rect id="Rectángulo_374147" data-name="Rectángulo 374147" width="76.602" height="64.725" transform="translate(121.827 80.368)" fill="#fff"/>
      <rect id="Rectángulo_374148" data-name="Rectángulo 374148" width="76.602" height="64.725" transform="translate(121.827 80.368)" fill="none" stroke="#263238" stroke-linecap="round" stroke-linejoin="round" stroke-width="1"/>
      <path id="Trazado_779393" data-name="Trazado 779393" d="M168.093,107.247a8.34,8.34,0,1,0-12.3,7.34l-1.4,14.7h10.722l-1.4-14.7a8.337,8.337,0,0,0,4.379-7.34" fill="#263238"/>
      <path id="Trazado_779394" data-name="Trazado 779394" d="M168.093,107.247a8.34,8.34,0,1,0-12.3,7.34l-1.4,14.7h10.722l-1.4-14.7A8.337,8.337,0,0,0,168.093,107.247Z" fill="none" stroke="#263238" stroke-linecap="round" stroke-linejoin="round" stroke-width="1"/>
    </g>
  </g>
</svg>
