<svg id="Grupo_1065089" data-name="Grupo 1065089" xmlns="http://www.w3.org/2000/svg" xmlns:xlink="http://www.w3.org/1999/xlink" width="324" height="250.245" viewBox="0 0 324 250.245">
  <defs>
    <clipPath id="clip-path">
      <rect id="Rectángulo_374144" data-name="Rectángulo 374144" width="324" height="250.245" fill="none"/>
    </clipPath>
  </defs>
  <g id="Grupo_1065088" data-name="Grupo 1065088" clip-path="url(#clip-path)">
    <path id="Trazado_779365" data-name="Trazado 779365" d="M284.559,170.657V9.722A9.72,9.72,0,0,0,274.838,0H45.857a9.72,9.72,0,0,0-9.721,9.721V170.657Z" transform="translate(1.102 0)" fill="#263238"/>
    <rect id="Rectángulo_374141" data-name="Rectángulo 374141" width="217.174" height="140.584" transform="translate(53.114 14.664)" fill="#fff"/>
    <path id="Trazado_779366" data-name="Trazado 779366" d="M37.211,165.606.854,240.1H323.1l-37.461-74.5Z" transform="translate(0.026 5.051)" fill="#fff"/>
    <path id="Trazado_779367" data-name="Trazado 779367" d="M37.211,165.606.854,240.1H323.1l-37.461-74.5Z" transform="translate(0.026 5.051)" fill="none" stroke="#263238" stroke-miterlimit="10" stroke-width="1.051"/>
    <rect id="Rectángulo_374142" data-name="Rectángulo 374142" width="323.961" height="4.556" transform="translate(0 245.689)" fill="#263238"/>
    <path id="Trazado_779368" data-name="Trazado 779368" d="M67.966,169.9l-3.206,7.69H81.125l2.956-7.69Zm-19.983,8.773-4.028,9.109H59.333l3.8-9.109Zm-4.516,10.192-4.029,9.1h15.64l3.8-9.1Zm52.984,0-2.708,9.1h13.289l1.993-9.1Zm28.843-10.192-1.2,9.109h12.552l.835-9.109ZM110.13,188.867l-2,9.1h13.539l1.2-9.1Zm13.82,0-1.191,9.1h12.953l.835-9.1Zm14.622-10.192-.834,9.109H150.03l.454-9.109Zm.8-8.773-.7,7.69h11.87l.39-7.69Zm24.38,8.773H151.579l-.455,9.109H163.85Zm-26.123,10.192-.823,9.1h12.726l.444-9.1Zm26.231,0H151.07l-.455,9.1h13.334Zm13.084,0h-12l.087,9.1h12.412ZM188.729,169.9H177.01l.411,7.69H189.53Zm.92,8.773H177.486l.487,9.109h12.64Zm11.73-8.773H189.812l.812,7.69h11.935Zm1.343,8.773H190.743l.953,9.109h12.423Zm-12,10.192H178.038l.487,9.1h13.159Zm13.56,0H191.815l.953,9.1h12.91Zm63.76-10.192H256.064l3.184,9.109h12.326ZM235.5,199.049H221.308l1.744,9.4H237.9Zm22.983-10.181H248.428l2.86,9.1h10.376Zm13.517,0H259.627l3.173,9.1h12.727Zm-216.2,10.181-3.92,9.4H69.265l3.618-9.4ZM293.2,209.533H281.18l4.385,11.275H284.4l-4.38-11.275H34.315l-4.994,11.275h268.69ZM38.96,199.049l-4.169,9.4H50.7l3.921-9.4Zm236.989,0h-12.77l3.282,9.4H279.6Zm12.78,0H277.107l3.661,9.4h11.978ZM284.4,188.867H273.154l3.542,9.1h11.579Zm-22.355,10.181H251.633l2.958,9.4h10.733Zm-11.557,0H236.6l2.415,9.4h14.437Zm-30.272,0H206.946l1.441,9.4h13.571Zm-14.372,0H192.888l.985,9.4h13.409Zm-14.036,0H178.591l.5,9.4h13.7Zm-14.307,0H165.042l.1,9.4h12.867Zm-13.539,0h-13.4l-.466,9.4h13.961Zm-27.261,0-.855,9.4H149l.477-9.4Zm-14.08,0-1.246,9.4h13.376l.867-9.4Zm-14.72,0-2.068,9.4h14.459l1.235-9.4Zm-14.47,0-2.794,9.4h14.1l2.058-9.4Zm-19.387,0-3.617,9.4H89.5l2.795-9.4ZM247.28,188.867H233.99l2.329,9.1h13.831Zm32.774-10.192H269.2l3.542,9.109h11.188Zm-3.607-8.448-.14-.325H265.789l2.989,7.69h10.809Zm-11.816-.325H253l2.685,7.69h11.936Zm-12.78,0h-9.4l2.426,7.69h9.661Zm3.065,8.773h-9.7l2.87,9.109H258.1Zm-10.842,0H231.38l2.339,9.109h13.224Zm-2.762-8.773H229.139l1.97,7.69h12.618Zm-8.426,18.964H219.423l1.689,9.1h14.1Zm-14.557,0H205.375l1.4,9.1h13.236Zm11.947-10.192H217.528l1.689,9.109H232.6Zm-2.253-8.773H215.9l1.429,7.69h12.662Zm-11.589,8.773H203.816l1.4,9.109h12.911ZM214.81,169.9H202.472l1.181,7.69h12.585Zm-38.417,8.773H164.836l.1,9.109H176.89Zm-.466-8.773H164.749l.076,7.69h11.513Zm-12.261,0H152.012l-.379,7.69h12.109Zm-37.214,0-1.018,7.69h12.153l.7-7.69Zm-12.163,0-1.689,7.69H124.35l1.008-7.69Zm-1.928,8.773-1.993,9.109h12.64l1.191-9.109ZM102.082,169.9l-2.286,7.69h11.7l1.679-7.69Zm-2.61,8.773-2.7,9.109h12.477l2-9.109ZM85.251,169.9l-2.956,7.69H98.67l2.286-7.69Zm-3.379,8.773-3.5,9.109H95.649l2.708-9.109Zm-3.921,10.192-3.5,9.1H92.616l2.708-9.1Zm-17.9,0-3.8,9.1H73.294l3.5-9.1ZM64.3,178.676l-3.8,9.109H77.2l3.509-9.109ZM51.871,169.9l-3.412,7.69H63.59L66.8,169.9Zm203.044,8.773h-9.7l2.87,9.109H258.1Z" transform="translate(0.894 5.182)" fill="#263238"/>
    <path id="Trazado_779369" data-name="Trazado 779369" d="M68.834,208.359l-.206.541-1.007-.39.054-.151Z" transform="translate(2.062 6.355)" fill="#263238"/>
    <path id="Trazado_779370" data-name="Trazado 779370" d="M50.784,208.359l-.108.26-.629-.26Z" transform="translate(1.526 6.355)" fill="#263238"/>
    <path id="Trazado_779371" data-name="Trazado 779371" d="M219.758,108.972H99.806A11.271,11.271,0,0,1,88.534,97.7V54.321A11.272,11.272,0,0,1,99.806,43.049H219.758a11.272,11.272,0,0,1,11.272,11.272V97.7a11.271,11.271,0,0,1-11.272,11.272" transform="translate(2.7 1.313)" fill="#ffb206"/>
    <rect id="Rectángulo_374143" data-name="Rectángulo 374143" width="142.495" height="65.923" rx="10.938" transform="translate(91.234 44.362)" fill="none" stroke="#2e353a" stroke-miterlimit="10" stroke-width="1.578"/>
    <path id="Trazado_779372" data-name="Trazado 779372" d="M104.934,139.463H214.38a9.1,9.1,0,0,0,7.939-13.553L167.6,28.3a9.1,9.1,0,0,0-15.879,0l-54.723,97.61a9.1,9.1,0,0,0,7.939,13.553" transform="translate(2.922 0.721)" fill="#263238"/>
    <path id="Trazado_779373" data-name="Trazado 779373" d="M110.1,133.457h98.538c3.78,0,6.162-4.281,4.314-7.749L163.685,33.225a4.828,4.828,0,0,0-8.627,0l-49.269,92.483C103.941,129.176,106.324,133.457,110.1,133.457Z" transform="translate(3.207 0.932)" fill="none" stroke="#fff" stroke-miterlimit="10" stroke-width="0.788"/>
    <path id="Trazado_779374" data-name="Trazado 779374" d="M156.338,102.3H159.1c2.125,0,3.912-1.993,4.152-4.632l2.721-29.877c.282-3.1-1.656-5.813-4.151-5.813h-8.648c-2.526,0-4.473,2.779-4.143,5.908L152.2,97.763c.275,2.6,2.047,4.537,4.143,4.537" transform="translate(4.544 1.89)" fill="#fff"/>
    <path id="Trazado_779375" data-name="Trazado 779375" d="M162.978,111.547a5.609,5.609,0,1,1-5.609-5.609,5.609,5.609,0,0,1,5.609,5.609" transform="translate(4.628 3.231)" fill="#fff"/>
  </g>
</svg>
