<svg id="Grupo_1065101" data-name="Grupo 1065101" xmlns="http://www.w3.org/2000/svg" xmlns:xlink="http://www.w3.org/1999/xlink" width="361" height="229.904" viewBox="0 0 361 229.904">
  <defs>
    <clipPath id="clip-path">
      <rect id="Rectángulo_374203" data-name="Rectángulo 374203" width="361" height="229.904" fill="none"/>
    </clipPath>
  </defs>
  <g id="Grupo_1065098" data-name="Grupo 1065098">
    <g id="Grupo_1065097" data-name="Grupo 1065097" clip-path="url(#clip-path)">
      <path id="Trazado_779395" data-name="Trazado 779395" d="M321.782,254.521l-25.534-41.138-51.326.916,24.717,40.254a7.856,7.856,0,0,1-1.624,10.124l-5.832.413H194.273v1.451H315.1a7.87,7.87,0,0,0,6.687-12.021" transform="translate(-34.518 -37.913)" fill="#263238"/>
      <path id="Trazado_779396" data-name="Trazado 779396" d="M321.782,254.521l-25.534-41.138-51.326.916,24.717,40.254a7.856,7.856,0,0,1-1.624,10.124l-5.832.413H194.273v1.451H315.1A7.87,7.87,0,0,0,321.782,254.521Z" transform="translate(-34.518 -37.913)" fill="none" stroke="#263238" stroke-linecap="round" stroke-linejoin="round" stroke-width="1"/>
      <path id="Trazado_779397" data-name="Trazado 779397" d="M293.563,214.433,319.1,255.571a7.871,7.871,0,0,1-6.687,12.022H260.247a7.87,7.87,0,0,0,6.707-11.989L242.236,215.35Z" transform="translate(-34.735 -38.1)" fill="#fff"/>
      <path id="Trazado_779398" data-name="Trazado 779398" d="M293.563,214.433,319.1,255.571a7.871,7.871,0,0,1-6.687,12.022H260.247a7.87,7.87,0,0,0,6.707-11.989L242.236,215.35Z" transform="translate(-34.735 -38.1)" fill="none" stroke="#263238" stroke-linecap="round" stroke-linejoin="round" stroke-width="1"/>
      <path id="Trazado_779399" data-name="Trazado 779399" d="M301.915,211.617l-51.326.917,9.5,15.479h52Z" transform="translate(-44.524 -37.599)" fill="#263238"/>
      <path id="Trazado_779400" data-name="Trazado 779400" d="M301.915,211.617l-51.326.917,9.5,15.479h52Z" transform="translate(-44.524 -37.599)" fill="none" stroke="#263238" stroke-linecap="round" stroke-linejoin="round" stroke-width="1"/>
      <path id="Trazado_779401" data-name="Trazado 779401" d="M145.5,184.723H358.849a2.394,2.394,0,0,0,2.394-2.395V2.895A2.394,2.394,0,0,0,358.849.5H145.5a2.4,2.4,0,0,0-2.395,2.395V182.329a2.4,2.4,0,0,0,2.395,2.395" transform="translate(-25.427 -0.089)" fill="#263238"/>
      <rect id="Rectángulo_374150" data-name="Rectángulo 374150" width="218.135" height="184.223" rx="2.912" transform="translate(117.681 0.411)" fill="none" stroke="#263238" stroke-linecap="round" stroke-linejoin="round" stroke-width="1"/>
      <path id="Trazado_779402" data-name="Trazado 779402" d="M140.526,184.723H343.764a7.448,7.448,0,0,0,7.448-7.449V7.949A7.448,7.448,0,0,0,343.764.5H140.526a7.448,7.448,0,0,0-7.449,7.449V177.275a7.449,7.449,0,0,0,7.449,7.449" transform="translate(-23.645 -0.089)" fill="#fff"/>
      <path id="Rectángulo_374151" data-name="Rectángulo 374151" d="M9.058,0h200.02a9.057,9.057,0,0,1,9.057,9.057V175.165a9.058,9.058,0,0,1-9.058,9.058H9.058A9.058,9.058,0,0,1,0,175.165V9.058A9.058,9.058,0,0,1,9.058,0Z" transform="translate(109.433 0.411)" fill="none" stroke="#263238" stroke-linecap="round" stroke-linejoin="round" stroke-width="1"/>
      <path id="Trazado_779403" data-name="Trazado 779403" d="M140.193.5H344.1a7.116,7.116,0,0,1,7.116,7.116V151.728H133.077V7.616A7.116,7.116,0,0,1,140.193.5" transform="translate(-23.645 -0.089)" fill="#263238"/>
      <path id="Trazado_779404" data-name="Trazado 779404" d="M140.193.5H344.1a7.116,7.116,0,0,1,7.116,7.116V151.728H133.077V7.616A7.116,7.116,0,0,1,140.193.5Z" transform="translate(-23.645 -0.089)" fill="none" stroke="#263238" stroke-linecap="round" stroke-linejoin="round" stroke-width="1"/>
      <rect id="Rectángulo_374152" data-name="Rectángulo 374152" width="199.804" height="133.814" transform="translate(118.598 7.743)" fill="#fff"/>
      <rect id="Rectángulo_374153" data-name="Rectángulo 374153" width="199.804" height="133.814" transform="translate(118.598 7.743)" fill="none" stroke="#263238" stroke-linecap="round" stroke-linejoin="round" stroke-width="1"/>
      <line id="Línea_290" data-name="Línea 290" x2="199.551" transform="translate(118.963 70.784)" fill="none" stroke="#263238" stroke-miterlimit="10" stroke-width="1"/>
      <path id="Trazado_779405" data-name="Trazado 779405" d="M154.007,81.035a2,2,0,1,1-2-2A2,2,0,0,1,154.007,81.035Z" transform="translate(-26.652 -14.042)" fill="none" stroke="#263238" stroke-miterlimit="10" stroke-width="1"/>
      <path id="Trazado_779406" data-name="Trazado 779406" d="M164.788,81.035a2,2,0,1,1-2-2A2,2,0,0,1,164.788,81.035Z" transform="translate(-28.568 -14.042)" fill="none" stroke="#263238" stroke-miterlimit="10" stroke-width="1"/>
      <path id="Trazado_779407" data-name="Trazado 779407" d="M175.569,81.035a2,2,0,1,1-2-2A2,2,0,0,1,175.569,81.035Z" transform="translate(-30.483 -14.042)" fill="none" stroke="#263238" stroke-miterlimit="10" stroke-width="1"/>
      <path id="Trazado_779408" data-name="Trazado 779408" d="M186.35,81.035a2,2,0,1,1-2-2A2,2,0,0,1,186.35,81.035Z" transform="translate(-32.399 -14.042)" fill="none" stroke="#263238" stroke-miterlimit="10" stroke-width="1"/>
      <path id="Trazado_779409" data-name="Trazado 779409" d="M197.131,81.035a2,2,0,1,1-2-2A2,2,0,0,1,197.131,81.035Z" transform="translate(-34.314 -14.042)" fill="none" stroke="#263238" stroke-miterlimit="10" stroke-width="1"/>
      <path id="Trazado_779410" data-name="Trazado 779410" d="M327.548,81.035a2,2,0,1,1-2-2A2,2,0,0,1,327.548,81.035Z" transform="translate(-57.486 -14.042)" fill="none" stroke="#263238" stroke-miterlimit="10" stroke-width="1"/>
      <path id="Trazado_779411" data-name="Trazado 779411" d="M338.329,81.035a2,2,0,1,1-2-2A2,2,0,0,1,338.329,81.035Z" transform="translate(-59.402 -14.042)" fill="none" stroke="#263238" stroke-miterlimit="10" stroke-width="1"/>
      <path id="Trazado_779412" data-name="Trazado 779412" d="M349.11,81.035a2,2,0,1,1-2-2A2,2,0,0,1,349.11,81.035Z" transform="translate(-61.317 -14.042)" fill="none" stroke="#263238" stroke-miterlimit="10" stroke-width="1"/>
      <path id="Trazado_779413" data-name="Trazado 779413" d="M359.891,81.035a2,2,0,1,1-2-2A2,2,0,0,1,359.891,81.035Z" transform="translate(-63.233 -14.042)" fill="none" stroke="#263238" stroke-miterlimit="10" stroke-width="1"/>
      <path id="Trazado_779414" data-name="Trazado 779414" d="M370.672,81.035a2,2,0,1,1-2-2A2,2,0,0,1,370.672,81.035Z" transform="translate(-65.148 -14.042)" fill="none" stroke="#263238" stroke-miterlimit="10" stroke-width="1"/>
      <path id="Trazado_779415" data-name="Trazado 779415" d="M381.453,81.035a2,2,0,1,1-2-2A2,2,0,0,1,381.453,81.035Z" transform="translate(-67.064 -14.042)" fill="none" stroke="#263238" stroke-miterlimit="10" stroke-width="1"/>
      <path id="Trazado_779416" data-name="Trazado 779416" d="M296.716,157.547H199.133a2.467,2.467,0,0,1-2.467-2.467v-9.868a2.467,2.467,0,0,1,2.467-2.467h97.583a2.467,2.467,0,0,1,2.467,2.467v9.868a2.467,2.467,0,0,1-2.467,2.467" transform="translate(-34.943 -25.362)" fill="#ffb206"/>
      <rect id="Rectángulo_374154" data-name="Rectángulo 374154" width="102.517" height="14.802" rx="3" transform="translate(161.723 117.382)" fill="none" stroke="#263238" stroke-linecap="round" stroke-linejoin="round" stroke-width="1"/>
      <path id="Trazado_779417" data-name="Trazado 779417" d="M225.426,150.645l-.3-1.9h1.036l-.3,1.9,1.717-.863.322.979-1.89.322,1.348,1.348-.829.611-.887-1.705-.887,1.705-.829-.611,1.348-1.348-1.89-.322.323-.979Z" transform="translate(-39.691 -26.428)" fill="#263238"/>
      <path id="Trazado_779418" data-name="Trazado 779418" d="M233.14,150.645l-.3-1.9h1.036l-.3,1.9,1.717-.863.322.979-1.89.322,1.349,1.348-.83.611-.887-1.705-.886,1.705-.83-.611,1.348-1.348-1.889-.322.322-.979Z" transform="translate(-41.061 -26.428)" fill="#263238"/>
      <path id="Trazado_779419" data-name="Trazado 779419" d="M240.854,150.645l-.3-1.9h1.036l-.3,1.9,1.717-.863.322.979-1.89.322,1.349,1.348-.83.611-.887-1.705-.886,1.705-.83-.611,1.348-1.348-1.89-.322.323-.979Z" transform="translate(-42.432 -26.428)" fill="#263238"/>
      <path id="Trazado_779420" data-name="Trazado 779420" d="M248.568,150.645l-.3-1.9H249.3l-.3,1.9,1.717-.863.322.979-1.89.322,1.349,1.348-.83.611-.887-1.705-.886,1.705-.83-.611,1.348-1.348-1.889-.322.322-.979Z" transform="translate(-43.803 -26.428)" fill="#263238"/>
      <path id="Trazado_779421" data-name="Trazado 779421" d="M256.282,150.645l-.3-1.9h1.036l-.3,1.9,1.717-.863.322.979-1.89.322,1.348,1.348-.829.611-.887-1.705-.886,1.705-.83-.611,1.348-1.348-1.89-.322.323-.979Z" transform="translate(-45.173 -26.428)" fill="#263238"/>
      <path id="Trazado_779422" data-name="Trazado 779422" d="M264,150.645l-.3-1.9h1.036l-.3,1.9,1.717-.863.322.979-1.89.322,1.349,1.348-.83.611-.887-1.705-.886,1.705-.83-.611,1.348-1.348-1.889-.322.322-.979Z" transform="translate(-46.544 -26.428)" fill="#263238"/>
      <path id="Trazado_779423" data-name="Trazado 779423" d="M271.71,150.645l-.3-1.9h1.036l-.3,1.9,1.717-.863.322.979-1.89.322,1.348,1.348-.829.611-.887-1.705-.886,1.705-.83-.611,1.348-1.348-1.889-.322.322-.979Z" transform="translate(-47.914 -26.428)" fill="#263238"/>
      <path id="Trazado_779424" data-name="Trazado 779424" d="M279.424,150.645l-.3-1.9h1.036l-.3,1.9,1.717-.863.322.979-1.89.322,1.348,1.348-.829.611-.887-1.705-.886,1.705-.83-.611,1.348-1.348-1.889-.322.322-.979Z" transform="translate(-49.285 -26.428)" fill="#263238"/>
      <path id="Trazado_779425" data-name="Trazado 779425" d="M287.138,150.645l-.3-1.9h1.036l-.3,1.9,1.717-.863.322.979-1.89.322,1.349,1.348-.83.611-.887-1.705-.886,1.705-.83-.611,1.348-1.348-1.889-.322.322-.979Z" transform="translate(-50.655 -26.428)" fill="#263238"/>
      <path id="Trazado_779426" data-name="Trazado 779426" d="M294.852,150.645l-.3-1.9h1.036l-.3,1.9,1.717-.863.322.979-1.89.322,1.348,1.348-.829.611-.887-1.705-.886,1.705-.83-.611,1.348-1.348-1.889-.322.322-.979Z" transform="translate(-52.026 -26.428)" fill="#263238"/>
      <path id="Trazado_779427" data-name="Trazado 779427" d="M298.637,66.932a49.065,49.065,0,1,1-49.066-49.066,49.066,49.066,0,0,1,49.066,49.066" transform="translate(-35.625 -3.174)" fill="#ffb206"/>
      <path id="Trazado_779428" data-name="Trazado 779428" d="M298.637,66.932a49.065,49.065,0,1,1-49.066-49.066A49.066,49.066,0,0,1,298.637,66.932Z" transform="translate(-35.625 -3.174)" fill="none" stroke="#263238" stroke-linecap="round" stroke-linejoin="round" stroke-width="1"/>
      <path id="Trazado_779429" data-name="Trazado 779429" d="M286.462,70.287a33.534,33.534,0,1,1-33.534-33.534,33.534,33.534,0,0,1,33.534,33.534" transform="translate(-38.981 -6.53)" fill="#263238"/>
      <path id="Trazado_779430" data-name="Trazado 779430" d="M286.462,70.287a33.534,33.534,0,1,1-33.534-33.534A33.534,33.534,0,0,1,286.462,70.287Z" transform="translate(-38.981 -6.53)" fill="none" stroke="#263238" stroke-linecap="round" stroke-linejoin="round" stroke-width="1"/>
      <path id="Trazado_779431" data-name="Trazado 779431" d="M282.744,70.287A33.534,33.534,0,1,1,249.21,36.753a33.534,33.534,0,0,1,33.534,33.534" transform="translate(-38.321 -6.53)" fill="#fff"/>
      <path id="Trazado_779432" data-name="Trazado 779432" d="M282.744,70.287A33.534,33.534,0,1,1,249.21,36.753,33.534,33.534,0,0,1,282.744,70.287Z" transform="translate(-38.321 -6.53)" fill="none" stroke="#263238" stroke-linecap="round" stroke-linejoin="round" stroke-width="1"/>
      <path id="Trazado_779433" data-name="Trazado 779433" d="M275.16,72.432a23.607,23.607,0,1,1-23.606-23.606A23.607,23.607,0,0,1,275.16,72.432" transform="translate(-40.501 -8.675)" fill="#ffb206"/>
      <path id="Trazado_779434" data-name="Trazado 779434" d="M275.16,72.432a23.607,23.607,0,1,1-23.606-23.606A23.607,23.607,0,0,1,275.16,72.432Z" transform="translate(-40.501 -8.675)" fill="none" stroke="#263238" stroke-linecap="round" stroke-linejoin="round" stroke-width="1"/>
      <path id="Trazado_779435" data-name="Trazado 779435" d="M206.988,56.229l.568-1.248,6.809,3.1.934-2.054,1.136.517-1.5,3.3Z" transform="translate(-36.777 -9.769)" fill="#263238"/>
      <path id="Trazado_779436" data-name="Trazado 779436" d="M211.465,51.574a2.084,2.084,0,1,1,2.161-3.558L217.5,50.37a2.085,2.085,0,1,1-2.161,3.559Zm4.664,1.229c.533.322.878.211,1.1-.161s.166-.731-.366-1.054l-4.029-2.445c-.532-.323-.877-.211-1.1.161s-.166.73.366,1.053Z" transform="translate(-37.365 -8.457)" fill="#263238"/>
      <path id="Trazado_779437" data-name="Trazado 779437" d="M218.474,44.112l3.237,3.375-1.21,1.441-7.3-4.873.859-1.021,5.74,3.867-4.841-4.935.851-1.011,5.746,3.936-4.848-5,.771-.916,6.052,6.361-1.173,1.393Z" transform="translate(-37.88 -6.924)" fill="#263238"/>
      <path id="Trazado_779438" data-name="Trazado 779438" d="M245.533,29.89l-.595-6.239,1.851-.461,2.115,8.467-1.258.314L246.13,25.9l.6,6.3-1.258.313-2.488-5.74,1.5,5.988-1.162.289L241.2,24.586l1.851-.462Z" transform="translate(-42.856 -4.12)" fill="#263238"/>
      <path id="Trazado_779439" data-name="Trazado 779439" d="M252.09,26.323l1.873-.185.124,1.241-1.874.185.252,2.544,2.358-.233.123,1.241-3.723.368-.86-8.687,3.723-.368.124,1.241-2.359.234Z" transform="translate(-44.483 -3.985)" fill="#263238"/>
      <path id="Trazado_779440" data-name="Trazado 779440" d="M256.835,22.349,259,22.4c1.372.032,2.027.808,1.994,2.2l-.1,4.411c-.033,1.4-.724,2.141-2.094,2.108l-2.168-.051Zm1.342,1.278-.146,6.232.773.018c.436.011.7-.207.717-.831l.108-4.537c.013-.623-.243-.854-.679-.864Z" transform="translate(-45.597 -3.971)" fill="#263238"/>
      <rect id="Rectángulo_374155" data-name="Rectángulo 374155" width="8.726" height="1.372" transform="translate(215.908 27.322) rotate(-83.113)" fill="#263238"/>
      <path id="Trazado_779441" data-name="Trazado 779441" d="M268.4,23.422,266.961,30c-.133.609.087.887.513.98s.743-.067.876-.677l1.437-6.578,1.266.277-1.418,6.492a2.05,2.05,0,1,1-3.995-.873l1.419-6.491Z" transform="translate(-47.183 -4.109)" fill="#263238"/>
      <path id="Trazado_779442" data-name="Trazado 779442" d="M274.325,31.619l3.1-5.448,1.781.683L276.071,35l-1.21-.465,2.245-5.842-3.13,5.5-1.21-.465,1.259-6.127-2.214,5.76-1.117-.429,3.13-8.145,1.78.683Z" transform="translate(-48.096 -4.405)" fill="#263238"/>
      <path id="Trazado_779443" data-name="Trazado 779443" d="M294.066,50.3l-.775-1.131,7.2-4.933.775,1.131-3.084,2.114.881,1.284,3.084-2.113.789,1.15-7.195,4.933-.789-1.15,3.083-2.115-.881-1.284Z" transform="translate(-52.111 -7.86)" fill="#263238"/>
      <rect id="Rectángulo_374156" data-name="Rectángulo 374156" width="8.727" height="1.372" transform="matrix(0.877, -0.481, 0.481, 0.877, 243.97, 45.586)" fill="#263238"/>
      <path id="Trazado_779444" data-name="Trazado 779444" d="M303.358,57.07l.76,1.764-2.542,1.095a2.05,2.05,0,1,1-1.619-3.756l4.169-1.794a2.05,2.05,0,1,1,1.618,3.756l-.779.336-.513-1.191.859-.371c.572-.246.681-.591.509-.993s-.5-.559-1.071-.312l-4.33,1.865c-.572.246-.67.587-.5.988s.488.564,1.06.317l1.478-.636-.248-.573Z" transform="translate(-53.042 -9.615)" fill="#263238"/>
      <path id="Trazado_779445" data-name="Trazado 779445" d="M300.516,63.674l-.373-1.321,8.4-2.368.372,1.319-3.6,1.016.424,1.5,3.6-1.016.379,1.345-8.4,2.368-.379-1.344,3.6-1.016-.423-1.5Z" transform="translate(-53.328 -10.658)" fill="#263238"/>
      <line id="Línea_291" data-name="Línea 291" x2="5.015" y2="8.101" transform="translate(187.369 24.721)" fill="none" stroke="#263238" stroke-miterlimit="10" stroke-width="1"/>
      <line id="Línea_292" data-name="Línea 292" x1="5.786" y2="7.715" transform="translate(236.358 27.035)" fill="none" stroke="#263238" stroke-miterlimit="10" stroke-width="1"/>
      <path id="Trazado_779446" data-name="Trazado 779446" d="M286.923,59.347l-20.782,4.09L272.1,74.477Z" transform="translate(-47.287 -10.545)" fill="#263238"/>
      <path id="Trazado_779447" data-name="Trazado 779447" d="M286.923,59.347l-20.782,4.09L272.1,74.477Z" transform="translate(-47.287 -10.545)" fill="none" stroke="#263238" stroke-miterlimit="10" stroke-width="1"/>
      <rect id="Rectángulo_374157" data-name="Rectángulo 374157" width="6.346" height="2.115" transform="translate(58.02 220.231)" fill="#fff"/>
      <rect id="Rectángulo_374158" data-name="Rectángulo 374158" width="6.346" height="2.115" transform="translate(58.02 220.231)" fill="none" stroke="#263238" stroke-linecap="round" stroke-linejoin="round" stroke-width="1"/>
      <rect id="Rectángulo_374159" data-name="Rectángulo 374159" width="6.346" height="2.115" transform="translate(66.481 220.231)" fill="#fff"/>
      <rect id="Rectángulo_374160" data-name="Rectángulo 374160" width="6.346" height="2.115" transform="translate(66.481 220.231)" fill="none" stroke="#263238" stroke-linecap="round" stroke-linejoin="round" stroke-width="1"/>
      <rect id="Rectángulo_374161" data-name="Rectángulo 374161" width="6.346" height="2.115" transform="translate(74.942 220.231)" fill="#fff"/>
      <rect id="Rectángulo_374162" data-name="Rectángulo 374162" width="6.346" height="2.115" transform="translate(74.942 220.231)" fill="none" stroke="#263238" stroke-linecap="round" stroke-linejoin="round" stroke-width="1"/>
      <rect id="Rectángulo_374163" data-name="Rectángulo 374163" width="6.346" height="2.115" transform="translate(83.403 220.231)" fill="#fff"/>
      <rect id="Rectángulo_374164" data-name="Rectángulo 374164" width="6.346" height="2.115" transform="translate(83.403 220.231)" fill="none" stroke="#263238" stroke-linecap="round" stroke-linejoin="round" stroke-width="1"/>
      <rect id="Rectángulo_374165" data-name="Rectángulo 374165" width="6.346" height="2.115" transform="translate(91.864 220.231)" fill="#fff"/>
      <rect id="Rectángulo_374166" data-name="Rectángulo 374166" width="6.346" height="2.115" transform="translate(91.864 220.231)" fill="none" stroke="#263238" stroke-linecap="round" stroke-linejoin="round" stroke-width="1"/>
      <rect id="Rectángulo_374167" data-name="Rectángulo 374167" width="6.346" height="2.115" transform="translate(100.325 220.231)" fill="#fff"/>
      <rect id="Rectángulo_374168" data-name="Rectángulo 374168" width="6.346" height="2.115" transform="translate(100.325 220.231)" fill="none" stroke="#263238" stroke-linecap="round" stroke-linejoin="round" stroke-width="1"/>
      <rect id="Rectángulo_374169" data-name="Rectángulo 374169" width="6.346" height="2.115" transform="translate(108.786 220.231)" fill="#fff"/>
      <rect id="Rectángulo_374170" data-name="Rectángulo 374170" width="6.346" height="2.115" transform="translate(108.786 220.231)" fill="none" stroke="#263238" stroke-linecap="round" stroke-linejoin="round" stroke-width="1"/>
      <rect id="Rectángulo_374171" data-name="Rectángulo 374171" width="6.346" height="2.115" transform="translate(117.247 220.231)" fill="#fff"/>
      <rect id="Rectángulo_374172" data-name="Rectángulo 374172" width="6.346" height="2.115" transform="translate(117.247 220.231)" fill="none" stroke="#263238" stroke-linecap="round" stroke-linejoin="round" stroke-width="1"/>
      <rect id="Rectángulo_374173" data-name="Rectángulo 374173" width="6.346" height="2.115" transform="translate(125.708 220.231)" fill="#fff"/>
      <rect id="Rectángulo_374174" data-name="Rectángulo 374174" width="6.346" height="2.115" transform="translate(125.708 220.231)" fill="none" stroke="#263238" stroke-linecap="round" stroke-linejoin="round" stroke-width="1"/>
      <rect id="Rectángulo_374175" data-name="Rectángulo 374175" width="6.346" height="2.115" transform="translate(134.169 220.231)" fill="#fff"/>
      <rect id="Rectángulo_374176" data-name="Rectángulo 374176" width="6.346" height="2.115" transform="translate(134.169 220.231)" fill="none" stroke="#263238" stroke-linecap="round" stroke-linejoin="round" stroke-width="1"/>
      <rect id="Rectángulo_374177" data-name="Rectángulo 374177" width="6.346" height="2.115" transform="translate(142.63 220.231)" fill="#fff"/>
      <rect id="Rectángulo_374178" data-name="Rectángulo 374178" width="6.346" height="2.115" transform="translate(142.63 220.231)" fill="none" stroke="#263238" stroke-linecap="round" stroke-linejoin="round" stroke-width="1"/>
      <rect id="Rectángulo_374179" data-name="Rectángulo 374179" width="6.346" height="2.115" transform="translate(151.091 220.231)" fill="#fff"/>
      <rect id="Rectángulo_374180" data-name="Rectángulo 374180" width="6.346" height="2.115" transform="translate(151.091 220.231)" fill="none" stroke="#263238" stroke-linecap="round" stroke-linejoin="round" stroke-width="1"/>
      <rect id="Rectángulo_374181" data-name="Rectángulo 374181" width="6.346" height="2.115" transform="translate(159.552 220.231)" fill="#fff"/>
      <rect id="Rectángulo_374182" data-name="Rectángulo 374182" width="6.346" height="2.115" transform="translate(159.552 220.231)" fill="none" stroke="#263238" stroke-linecap="round" stroke-linejoin="round" stroke-width="1"/>
      <rect id="Rectángulo_374183" data-name="Rectángulo 374183" width="6.346" height="2.115" transform="translate(168.013 220.231)" fill="#fff"/>
      <rect id="Rectángulo_374184" data-name="Rectángulo 374184" width="6.346" height="2.115" transform="translate(168.013 220.231)" fill="none" stroke="#263238" stroke-linecap="round" stroke-linejoin="round" stroke-width="1"/>
      <rect id="Rectángulo_374185" data-name="Rectángulo 374185" width="6.346" height="2.115" transform="translate(176.474 220.231)" fill="#fff"/>
      <rect id="Rectángulo_374186" data-name="Rectángulo 374186" width="6.346" height="2.115" transform="translate(176.474 220.231)" fill="none" stroke="#263238" stroke-linecap="round" stroke-linejoin="round" stroke-width="1"/>
      <rect id="Rectángulo_374187" data-name="Rectángulo 374187" width="6.346" height="2.115" transform="translate(184.936 220.231)" fill="#fff"/>
      <rect id="Rectángulo_374188" data-name="Rectángulo 374188" width="6.346" height="2.115" transform="translate(184.936 220.231)" fill="none" stroke="#263238" stroke-linecap="round" stroke-linejoin="round" stroke-width="1"/>
      <rect id="Rectángulo_374189" data-name="Rectángulo 374189" width="6.346" height="2.115" transform="translate(193.396 220.231)" fill="#fff"/>
      <rect id="Rectángulo_374190" data-name="Rectángulo 374190" width="6.346" height="2.115" transform="translate(193.396 220.231)" fill="none" stroke="#263238" stroke-linecap="round" stroke-linejoin="round" stroke-width="1"/>
      <rect id="Rectángulo_374191" data-name="Rectángulo 374191" width="6.346" height="2.115" transform="translate(201.857 220.231)" fill="#fff"/>
      <rect id="Rectángulo_374192" data-name="Rectángulo 374192" width="6.346" height="2.115" transform="translate(201.857 220.231)" fill="none" stroke="#263238" stroke-linecap="round" stroke-linejoin="round" stroke-width="1"/>
      <rect id="Rectángulo_374193" data-name="Rectángulo 374193" width="6.346" height="2.115" transform="translate(210.318 220.231)" fill="#fff"/>
      <rect id="Rectángulo_374194" data-name="Rectángulo 374194" width="6.346" height="2.115" transform="translate(210.318 220.231)" fill="none" stroke="#263238" stroke-linecap="round" stroke-linejoin="round" stroke-width="1"/>
      <rect id="Rectángulo_374195" data-name="Rectángulo 374195" width="6.346" height="2.115" transform="translate(218.779 220.231)" fill="#fff"/>
      <rect id="Rectángulo_374196" data-name="Rectángulo 374196" width="6.346" height="2.115" transform="translate(218.779 220.231)" fill="none" stroke="#263238" stroke-linecap="round" stroke-linejoin="round" stroke-width="1"/>
      <rect id="Rectángulo_374197" data-name="Rectángulo 374197" width="6.346" height="2.115" transform="translate(227.241 220.231)" fill="#fff"/>
      <rect id="Rectángulo_374198" data-name="Rectángulo 374198" width="6.346" height="2.115" transform="translate(227.241 220.231)" fill="none" stroke="#263238" stroke-linecap="round" stroke-linejoin="round" stroke-width="1"/>
      <rect id="Rectángulo_374199" data-name="Rectángulo 374199" width="183.462" height="6.839" transform="translate(54.745 222.653)" fill="#fff"/>
      <rect id="Rectángulo_374200" data-name="Rectángulo 374200" width="183.462" height="6.839" transform="translate(54.745 222.653)" fill="none" stroke="#263238" stroke-linecap="round" stroke-linejoin="round" stroke-width="1"/>
      <rect id="Rectángulo_374201" data-name="Rectángulo 374201" width="44.752" height="6.839" transform="translate(193.455 222.653)" fill="#263238"/>
      <rect id="Rectángulo_374202" data-name="Rectángulo 374202" width="44.752" height="6.839" transform="translate(193.455 222.653)" fill="none" stroke="#263238" stroke-linecap="round" stroke-linejoin="round" stroke-width="1"/>
    </g>
  </g>
  <g id="Grupo_1065100" data-name="Grupo 1065100">
    <g id="Grupo_1065099" data-name="Grupo 1065099" clip-path="url(#clip-path)">
      <line id="Línea_293" data-name="Línea 293" x1="361" transform="translate(0 229.492)" fill="none" stroke="#263238" stroke-miterlimit="10" stroke-width="1"/>
    </g>
  </g>
</svg>
