<svg xmlns="http://www.w3.org/2000/svg" xmlns:xlink="http://www.w3.org/1999/xlink" width="85" height="97" viewBox="0 0 85 97">
  <defs>
    <linearGradient id="linear-gradient" x1="1" y1="0.5" x2="0" y2="0.5" gradientUnits="objectBoundingBox">
      <stop offset="0" stop-color="#ffb206"/>
      <stop offset="1" stop-color="#ffb206" stop-opacity="0"/>
    </linearGradient>
    <linearGradient id="linear-gradient-2" y1="0.5" x2="1" y2="0.5" gradientUnits="objectBoundingBox">
      <stop offset="0" stop-color="#e01650"/>
      <stop offset="1" stop-color="#e01650" stop-opacity="0"/>
    </linearGradient>
  </defs>
  <g id="Grupo_1064968" data-name="Grupo 1064968" transform="translate(-180 -447)">
    <rect id="Rect치ngulo_373439" data-name="Rect치ngulo 373439" width="46" height="14" transform="translate(219 447)" fill="url(#linear-gradient)"/>
    <rect id="Rect치ngulo_373440" data-name="Rect치ngulo 373440" width="52" height="14" transform="translate(180 530)" fill="url(#linear-gradient-2)"/>
    <g id="Grupo_1065068" data-name="Grupo 1065068" transform="translate(183 458)">
      <g id="Grupo_1065066" data-name="Grupo 1065066" transform="translate(1.258 1.258)">
        <g id="Grupo_1065048" data-name="Grupo 1065048" transform="translate(56.613 37.742)">
          <path id="Trazado_779185" data-name="Trazado 779185" d="M63.437,42.65l-6.982,2.894A11.287,11.287,0,0,0,46,38.548V31A18.881,18.881,0,0,1,63.437,42.65Z" transform="translate(-46 -31)" fill="#8f52f5"/>
        </g>
        <g id="Grupo_1065049" data-name="Grupo 1065049" transform="translate(56.613 49.392)">
          <path id="Trazado_779186" data-name="Trazado 779186" d="M63.437,40.26a18.676,18.676,0,0,1,1.434,7.221A18.878,18.878,0,0,1,46,66.352V58.8A11.323,11.323,0,0,0,57.323,47.481a11.03,11.03,0,0,0-.868-4.328Z" transform="translate(-46 -40.26)" fill="#ffb206"/>
        </g>
        <g id="Grupo_1065050" data-name="Grupo 1065050" transform="translate(36.786 56.173)">
          <path id="Trazado_779187" data-name="Trazado 779187" d="M30.24,49.852a11.252,11.252,0,0,0,8.5-4.2l.013.013c-.013.138-.013.277-.013.428A11.323,11.323,0,0,0,50.067,57.413v7.548a18.867,18.867,0,0,1-15.713-8.416A2.473,2.473,0,0,0,34.97,54.9V52.381a2.524,2.524,0,0,0-2.516-2.516H30.24Z" transform="translate(-30.24 -45.65)" fill="#e01650"/>
        </g>
        <g id="Grupo_1065051" data-name="Grupo 1065051" transform="translate(45.064 37.742)">
          <path id="Trazado_779188" data-name="Trazado 779188" d="M39.563,42.323a11.255,11.255,0,0,0-2.743-7.385A18.833,18.833,0,0,1,48.369,31v7.548a11.289,11.289,0,0,0-8.806,4.2H39.55C39.563,42.612,39.563,42.461,39.563,42.323Z" transform="translate(-36.82 -31)" fill="#e01650"/>
        </g>
        <g id="Grupo_1065052" data-name="Grupo 1065052" transform="translate(42.774)">
          <path id="Trazado_779189" data-name="Trazado 779189" d="M35,1h7.548V6.032H35Z" transform="translate(-35 -1)" fill="#e01650"/>
        </g>
        <g id="Grupo_1065053" data-name="Grupo 1065053" transform="translate(42.774 10.065)">
          <path id="Trazado_779190" data-name="Trazado 779190" d="M35,9h7.548v5.032H35Z" transform="translate(-35 -9)" fill="#e01650"/>
        </g>
        <g id="Grupo_1065054" data-name="Grupo 1065054" transform="translate(42.774 20.129)">
          <path id="Trazado_779191" data-name="Trazado 779191" d="M35,17h7.548v5.032H35Z" transform="translate(-35 -17)" fill="#e01650"/>
        </g>
        <g id="Grupo_1065055" data-name="Grupo 1065055" transform="translate(0 10.065)">
          <path id="Trazado_779192" data-name="Trazado 779192" d="M33.71,24.1H17.355a3.769,3.769,0,0,1-3.774-3.774H12.323a6.293,6.293,0,0,0-6.29,6.29v2.516H4.774a3.776,3.776,0,0,0-2.164.679A14.232,14.232,0,0,1,15.229,9h9.285A14.232,14.232,0,0,1,37.132,29.808a3.776,3.776,0,0,0-2.164-.679H33.71Z" transform="translate(-1 -9)" fill="#b27946"/>
        </g>
        <g id="Grupo_1065056" data-name="Grupo 1065056" transform="translate(33.968 67.935)">
          <path id="Trazado_779193" data-name="Trazado 779193" d="M33.032,55v6.29a1.262,1.262,0,0,1-1.258,1.258H29.258A1.262,1.262,0,0,1,28,61.29V55Z" transform="translate(-28 -55)" fill="#969faa"/>
        </g>
        <g id="Grupo_1065057" data-name="Grupo 1065057" transform="translate(11.323 50.323)">
          <path id="Trazado_779194" data-name="Trazado 779194" d="M20.065,51.065H30.129a2.524,2.524,0,0,1,2.516,2.516v5.032a2.524,2.524,0,0,1-2.516,2.516H17.548A7.554,7.554,0,0,1,10,53.581V46.032A5.031,5.031,0,0,1,15.032,41c.176,0,.34.013.516.025a5.805,5.805,0,0,1,3.045,1.447,5.064,5.064,0,0,1,1.472,3.56Z" transform="translate(-10 -41)" fill="#ffb206"/>
        </g>
        <g id="Grupo_1065058" data-name="Grupo 1065058" transform="translate(16.871 49.278)">
          <path id="Trazado_779195" data-name="Trazado 779195" d="M28.991,51.279H18.926V46.246a5.064,5.064,0,0,0-1.472-3.56,5.805,5.805,0,0,0-3.045-1.447v-.05c.239.013.491.025.742.025h2.516A12.636,12.636,0,0,0,22.7,40.17,11.329,11.329,0,0,0,34.023,51.279a2.424,2.424,0,0,0,.3-.013v.013a2.516,2.516,0,0,0-2.252,1.4l-.566,1.12a2.524,2.524,0,0,0-2.516-2.516Z" transform="translate(-14.41 -40.17)" fill="#ffb206"/>
        </g>
        <g id="Grupo_1065059" data-name="Grupo 1065059" transform="translate(33.968 60.387)">
          <path id="Trazado_779196" data-name="Trazado 779196" d="M35.548,51.516v2.516a2.473,2.473,0,0,1-.616,1.648,2.532,2.532,0,0,1-1.9.868H28V51.516l.566-1.12A2.516,2.516,0,0,1,30.818,49h2.214A2.524,2.524,0,0,1,35.548,51.516Z" transform="translate(-28 -49)" fill="#f0d0b4"/>
        </g>
        <g id="Grupo_1065060" data-name="Grupo 1065060" transform="translate(32.71 30.194)">
          <path id="Trazado_779197" data-name="Trazado 779197" d="M30.422,25.679a3.777,3.777,0,0,1-2.164,6.869H27V25h1.258a3.776,3.776,0,0,1,2.164.679Z" transform="translate(-27 -25)" fill="#f0d0b4"/>
        </g>
        <g id="Grupo_1065061" data-name="Grupo 1065061" transform="translate(5.032 21.387)">
          <path id="Trazado_779198" data-name="Trazado 779198" d="M32.665,35.009a11.329,11.329,0,0,0-7.536,10.668v.214A12.636,12.636,0,0,1,20.1,46.935H17.581c-.252,0-.5-.013-.742-.025A12.584,12.584,0,0,1,5,34.355V24.29A6.293,6.293,0,0,1,11.29,18h1.258a3.769,3.769,0,0,0,3.774,3.774H32.677V34.355C32.677,34.569,32.677,34.8,32.665,35.009Z" transform="translate(-5 -18)" fill="#f0d0b4"/>
        </g>
        <g id="Grupo_1065062" data-name="Grupo 1065062" transform="translate(0 30.194)">
          <path id="Trazado_779199" data-name="Trazado 779199" d="M6.032,25v7.548H4.774a3.772,3.772,0,0,1-2.667-6.441,4.106,4.106,0,0,1,.5-.428A3.776,3.776,0,0,1,4.774,25Z" transform="translate(-1 -25)" fill="#f0d0b4"/>
        </g>
        <g id="Grupo_1065063" data-name="Grupo 1065063" transform="translate(13.839 40.258)">
          <path id="Trazado_779200" data-name="Trazado 779200" d="M12,33H22.065A5.032,5.032,0,1,1,12,33Z" transform="translate(-12 -33)" fill="#ff826e"/>
        </g>
        <g id="Grupo_1065064" data-name="Grupo 1065064" transform="translate(25.161 37.742)">
          <path id="Trazado_779201" data-name="Trazado 779201" d="M43.645,42.323c0,.138,0,.289-.013.428A11.314,11.314,0,0,1,32.625,53.633a2.425,2.425,0,0,1-.3.013A11.329,11.329,0,0,1,21,42.536v-.214a11.329,11.329,0,0,1,7.536-10.668A11.089,11.089,0,0,1,32.323,31,11.328,11.328,0,0,1,43.645,42.323Z" transform="translate(-21 -31)" fill="#e5e9ea"/>
        </g>
        <g id="Grupo_1065065" data-name="Grupo 1065065" transform="translate(30.194 42.774)">
          <circle id="Elipse_8711" data-name="Elipse 8711" cx="6.5" cy="6.5" r="6.5" transform="translate(-0.452 -0.032)" fill="#77b9ff"/>
        </g>
      </g>
      <g id="Grupo_1065067" data-name="Grupo 1065067">
        <path id="Trazado_779202" data-name="Trazado 779202" d="M23.581,33.258V32H11v1.258a6.29,6.29,0,0,0,12.581,0Zm-9.849,1.258h7.117a3.774,3.774,0,0,1-7.117,0Z" transform="translate(2.839 8.258)"/>
        <path id="Trazado_779203" data-name="Trazado 779203" d="M14.548,29.032h2.516A5.032,5.032,0,1,0,7,29.032H9.516a2.516,2.516,0,0,1,5.032,0Z" transform="translate(1.806 6.194)"/>
        <path id="Trazado_779204" data-name="Trazado 779204" d="M22.032,26.516a2.519,2.519,0,0,1,2.516,2.516h2.516a5.032,5.032,0,1,0-10.065,0h2.516A2.519,2.519,0,0,1,22.032,26.516Z" transform="translate(4.387 6.194)"/>
        <path id="Trazado_779205" data-name="Trazado 779205" d="M24,41.548A7.548,7.548,0,1,0,31.548,34,7.556,7.556,0,0,0,24,41.548Zm12.581,0a5.032,5.032,0,1,1-5.032-5.032A5.037,5.037,0,0,1,36.581,41.548Z" transform="translate(6.194 8.774)"/>
        <path id="Trazado_779206" data-name="Trazado 779206" d="M57.871,35.677a19.91,19.91,0,0,0-11.392,3.549,12.546,12.546,0,0,0-6.995-3.414,4.95,4.95,0,0,0-.58-6.059A15.433,15.433,0,0,0,24.768,8H15.492A15.434,15.434,0,0,0,1.352,29.752a5.016,5.016,0,0,0,3.68,8.442H5.1a13.862,13.862,0,0,0,8.52,11.538,6.253,6.253,0,0,0-2.292,4.815V62.1A8.816,8.816,0,0,0,20.129,70.9H32.71a3.732,3.732,0,0,0,1.258-.231v2.748a2.519,2.519,0,0,0,2.516,2.516H39a2.519,2.519,0,0,0,2.516-2.516V68.156a3.692,3.692,0,0,0,.35-.141A20.129,20.129,0,1,0,57.871,35.677Zm-35.3,15.036a13.641,13.641,0,0,0,2.759-.521,12.569,12.569,0,0,0,4.9,8.128H23.9V54.546a6.222,6.222,0,0,0-1.335-3.832Zm13.917,11.68.43-.861a1.251,1.251,0,0,1,1.125-.694h2.219A1.26,1.26,0,0,1,41.516,62.1v2.516a1.26,1.26,0,0,1-1.258,1.258H36.484Zm6.606-2.765a12.562,12.562,0,0,0,2.424-1.5,12.554,12.554,0,0,0,2.621,5.632l-3.575,3.575c-.315-.364-.6-.761-.882-1.152a3.732,3.732,0,0,0,.355-1.574V62.1a3.744,3.744,0,0,0-.942-2.468ZM65.827,46.072a12.657,12.657,0,0,0-2.005-1.345l1.926-4.651a17.634,17.634,0,0,1,3.64,2.436ZM61.5,43.764a12.505,12.505,0,0,0-2.369-.474V38.258a17.484,17.484,0,0,1,4.3.848ZM56.613,43.3a12.506,12.506,0,0,0-6.518,2.617,12.517,12.517,0,0,0-1.983-4.763,17.375,17.375,0,0,1,8.5-2.906Zm-6.7,22.245a12.521,12.521,0,0,0,6.7,2.782v5.018A17.537,17.537,0,0,1,46.35,69.107Zm7.956.33A10.076,10.076,0,0,1,47.806,55.806v-.033a12.5,12.5,0,0,0,2.467-6.548,10.059,10.059,0,1,1,7.6,16.645ZM67.606,47.85l3.56-3.56A17.65,17.65,0,0,1,73.6,47.93l-4.651,1.926A12.516,12.516,0,0,0,67.606,47.85Zm-19.8.408A10.065,10.065,0,1,1,37.742,38.194,10.076,10.076,0,0,1,47.806,48.258Zm-10.065-15.1a2.519,2.519,0,0,1-2.516,2.516V30.645A2.519,2.519,0,0,1,37.742,33.161Zm-35.226,0a2.519,2.519,0,0,1,2.516-2.516v5.032A2.519,2.519,0,0,1,2.516,33.161Zm2.516-6.29v1.258a4.946,4.946,0,0,0-1.536.265A12.939,12.939,0,0,1,15.491,10.516h9.276A12.935,12.935,0,0,1,36.761,28.393a4.968,4.968,0,0,0-1.535-.264V24.355a8.656,8.656,0,0,0-7.257-8.565l-1.344-.224-.414,2.482,1.344.224A6.143,6.143,0,0,1,32.581,23.1H17.613a2.516,2.516,0,1,1,0-5.032h2.516V15.548H17.613a5.028,5.028,0,0,0-4.854,3.774h-.179a7.557,7.557,0,0,0-7.548,7.548ZM7.548,36.935V26.871a5.039,5.039,0,0,1,5.032-5.032h.179a5.028,5.028,0,0,0,4.854,3.774h15.1V36.735A12.592,12.592,0,0,0,25.2,47.589a11.281,11.281,0,0,1-3.808.669H18.871A11.336,11.336,0,0,1,7.548,36.935ZM32.71,68.387H20.129a6.3,6.3,0,0,1-6.29-6.29v-7.55a3.774,3.774,0,0,1,7.548,0V59.2l-2.3,3.457,2.093,1.4,2.14-3.213H32.71A1.26,1.26,0,0,1,33.968,62.1v5.032A1.26,1.26,0,0,1,32.71,68.387Zm3.774,5.032V68.387H39v5.032Zm22.645-.064V68.323A12.566,12.566,0,0,0,69.913,52.179l4.659-1.93A17.561,17.561,0,0,1,59.129,73.355Z" transform="translate(0 2.065)"/>
        <path id="Trazado_779207" data-name="Trazado 779207" d="M44.065,0H34V7.548H44.065ZM41.548,5.032H36.516V2.516h5.032Z" transform="translate(8.774)"/>
        <path id="Trazado_779208" data-name="Trazado 779208" d="M44,0H66.645V2.516H44Z" transform="translate(11.355)"/>
        <path id="Trazado_779209" data-name="Trazado 779209" d="M44,4H66.645V6.516H44Z" transform="translate(11.355 1.032)"/>
        <path id="Trazado_779210" data-name="Trazado 779210" d="M44.065,8H34v7.548H44.065Zm-2.516,5.032H36.516V10.516h5.032Z" transform="translate(8.774 2.065)"/>
        <path id="Trazado_779211" data-name="Trazado 779211" d="M44,8H66.645v2.516H44Z" transform="translate(11.355 2.065)"/>
        <path id="Trazado_779212" data-name="Trazado 779212" d="M44,12H66.645v2.516H44Z" transform="translate(11.355 3.097)"/>
        <path id="Trazado_779213" data-name="Trazado 779213" d="M44.065,16H34v7.548H44.065Zm-2.516,5.032H36.516V18.516h5.032Z" transform="translate(8.774 4.129)"/>
        <path id="Trazado_779214" data-name="Trazado 779214" d="M44,16H66.645v2.516H44Z" transform="translate(11.355 4.129)"/>
        <path id="Trazado_779215" data-name="Trazado 779215" d="M44,20H66.645v2.516H44Z" transform="translate(11.355 5.161)"/>
      </g>
    </g>
  </g>
</svg>
