<svg xmlns="http://www.w3.org/2000/svg" width="80.263" height="85.625" viewBox="0 0 80.263 85.625">
  <g id="Grupo_1065071" data-name="Grupo 1065071" transform="translate(-16.032 0)">
    <path id="Trazado_779216" data-name="Trazado 779216" d="M61.243,9.537,24.29,27.377a1.341,1.341,0,0,0-.758,1.207v43.9a1.341,1.341,0,0,0,.758,1.207l36.954,17.84a2.681,2.681,0,0,0,2.331,0l36.954-17.84a1.341,1.341,0,0,0,.758-1.207v-43.9a1.341,1.341,0,0,0-.758-1.207L63.575,9.537A2.681,2.681,0,0,0,61.243,9.537Z" transform="translate(-6.246 -7.72)" fill="#12263f"/>
    <path id="Trazado_779217" data-name="Trazado 779217" d="M23.755,120.368a1.335,1.335,0,0,0-.223.734V165a1.341,1.341,0,0,0,.758,1.207l36.954,17.84a2.68,2.68,0,0,0,1.166.267V139.029Z" transform="translate(-6.246 -100.238)" fill="#031224"/>
    <path id="Trazado_779218" data-name="Trazado 779218" d="M294.654,120.368a1.335,1.335,0,0,1,.223.734V165a1.341,1.341,0,0,1-.758,1.207l-36.954,17.84a2.681,2.681,0,0,1-1.166.267V139.029Z" transform="translate(-199.837 -100.238)" fill="#12263f"/>
    <path id="Trazado_779219" data-name="Trazado 779219" d="M164.733,64.739,125.943,46l-10.225,4.956,38.877,18.768Z" transform="translate(-83.015 -38.307)" fill="#e8e8e8"/>
    <path id="Trazado_779220" data-name="Trazado 779220" d="M348.185,163.038v14.539a.67.67,0,0,0,.962.6l8.419-4.064a1.34,1.34,0,0,0,.758-1.207V158.052Z" transform="translate(-276.605 -131.62)" fill="#e8e8e8"/>
    <path id="Trazado_779221" data-name="Trazado 779221" d="M95.586,18.893,56.709.125a1.255,1.255,0,0,0-1.091,0L16.741,18.893a1.254,1.254,0,0,0-.709,1.13V65.6a1.254,1.254,0,0,0,.709,1.13L55.618,85.5a1.254,1.254,0,0,0,1.091,0L95.586,66.732a1.254,1.254,0,0,0,.709-1.13V20.023A1.255,1.255,0,0,0,95.586,18.893ZM56.163,2.647,92.155,20.023,81.722,25.06a1.244,1.244,0,0,0-.212-.134L45.762,7.669ZM42.929,9.087l35.94,17.35L71.508,29.99,35.583,12.647Zm29.9,23.049,6.876-3.319V41.952l-6.876,3.319ZM57.418,82.373V39.578l8.675-4.188A1.254,1.254,0,0,0,65,33.131L56.163,37.4l-3.478-1.679a1.254,1.254,0,1,0-1.091,2.259l3.314,1.6V82.372L18.541,64.815V22.021l27.694,13.37a1.254,1.254,0,0,0,1.091-2.259L20.171,20.023l12.46-6.015L70.308,32.2l.017.022V47.27a1.254,1.254,0,0,0,1.8,1.13l9.384-4.53a1.254,1.254,0,0,0,.709-1.13V27.606l11.568-5.584V64.816Z" transform="translate(0)"/>
    <path id="Trazado_779222" data-name="Trazado 779222" d="M55.553,344.142l-5.705-2.754a1.254,1.254,0,0,0-1.091,2.259l5.705,2.754a1.254,1.254,0,0,0,1.091-2.259Z" transform="translate(-26.662 -284.191)"/>
    <path id="Trazado_779223" data-name="Trazado 779223" d="M60.844,311.1,49.9,305.815a1.254,1.254,0,0,0-1.091,2.259l10.948,5.285a1.254,1.254,0,0,0,1.091-2.259Z" transform="translate(-26.702 -254.567)"/>
  </g>
</svg>
