<svg xmlns="http://www.w3.org/2000/svg" width="886.45" height="145.006" viewBox="0 0 886.45 145.006">
  <g id="Grupo_1065120" data-name="Grupo 1065120" transform="translate(-357 -581.327)">
    <path id="Trazado_778919" data-name="Trazado 778919" d="M0,0H164.748l11.169,51.949-11.169,50.384H0L11.169,53.117Z" transform="translate(357 624)" fill="#500c75"/>
    <path id="Trazado_778959" data-name="Trazado 778959" d="M0,0H164.748l11.169,51.949-11.169,50.384H0L11.169,53.117Z" transform="translate(534.633 624)" fill="#ffb206"/>
    <path id="Trazado_778972" data-name="Trazado 778972" d="M0,0H164.748l11.169,51.949-11.169,50.384H0L11.169,53.117Z" transform="translate(712.267 624)" fill="#8f52f5"/>
    <path id="Trazado_779008" data-name="Trazado 779008" d="M0,0H164.748l11.169,51.949-11.169,50.384H0L11.169,53.117Z" transform="translate(889.9 624)" fill="#500c75"/>
    <path id="Trazado_779024" data-name="Trazado 779024" d="M0,0H164.748l11.169,51.949-11.169,50.384H0L11.169,53.117Z" transform="translate(1067.533 624)" fill="#ffb206"/>
    <path id="Trazado_779458" data-name="Trazado 779458" d="M7.93,3.625l3.719,9.281,3.719-9.281h1.945V15h-1.5V10.57l.141-4.781L12.219,15H11.07L7.344,5.813l.148,4.758V15h-1.5V3.625ZM24.953,15a3.036,3.036,0,0,1-.2-.891,3.225,3.225,0,0,1-2.406,1.047,2.984,2.984,0,0,1-2.051-.707,2.287,2.287,0,0,1-.8-1.793,2.39,2.39,0,0,1,1-2.051,4.733,4.733,0,0,1,2.824-.73h1.406V9.211A1.623,1.623,0,0,0,24.273,8a1.821,1.821,0,0,0-1.336-.449,2.108,2.108,0,0,0-1.3.391,1.151,1.151,0,0,0-.523.945H19.664a2,2,0,0,1,.449-1.223,3.066,3.066,0,0,1,1.219-.934,4.1,4.1,0,0,1,1.691-.344,3.342,3.342,0,0,1,2.289.73,2.635,2.635,0,0,1,.859,2.012v3.891a4.757,4.757,0,0,0,.3,1.852V15Zm-2.4-1.1a2.54,2.54,0,0,0,1.289-.352,2.127,2.127,0,0,0,.883-.914V10.9H23.594q-2.656,0-2.656,1.555a1.316,1.316,0,0,0,.453,1.063A1.742,1.742,0,0,0,22.555,13.9Zm9.969-6.055a4.331,4.331,0,0,0-.711-.055A1.9,1.9,0,0,0,29.883,9v6H28.438V6.547h1.406l.023.977a2.251,2.251,0,0,1,2.016-1.133,1.477,1.477,0,0,1,.641.109Zm4.57,6.133a2.082,2.082,0,0,0,1.352-.469,1.649,1.649,0,0,0,.641-1.172h1.367a2.621,2.621,0,0,1-.5,1.383,3.293,3.293,0,0,1-1.23,1.047,3.55,3.55,0,0,1-1.629.391A3.482,3.482,0,0,1,34.348,14a4.59,4.59,0,0,1-1.02-3.152v-.242a5.089,5.089,0,0,1,.453-2.2,3.451,3.451,0,0,1,1.3-1.492,3.7,3.7,0,0,1,2-.531,3.39,3.39,0,0,1,2.363.852,3.043,3.043,0,0,1,1,2.211H39.086a1.992,1.992,0,0,0-.621-1.348,1.932,1.932,0,0,0-1.379-.527,2.023,2.023,0,0,0-1.707.793,3.724,3.724,0,0,0-.605,2.293v.273a3.65,3.65,0,0,0,.6,2.25A2.033,2.033,0,0,0,37.094,13.977ZM47.3,15a3.036,3.036,0,0,1-.2-.891,3.225,3.225,0,0,1-2.406,1.047,2.984,2.984,0,0,1-2.051-.707,2.287,2.287,0,0,1-.8-1.793,2.39,2.39,0,0,1,1-2.051,4.733,4.733,0,0,1,2.824-.73H47.07V9.211A1.623,1.623,0,0,0,46.617,8a1.821,1.821,0,0,0-1.336-.449,2.107,2.107,0,0,0-1.3.391,1.151,1.151,0,0,0-.523.945H42.008a2,2,0,0,1,.449-1.223,3.066,3.066,0,0,1,1.219-.934,4.1,4.1,0,0,1,1.691-.344,3.342,3.342,0,0,1,2.289.73,2.635,2.635,0,0,1,.859,2.012v3.891a4.757,4.757,0,0,0,.3,1.852V15Zm-2.4-1.1a2.54,2.54,0,0,0,1.289-.352,2.127,2.127,0,0,0,.883-.914V10.9H45.938q-2.656,0-2.656,1.555a1.316,1.316,0,0,0,.453,1.063A1.742,1.742,0,0,0,44.9,13.9Zm9.969-6.055a4.331,4.331,0,0,0-.711-.055A1.9,1.9,0,0,0,52.227,9v6H50.781V6.547h1.406l.023.977a2.251,2.251,0,0,1,2.016-1.133,1.477,1.477,0,0,1,.641.109ZM59.773,10.7a4.993,4.993,0,0,1,.488-2.234A3.643,3.643,0,0,1,61.621,6.93a3.7,3.7,0,0,1,1.988-.539,3.565,3.565,0,0,1,2.793,1.2,4.6,4.6,0,0,1,1.066,3.18v.1A5.036,5.036,0,0,1,67,13.082a3.589,3.589,0,0,1-1.352,1.527,3.743,3.743,0,0,1-2.02.547,3.556,3.556,0,0,1-2.785-1.2A4.575,4.575,0,0,1,59.773,10.8Zm1.453.172a3.616,3.616,0,0,0,.652,2.258,2.211,2.211,0,0,0,3.5-.012,3.955,3.955,0,0,0,.648-2.418,3.61,3.61,0,0,0-.66-2.254,2.1,2.1,0,0,0-1.754-.863,2.075,2.075,0,0,0-1.727.852A3.925,3.925,0,0,0,61.227,10.867Zm15.211,0a5.026,5.026,0,0,1-.891,3.113,2.846,2.846,0,0,1-2.391,1.176,2.947,2.947,0,0,1-2.477-1.133l-.07.977H69.281V3h1.445V7.477a2.93,2.93,0,0,1,2.414-1.086,2.863,2.863,0,0,1,2.418,1.164,5.177,5.177,0,0,1,.879,3.188ZM74.992,10.7a3.906,3.906,0,0,0-.57-2.281,1.888,1.888,0,0,0-1.641-.8,2.122,2.122,0,0,0-2.055,1.328V12.6A2.181,2.181,0,0,0,72.8,13.93a1.878,1.878,0,0,0,1.617-.8A4.153,4.153,0,0,0,74.992,10.7ZM79.75,6.547v9.43q0,2.438-2.211,2.438a2.7,2.7,0,0,1-.883-.14V17.125a2.794,2.794,0,0,0,.656.063.982.982,0,0,0,.738-.262,1.3,1.3,0,0,0,.254-.911V6.547ZM78.156,4.3a.867.867,0,0,1,.215-.59A.79.79,0,0,1,79,3.469a.819.819,0,0,1,.641.242.854.854,0,0,1,.219.594.826.826,0,0,1-.219.586A.834.834,0,0,1,79,5.125a.808.808,0,0,1-.633-.234A.843.843,0,0,1,78.156,4.3Zm7.43,10.852a3.693,3.693,0,0,1-2.8-1.129,4.19,4.19,0,0,1-1.078-3.02v-.266a5.073,5.073,0,0,1,.48-2.246,3.748,3.748,0,0,1,1.344-1.547,3.378,3.378,0,0,1,1.871-.559,3.166,3.166,0,0,1,2.563,1.086,4.7,4.7,0,0,1,.914,3.109v.6H83.156a3,3,0,0,0,.73,2.02,2.3,2.3,0,0,0,1.777.77,2.517,2.517,0,0,0,1.3-.312,3.259,3.259,0,0,0,.93-.828l.883.688A3.55,3.55,0,0,1,85.586,15.156Zm-.18-7.578a1.928,1.928,0,0,0-1.469.637A3.1,3.1,0,0,0,83.2,10h4.234V9.891a2.753,2.753,0,0,0-.594-1.707A1.815,1.815,0,0,0,85.406,7.578ZM92.516,4.5V6.547h1.578V7.664H92.516v5.249a1.173,1.173,0,0,0,.211.763.888.888,0,0,0,.719.254,3.5,3.5,0,0,0,.688-.094V15a4.215,4.215,0,0,1-1.109.155,1.8,1.8,0,0,1-1.461-.586,2.517,2.517,0,0,1-.492-1.664V7.664H89.531V6.547H91.07V4.5ZM97.352,15H95.906V6.547h1.445ZM95.789,4.3A.863.863,0,0,1,96,3.711a.807.807,0,0,1,.637-.242.819.819,0,0,1,.641.242A.854.854,0,0,1,97.5,4.3a.826.826,0,0,1-.219.586.834.834,0,0,1-.641.234A.821.821,0,0,1,96,4.891.834.834,0,0,1,95.789,4.3Zm6.664,8.734,2.094-6.492h1.477L102.992,15h-1.1L98.828,6.547H100.3Zm4.461-2.344a4.993,4.993,0,0,1,.488-2.234,3.643,3.643,0,0,1,1.359-1.531,3.7,3.7,0,0,1,1.988-.539,3.565,3.565,0,0,1,2.793,1.2,4.6,4.6,0,0,1,1.066,3.18v.1a5.036,5.036,0,0,1-.473,2.215,3.589,3.589,0,0,1-1.352,1.527,3.743,3.743,0,0,1-2.02.547,3.556,3.556,0,0,1-2.785-1.2,4.575,4.575,0,0,1-1.066-3.164Zm1.453.172a3.616,3.616,0,0,0,.652,2.258,2.211,2.211,0,0,0,3.5-.012,3.955,3.955,0,0,0,.648-2.418,3.61,3.61,0,0,0-.66-2.254,2.1,2.1,0,0,0-1.754-.863,2.075,2.075,0,0,0-1.727.852A3.925,3.925,0,0,0,108.367,10.867Z" transform="translate(391 666)" fill="#fff"/>
    <path id="Trazado_779459" data-name="Trazado 779459" d="M35.051,10.547V15h-1.5V3.625h4.2a4.215,4.215,0,0,1,2.926.953A3.231,3.231,0,0,1,41.73,7.1,3.189,3.189,0,0,1,40.7,9.652a4.4,4.4,0,0,1-2.965.895Zm0-1.227h2.7a2.7,2.7,0,0,0,1.844-.567,2.075,2.075,0,0,0,.641-1.64,2.143,2.143,0,0,0-.641-1.628,2.525,2.525,0,0,0-1.758-.634H35.051ZM44.988,15H43.543V3h1.445Zm7.531,0a3.036,3.036,0,0,1-.2-.891,3.225,3.225,0,0,1-2.406,1.047,2.984,2.984,0,0,1-2.051-.707,2.287,2.287,0,0,1-.8-1.793,2.39,2.39,0,0,1,1-2.051,4.733,4.733,0,0,1,2.824-.73h1.406V9.211A1.623,1.623,0,0,0,51.84,8,1.821,1.821,0,0,0,50.5,7.555a2.107,2.107,0,0,0-1.3.391,1.151,1.151,0,0,0-.523.945H47.23a2,2,0,0,1,.449-1.223A3.066,3.066,0,0,1,48.9,6.734a4.1,4.1,0,0,1,1.691-.344,3.342,3.342,0,0,1,2.289.73,2.635,2.635,0,0,1,.859,2.012v3.891a4.757,4.757,0,0,0,.3,1.852V15Zm-2.4-1.1a2.54,2.54,0,0,0,1.289-.352,2.127,2.127,0,0,0,.883-.914V10.9H51.16q-2.656,0-2.656,1.555a1.316,1.316,0,0,0,.453,1.063A1.742,1.742,0,0,0,50.121,13.9Zm7.25-7.352.047,1.063a3.08,3.08,0,0,1,2.531-1.219q2.68,0,2.7,3.023V15H61.207V9.406a1.946,1.946,0,0,0-.418-1.352,1.675,1.675,0,0,0-1.277-.437,2.086,2.086,0,0,0-1.234.375,2.546,2.546,0,0,0-.828.984V15H56V6.547ZM66.4,15H64.957V6.547H66.4ZM64.84,4.3a.863.863,0,0,1,.215-.594.807.807,0,0,1,.637-.242.819.819,0,0,1,.641.242.854.854,0,0,1,.219.594.826.826,0,0,1-.219.586.834.834,0,0,1-.641.234.821.821,0,0,1-.637-.234A.834.834,0,0,1,64.84,4.3ZM69.2,15V7.664H67.863V6.547H69.2V5.828a2.937,2.937,0,0,1,.809-2.2,3.136,3.136,0,0,1,2.285-.789,6.881,6.881,0,0,1,2.211.477l-.242,1.219A5.008,5.008,0,0,0,72.4,4.141a1.819,1.819,0,0,0-1.34.418,1.723,1.723,0,0,0-.41,1.254v.734h1.727V7.664H70.652V15Zm6.023,0H73.77V6.547h1.453Zm5.742-1.023a2.082,2.082,0,0,0,1.352-.469,1.649,1.649,0,0,0,.641-1.172h1.367a2.621,2.621,0,0,1-.5,1.383,3.293,3.293,0,0,1-1.23,1.047,3.55,3.55,0,0,1-1.629.391A3.482,3.482,0,0,1,78.219,14a4.59,4.59,0,0,1-1.02-3.152v-.242a5.089,5.089,0,0,1,.453-2.2,3.451,3.451,0,0,1,1.3-1.492,3.7,3.7,0,0,1,2-.531,3.39,3.39,0,0,1,2.363.852,3.043,3.043,0,0,1,1,2.211H82.957a1.992,1.992,0,0,0-.621-1.348,1.932,1.932,0,0,0-1.379-.527,2.023,2.023,0,0,0-1.707.793,3.724,3.724,0,0,0-.605,2.293v.273a3.65,3.65,0,0,0,.6,2.25A2.033,2.033,0,0,0,80.965,13.977ZM91.168,15a3.036,3.036,0,0,1-.2-.891,3.225,3.225,0,0,1-2.406,1.047,2.984,2.984,0,0,1-2.051-.707,2.288,2.288,0,0,1-.8-1.793,2.39,2.39,0,0,1,1-2.051,4.733,4.733,0,0,1,2.824-.73h1.406V9.211A1.623,1.623,0,0,0,90.488,8a1.821,1.821,0,0,0-1.336-.449,2.108,2.108,0,0,0-1.3.391,1.151,1.151,0,0,0-.523.945H85.879a2,2,0,0,1,.449-1.223,3.066,3.066,0,0,1,1.219-.934,4.1,4.1,0,0,1,1.691-.344,3.342,3.342,0,0,1,2.289.73,2.635,2.635,0,0,1,.859,2.012v3.891a4.757,4.757,0,0,0,.3,1.852V15Zm-2.4-1.1a2.54,2.54,0,0,0,1.289-.352,2.127,2.127,0,0,0,.883-.914V10.9H89.809q-2.656,0-2.656,1.555a1.316,1.316,0,0,0,.453,1.063A1.742,1.742,0,0,0,88.77,13.9Zm9.273.078a2.082,2.082,0,0,0,1.352-.469,1.649,1.649,0,0,0,.641-1.172H101.4a2.621,2.621,0,0,1-.5,1.383,3.293,3.293,0,0,1-1.23,1.047,3.55,3.55,0,0,1-1.629.391A3.482,3.482,0,0,1,95.3,14a4.59,4.59,0,0,1-1.02-3.152v-.242a5.089,5.089,0,0,1,.453-2.2,3.451,3.451,0,0,1,1.3-1.492,3.7,3.7,0,0,1,2-.531,3.39,3.39,0,0,1,2.363.852,3.043,3.043,0,0,1,1,2.211h-1.367a1.992,1.992,0,0,0-.621-1.348,1.932,1.932,0,0,0-1.379-.527,2.023,2.023,0,0,0-1.707.793,3.724,3.724,0,0,0-.605,2.293v.273a3.65,3.65,0,0,0,.6,2.25A2.033,2.033,0,0,0,98.043,13.977ZM104.6,15h-1.445V6.547H104.6ZM103.035,4.3a.863.863,0,0,1,.215-.594.807.807,0,0,1,.637-.242.819.819,0,0,1,.641.242.854.854,0,0,1,.219.594.826.826,0,0,1-.219.586.834.834,0,0,1-.641.234.821.821,0,0,1-.637-.234A.834.834,0,0,1,103.035,4.3Zm3.492,6.391a4.993,4.993,0,0,1,.488-2.234,3.643,3.643,0,0,1,1.359-1.531,3.7,3.7,0,0,1,1.988-.539,3.565,3.565,0,0,1,2.793,1.2,4.6,4.6,0,0,1,1.066,3.18v.1a5.036,5.036,0,0,1-.473,2.215,3.589,3.589,0,0,1-1.352,1.527,3.743,3.743,0,0,1-2.02.547,3.556,3.556,0,0,1-2.785-1.2,4.575,4.575,0,0,1-1.066-3.164Zm1.453.172a3.616,3.616,0,0,0,.652,2.258,2.211,2.211,0,0,0,3.5-.012,3.955,3.955,0,0,0,.648-2.418,3.61,3.61,0,0,0-.66-2.254,2.1,2.1,0,0,0-1.754-.863,2.075,2.075,0,0,0-1.727.852A3.925,3.925,0,0,0,107.98,10.867Zm3.039-7.852h1.75l-2.094,2.3-1.164,0ZM117.4,6.547l.047,1.063a3.08,3.08,0,0,1,2.531-1.219q2.68,0,2.7,3.023V15h-1.445V9.406a1.946,1.946,0,0,0-.418-1.352,1.675,1.675,0,0,0-1.277-.437,2.086,2.086,0,0,0-1.234.375,2.546,2.546,0,0,0-.828.984V15h-1.445V6.547Z" transform="translate(549 666)" fill="#12263f"/>
    <path id="Trazado_779460" data-name="Trazado 779460" d="M40.98,9.68a7.037,7.037,0,0,1-.562,2.918,4.261,4.261,0,0,1-1.594,1.9,4.4,4.4,0,0,1-6.4-1.887,6.752,6.752,0,0,1-.59-2.832v-.82a6.953,6.953,0,0,1,.57-2.9,4.218,4.218,0,0,1,4-2.594,4.41,4.41,0,0,1,2.41.66,4.253,4.253,0,0,1,1.605,1.914,7.071,7.071,0,0,1,.563,2.918Zm-1.492-.734a5.1,5.1,0,0,0-.812-3.105A2.68,2.68,0,0,0,36.4,4.758,2.651,2.651,0,0,0,34.164,5.84a5,5,0,0,0-.84,3V9.68a5.107,5.107,0,0,0,.824,3.082,2.888,2.888,0,0,0,4.52.063,5.079,5.079,0,0,0,.82-3.035ZM50.16,10.867a5.026,5.026,0,0,1-.891,3.113,2.846,2.846,0,0,1-2.391,1.176A2.947,2.947,0,0,1,44.4,14.023l-.07.977H43V3h1.445V7.477a2.93,2.93,0,0,1,2.414-1.086,2.863,2.863,0,0,1,2.418,1.164,5.177,5.177,0,0,1,.879,3.188ZM48.715,10.7a3.906,3.906,0,0,0-.57-2.281,1.888,1.888,0,0,0-1.641-.8,2.122,2.122,0,0,0-2.055,1.328V12.6a2.181,2.181,0,0,0,2.07,1.328,1.878,1.878,0,0,0,1.617-.8A4.153,4.153,0,0,0,48.715,10.7Zm5.227-6.2V6.547H55.52V7.664H53.941v5.249a1.173,1.173,0,0,0,.211.763.888.888,0,0,0,.719.254,3.5,3.5,0,0,0,.688-.094V15a4.215,4.215,0,0,1-1.109.155,1.8,1.8,0,0,1-1.461-.586,2.517,2.517,0,0,1-.492-1.664V7.664H50.957V6.547H52.5V4.5Zm6.773,10.656a3.693,3.693,0,0,1-2.8-1.129,4.19,4.19,0,0,1-1.078-3.02v-.266A5.073,5.073,0,0,1,57.32,8.5a3.748,3.748,0,0,1,1.344-1.547,3.378,3.378,0,0,1,1.871-.559A3.166,3.166,0,0,1,63.1,7.477a4.7,4.7,0,0,1,.914,3.109v.6H58.285a3,3,0,0,0,.73,2.02,2.3,2.3,0,0,0,1.777.77,2.517,2.517,0,0,0,1.3-.312,3.259,3.259,0,0,0,.93-.828l.883.688A3.55,3.55,0,0,1,60.715,15.156Zm-.18-7.578a1.928,1.928,0,0,0-1.469.637A3.1,3.1,0,0,0,58.332,10h4.234V9.891a2.753,2.753,0,0,0-.594-1.707A1.815,1.815,0,0,0,60.535,7.578Zm6.516-1.031L67.1,7.609a3.08,3.08,0,0,1,2.531-1.219q2.68,0,2.7,3.023V15H70.887V9.406a1.946,1.946,0,0,0-.418-1.352,1.675,1.675,0,0,0-1.277-.437,2.086,2.086,0,0,0-1.234.375,2.546,2.546,0,0,0-.828.984V15H65.684V6.547ZM77.9,13.977a2.082,2.082,0,0,0,1.352-.469,1.649,1.649,0,0,0,.641-1.172h1.367a2.621,2.621,0,0,1-.5,1.383,3.293,3.293,0,0,1-1.23,1.047,3.55,3.55,0,0,1-1.629.391A3.482,3.482,0,0,1,75.156,14a4.59,4.59,0,0,1-1.02-3.152v-.242a5.089,5.089,0,0,1,.453-2.2,3.451,3.451,0,0,1,1.3-1.492,3.7,3.7,0,0,1,2-.531,3.39,3.39,0,0,1,2.363.852,3.043,3.043,0,0,1,1,2.211H79.895a1.992,1.992,0,0,0-.621-1.348,1.932,1.932,0,0,0-1.379-.527,2.023,2.023,0,0,0-1.707.793,3.724,3.724,0,0,0-.605,2.293v.273a3.65,3.65,0,0,0,.6,2.25A2.033,2.033,0,0,0,77.9,13.977ZM84.457,15H83.012V6.547h1.445ZM82.895,4.3a.863.863,0,0,1,.215-.594.807.807,0,0,1,.637-.242.819.819,0,0,1,.641.242.854.854,0,0,1,.219.594.826.826,0,0,1-.219.586.834.834,0,0,1-.641.234.821.821,0,0,1-.637-.234A.834.834,0,0,1,82.895,4.3ZM86.387,10.7a4.993,4.993,0,0,1,.488-2.234A3.643,3.643,0,0,1,88.234,6.93a3.7,3.7,0,0,1,1.988-.539,3.565,3.565,0,0,1,2.793,1.2,4.6,4.6,0,0,1,1.066,3.18v.1a5.036,5.036,0,0,1-.473,2.215,3.589,3.589,0,0,1-1.352,1.527,3.743,3.743,0,0,1-2.02.547,3.556,3.556,0,0,1-2.785-1.2A4.575,4.575,0,0,1,86.387,10.8Zm1.453.172a3.616,3.616,0,0,0,.652,2.258,2.211,2.211,0,0,0,3.5-.012,3.955,3.955,0,0,0,.648-2.418,3.61,3.61,0,0,0-.66-2.254,2.1,2.1,0,0,0-1.754-.863A2.075,2.075,0,0,0,88.5,8.43,3.925,3.925,0,0,0,87.84,10.867Zm3.039-7.852h1.75l-2.094,2.3-1.164,0Zm6.383,3.531.047,1.063A3.08,3.08,0,0,1,99.84,6.391q2.68,0,2.7,3.023V15H101.1V9.406a1.946,1.946,0,0,0-.418-1.352A1.675,1.675,0,0,0,99.4,7.617a2.086,2.086,0,0,0-1.234.375,2.546,2.546,0,0,0-.828.984V15H95.895V6.547Zm11.07,4.156a4.952,4.952,0,0,1,.922-3.129,3.137,3.137,0,0,1,4.766-.168V3h1.445V15h-1.328l-.07-.906a2.943,2.943,0,0,1-2.414,1.063,2.887,2.887,0,0,1-2.395-1.2,5.008,5.008,0,0,1-.926-3.141Zm1.445.164a3.749,3.749,0,0,0,.594,2.25,1.92,1.92,0,0,0,1.641.813A2.108,2.108,0,0,0,114.02,12.7V8.813a2.125,2.125,0,0,0-1.992-1.2,1.929,1.929,0,0,0-1.656.82A4.128,4.128,0,0,0,109.777,10.867Zm11.438,4.289a3.693,3.693,0,0,1-2.8-1.129,4.19,4.19,0,0,1-1.078-3.02v-.266a5.073,5.073,0,0,1,.48-2.246,3.748,3.748,0,0,1,1.344-1.547,3.378,3.378,0,0,1,1.871-.559A3.166,3.166,0,0,1,123.6,7.477a4.7,4.7,0,0,1,.914,3.109v.6h-5.727a3,3,0,0,0,.73,2.02,2.3,2.3,0,0,0,1.777.77,2.517,2.517,0,0,0,1.3-.312,3.259,3.259,0,0,0,.93-.828l.883.688A3.55,3.55,0,0,1,121.215,15.156Zm-.18-7.578a1.928,1.928,0,0,0-1.469.637A3.1,3.1,0,0,0,118.832,10h4.234V9.891a2.753,2.753,0,0,0-.594-1.707A1.815,1.815,0,0,0,121.035,7.578ZM37.793,39H36.348V30.547h1.445ZM36.23,28.3a.863.863,0,0,1,.215-.594.807.807,0,0,1,.637-.242.819.819,0,0,1,.641.242.854.854,0,0,1,.219.594.826.826,0,0,1-.219.586.834.834,0,0,1-.641.234.821.821,0,0,1-.637-.234A.834.834,0,0,1,36.23,28.3Zm5.242,2.242.047,1.063a3.08,3.08,0,0,1,2.531-1.219q2.68,0,2.7,3.023V39H45.309V33.406a1.946,1.946,0,0,0-.418-1.352,1.675,1.675,0,0,0-1.277-.437,2.086,2.086,0,0,0-1.234.375,2.546,2.546,0,0,0-.828.984V39H40.105V30.547ZM49.645,39V31.664H48.309V30.547h1.336V29.68a2.878,2.878,0,0,1,.727-2.1,2.745,2.745,0,0,1,2.055-.742,3.816,3.816,0,0,1,.992.132l-.078,1.165a4.151,4.151,0,0,0-.781-.07,1.41,1.41,0,0,0-1.086.411,1.669,1.669,0,0,0-.383,1.18v.893h1.8v1.117h-1.8V39Zm4.461-4.3a4.993,4.993,0,0,1,.488-2.234,3.643,3.643,0,0,1,1.359-1.531,3.7,3.7,0,0,1,1.988-.539,3.565,3.565,0,0,1,2.793,1.2,4.6,4.6,0,0,1,1.066,3.18v.1a5.036,5.036,0,0,1-.473,2.215,3.589,3.589,0,0,1-1.352,1.527,3.743,3.743,0,0,1-2.02.547,3.556,3.556,0,0,1-2.785-1.2A4.575,4.575,0,0,1,54.105,34.8Zm1.453.172a3.616,3.616,0,0,0,.652,2.258,2.211,2.211,0,0,0,3.5-.012,3.955,3.955,0,0,0,.648-2.418,3.61,3.61,0,0,0-.66-2.254,2.1,2.1,0,0,0-1.754-.863,2.075,2.075,0,0,0-1.727.852A3.925,3.925,0,0,0,55.559,34.867ZM67.7,31.844a4.331,4.331,0,0,0-.711-.055A1.9,1.9,0,0,0,65.059,33v6H63.613V30.547H65.02l.023.977a2.251,2.251,0,0,1,2.016-1.133,1.477,1.477,0,0,1,.641.109Zm2.688-1.3.039.938a3.122,3.122,0,0,1,2.508-1.094,2.417,2.417,0,0,1,2.414,1.359,3.2,3.2,0,0,1,1.1-.984,3.242,3.242,0,0,1,1.6-.375q2.781,0,2.828,2.945V39H79.426V33.422a1.941,1.941,0,0,0-.414-1.355,1.823,1.823,0,0,0-1.391-.449,1.916,1.916,0,0,0-1.336.48,1.949,1.949,0,0,0-.617,1.293V39H74.215V33.461a1.613,1.613,0,0,0-1.8-1.844,1.934,1.934,0,0,0-1.945,1.211V39H69.02V30.547ZM88.27,39a3.036,3.036,0,0,1-.2-.891,3.225,3.225,0,0,1-2.406,1.047,2.984,2.984,0,0,1-2.051-.707,2.288,2.288,0,0,1-.8-1.793,2.39,2.39,0,0,1,1-2.051,4.733,4.733,0,0,1,2.824-.73h1.406v-.664A1.623,1.623,0,0,0,87.59,32a1.821,1.821,0,0,0-1.336-.449,2.108,2.108,0,0,0-1.3.391,1.151,1.151,0,0,0-.523.945H82.98a2,2,0,0,1,.449-1.223,3.066,3.066,0,0,1,1.219-.934,4.1,4.1,0,0,1,1.691-.344,3.342,3.342,0,0,1,2.289.73,2.635,2.635,0,0,1,.859,2.012v3.891a4.757,4.757,0,0,0,.3,1.852V39Zm-2.4-1.1a2.54,2.54,0,0,0,1.289-.352,2.127,2.127,0,0,0,.883-.914V34.9H86.91q-2.656,0-2.656,1.555a1.316,1.316,0,0,0,.453,1.063A1.742,1.742,0,0,0,85.871,37.9Zm9.273.078a2.082,2.082,0,0,0,1.352-.469,1.649,1.649,0,0,0,.641-1.172H98.5a2.621,2.621,0,0,1-.5,1.383,3.293,3.293,0,0,1-1.23,1.047,3.55,3.55,0,0,1-1.629.391A3.482,3.482,0,0,1,92.4,38a4.59,4.59,0,0,1-1.02-3.152v-.242a5.089,5.089,0,0,1,.453-2.2,3.451,3.451,0,0,1,1.3-1.492,3.7,3.7,0,0,1,2-.531,3.39,3.39,0,0,1,2.363.852,3.043,3.043,0,0,1,1,2.211H97.137a1.992,1.992,0,0,0-.621-1.348,1.932,1.932,0,0,0-1.379-.527,2.023,2.023,0,0,0-1.707.793,3.724,3.724,0,0,0-.605,2.293v.273a3.65,3.65,0,0,0,.6,2.25A2.033,2.033,0,0,0,95.145,37.977ZM101.7,39h-1.445V30.547H101.7Zm-1.562-10.7a.863.863,0,0,1,.215-.594.807.807,0,0,1,.637-.242.819.819,0,0,1,.641.242.854.854,0,0,1,.219.594.826.826,0,0,1-.219.586.834.834,0,0,1-.641.234.821.821,0,0,1-.637-.234A.834.834,0,0,1,100.137,28.3Zm3.492,6.391a4.993,4.993,0,0,1,.488-2.234,3.643,3.643,0,0,1,1.359-1.531,3.7,3.7,0,0,1,1.988-.539,3.565,3.565,0,0,1,2.793,1.2,4.6,4.6,0,0,1,1.066,3.18v.1a5.036,5.036,0,0,1-.473,2.215,3.589,3.589,0,0,1-1.352,1.527,3.743,3.743,0,0,1-2.02.547,3.556,3.556,0,0,1-2.785-1.2,4.575,4.575,0,0,1-1.066-3.164Zm1.453.172a3.616,3.616,0,0,0,.652,2.258,2.211,2.211,0,0,0,3.5-.012,3.955,3.955,0,0,0,.648-2.418,3.61,3.61,0,0,0-.66-2.254,2.1,2.1,0,0,0-1.754-.863,2.075,2.075,0,0,0-1.727.852A3.925,3.925,0,0,0,105.082,34.867Zm3.039-7.852h1.75l-2.094,2.3-1.164,0Zm6.383,3.531.047,1.063a3.08,3.08,0,0,1,2.531-1.219q2.68,0,2.7,3.023V39H118.34V33.406a1.946,1.946,0,0,0-.418-1.352,1.675,1.675,0,0,0-1.277-.437,2.086,2.086,0,0,0-1.234.375,2.546,2.546,0,0,0-.828.984V39h-1.445V30.547Z" transform="translate(727 656)" fill="#fff"/>
    <path id="Trazado_779461" data-name="Trazado 779461" d="M38.539,12.023H33.773L32.7,15H31.156L35.5,3.625h1.313L41.164,15H39.625ZM34.227,10.8h3.867l-1.937-5.32Zm9.609-4.25.047,1.063a3.08,3.08,0,0,1,2.531-1.219q2.68,0,2.7,3.023V15H47.672V9.406a1.946,1.946,0,0,0-.418-1.352,1.675,1.675,0,0,0-1.277-.437,2.086,2.086,0,0,0-1.234.375,2.546,2.546,0,0,0-.828.984V15H42.469V6.547ZM56.516,15a3.036,3.036,0,0,1-.2-.891,3.225,3.225,0,0,1-2.406,1.047,2.984,2.984,0,0,1-2.051-.707,2.287,2.287,0,0,1-.8-1.793,2.39,2.39,0,0,1,1-2.051,4.733,4.733,0,0,1,2.824-.73h1.406V9.211A1.623,1.623,0,0,0,55.836,8,1.821,1.821,0,0,0,54.5,7.555a2.107,2.107,0,0,0-1.3.391,1.151,1.151,0,0,0-.523.945H51.227a2,2,0,0,1,.449-1.223,3.066,3.066,0,0,1,1.219-.934,4.1,4.1,0,0,1,1.691-.344,3.342,3.342,0,0,1,2.289.73,2.635,2.635,0,0,1,.859,2.012v3.891a4.757,4.757,0,0,0,.3,1.852V15Zm-2.4-1.1a2.54,2.54,0,0,0,1.289-.352,2.127,2.127,0,0,0,.883-.914V10.9H55.156q-2.656,0-2.656,1.555a1.316,1.316,0,0,0,.453,1.063A1.742,1.742,0,0,0,54.117,13.9ZM55.453,3.016H57.2l-2.094,2.3-1.164,0ZM61.57,15H60.125V3H61.57Zm3.883,0H64.008V6.547h1.445ZM63.891,4.3a.863.863,0,0,1,.215-.594.807.807,0,0,1,.637-.242.819.819,0,0,1,.641.242A.854.854,0,0,1,65.6,4.3a.826.826,0,0,1-.219.586.834.834,0,0,1-.641.234.821.821,0,0,1-.637-.234A.834.834,0,0,1,63.891,4.3Zm8.8,8.453a1.064,1.064,0,0,0-.441-.91,4.249,4.249,0,0,0-1.539-.559,7.277,7.277,0,0,1-1.742-.562,2.479,2.479,0,0,1-.953-.781A1.869,1.869,0,0,1,67.7,8.867a2.193,2.193,0,0,1,.879-1.758,3.432,3.432,0,0,1,2.246-.719,3.532,3.532,0,0,1,2.332.742,2.357,2.357,0,0,1,.895,1.9H72.6a1.3,1.3,0,0,0-.5-1.023,1.888,1.888,0,0,0-1.27-.43,1.976,1.976,0,0,0-1.234.344,1.082,1.082,0,0,0-.445.9.877.877,0,0,0,.414.789,5.1,5.1,0,0,0,1.5.508,7.8,7.8,0,0,1,1.754.578,2.558,2.558,0,0,1,1,.809,1.988,1.988,0,0,1,.324,1.152,2.163,2.163,0,0,1-.906,1.816,3.8,3.8,0,0,1-2.352.684,4.257,4.257,0,0,1-1.8-.359,2.922,2.922,0,0,1-1.223-1,2.42,2.42,0,0,1-.441-1.395h1.445a1.5,1.5,0,0,0,.582,1.152,2.258,2.258,0,0,0,1.434.426,2.331,2.331,0,0,0,1.316-.332A1.02,1.02,0,0,0,72.688,12.758ZM77.586,15H76.141V6.547h1.445ZM76.023,4.3a.863.863,0,0,1,.215-.594.807.807,0,0,1,.637-.242.819.819,0,0,1,.641.242.854.854,0,0,1,.219.594.826.826,0,0,1-.219.586.834.834,0,0,1-.641.234.821.821,0,0,1-.637-.234A.834.834,0,0,1,76.023,4.3Zm8.8,8.453a1.064,1.064,0,0,0-.441-.91,4.249,4.249,0,0,0-1.539-.559,7.277,7.277,0,0,1-1.742-.562,2.479,2.479,0,0,1-.953-.781,1.869,1.869,0,0,1-.309-1.078,2.193,2.193,0,0,1,.879-1.758,3.432,3.432,0,0,1,2.246-.719,3.532,3.532,0,0,1,2.332.742,2.357,2.357,0,0,1,.895,1.9H84.734a1.3,1.3,0,0,0-.5-1.023,1.888,1.888,0,0,0-1.27-.43,1.976,1.976,0,0,0-1.234.344,1.082,1.082,0,0,0-.445.9.877.877,0,0,0,.414.789,5.1,5.1,0,0,0,1.5.508,7.8,7.8,0,0,1,1.754.578,2.558,2.558,0,0,1,1,.809,1.988,1.988,0,0,1,.324,1.152,2.163,2.163,0,0,1-.906,1.816,3.8,3.8,0,0,1-2.352.684,4.257,4.257,0,0,1-1.8-.359,2.922,2.922,0,0,1-1.223-1,2.42,2.42,0,0,1-.441-1.395h1.445a1.5,1.5,0,0,0,.582,1.152,2.258,2.258,0,0,0,1.434.426,2.331,2.331,0,0,0,1.316-.332A1.02,1.02,0,0,0,84.82,12.758ZM91.758,10.7a4.952,4.952,0,0,1,.922-3.129,3.137,3.137,0,0,1,4.766-.168V3h1.445V15H97.563l-.07-.906a2.943,2.943,0,0,1-2.414,1.063,2.887,2.887,0,0,1-2.395-1.2,5.008,5.008,0,0,1-.926-3.141Zm1.445.164a3.749,3.749,0,0,0,.594,2.25,1.92,1.92,0,0,0,1.641.813A2.108,2.108,0,0,0,97.445,12.7V8.813a2.125,2.125,0,0,0-1.992-1.2,1.929,1.929,0,0,0-1.656.82A4.128,4.128,0,0,0,93.2,10.867Zm11.438,4.289a3.693,3.693,0,0,1-2.8-1.129,4.19,4.19,0,0,1-1.078-3.02v-.266a5.073,5.073,0,0,1,.48-2.246,3.748,3.748,0,0,1,1.344-1.547,3.378,3.378,0,0,1,1.871-.559,3.166,3.166,0,0,1,2.563,1.086,4.7,4.7,0,0,1,.914,3.109v.6h-5.727a3,3,0,0,0,.73,2.02,2.3,2.3,0,0,0,1.777.77,2.517,2.517,0,0,0,1.3-.312,3.259,3.259,0,0,0,.93-.828l.883.688A3.55,3.55,0,0,1,104.641,15.156Zm-.18-7.578a1.928,1.928,0,0,0-1.469.637A3.1,3.1,0,0,0,102.258,10h4.234V9.891a2.753,2.753,0,0,0-.594-1.707A1.815,1.815,0,0,0,104.461,7.578ZM115.141,15H113.7V3h1.445Zm7.531,0a3.036,3.036,0,0,1-.2-.891,3.225,3.225,0,0,1-2.406,1.047,2.984,2.984,0,0,1-2.051-.707,2.288,2.288,0,0,1-.8-1.793,2.39,2.39,0,0,1,1-2.051,4.733,4.733,0,0,1,2.824-.73h1.406V9.211A1.623,1.623,0,0,0,121.992,8a1.821,1.821,0,0,0-1.336-.449,2.108,2.108,0,0,0-1.3.391,1.151,1.151,0,0,0-.523.945h-1.453a2,2,0,0,1,.449-1.223,3.066,3.066,0,0,1,1.219-.934,4.1,4.1,0,0,1,1.691-.344,3.342,3.342,0,0,1,2.289.73,2.635,2.635,0,0,1,.859,2.012v3.891a4.757,4.757,0,0,0,.3,1.852V15Zm-2.4-1.1a2.54,2.54,0,0,0,1.289-.352,2.127,2.127,0,0,0,.883-.914V10.9h-1.133q-2.656,0-2.656,1.555a1.316,1.316,0,0,0,.453,1.063A1.742,1.742,0,0,0,120.273,13.9Zm-68.8,22.859a1.064,1.064,0,0,0-.441-.91,4.249,4.249,0,0,0-1.539-.559,7.277,7.277,0,0,1-1.742-.562,2.479,2.479,0,0,1-.953-.781,1.869,1.869,0,0,1-.309-1.078,2.193,2.193,0,0,1,.879-1.758,3.432,3.432,0,0,1,2.246-.719,3.532,3.532,0,0,1,2.332.742,2.357,2.357,0,0,1,.895,1.9H51.383a1.3,1.3,0,0,0-.5-1.023,1.888,1.888,0,0,0-1.27-.43,1.976,1.976,0,0,0-1.234.344,1.082,1.082,0,0,0-.445.9.877.877,0,0,0,.414.789,5.1,5.1,0,0,0,1.5.508,7.8,7.8,0,0,1,1.754.578,2.558,2.558,0,0,1,1,.809,1.988,1.988,0,0,1,.324,1.152,2.163,2.163,0,0,1-.906,1.816,3.8,3.8,0,0,1-2.352.684,4.257,4.257,0,0,1-1.8-.359,2.922,2.922,0,0,1-1.223-1A2.42,2.42,0,0,1,46.2,36.4h1.445a1.5,1.5,0,0,0,.582,1.152,2.258,2.258,0,0,0,1.434.426,2.331,2.331,0,0,0,1.316-.332A1.02,1.02,0,0,0,51.469,36.758ZM56.367,39H54.922V30.547h1.445ZM54.8,28.3a.863.863,0,0,1,.215-.594.807.807,0,0,1,.637-.242.819.819,0,0,1,.641.242.854.854,0,0,1,.219.594.826.826,0,0,1-.219.586.834.834,0,0,1-.641.234.821.821,0,0,1-.637-.234A.834.834,0,0,1,54.8,28.3Zm5.836.2v2.047h1.578v1.117H60.641v5.249a1.173,1.173,0,0,0,.211.763.888.888,0,0,0,.719.254,3.5,3.5,0,0,0,.688-.094V39a4.215,4.215,0,0,1-1.109.155,1.8,1.8,0,0,1-1.461-.586,2.517,2.517,0,0,1-.492-1.664V31.664H57.656V30.547H59.2V28.5Zm8.484,9.664a3.07,3.07,0,0,1-2.477.992,2.628,2.628,0,0,1-2.059-.785,3.4,3.4,0,0,1-.715-2.324v-5.5H65.32v5.461q0,1.922,1.563,1.922a2.163,2.163,0,0,0,2.2-1.234V30.547h1.445V39H69.156Zm8.82.836a3.036,3.036,0,0,1-.2-.891,3.225,3.225,0,0,1-2.406,1.047,2.984,2.984,0,0,1-2.051-.707,2.288,2.288,0,0,1-.8-1.793,2.39,2.39,0,0,1,1-2.051,4.733,4.733,0,0,1,2.824-.73h1.406v-.664A1.623,1.623,0,0,0,77.266,32a1.821,1.821,0,0,0-1.336-.449,2.108,2.108,0,0,0-1.3.391,1.151,1.151,0,0,0-.523.945H72.656a2,2,0,0,1,.449-1.223,3.066,3.066,0,0,1,1.219-.934,4.1,4.1,0,0,1,1.691-.344,3.342,3.342,0,0,1,2.289.73,2.635,2.635,0,0,1,.859,2.012v3.891a4.757,4.757,0,0,0,.3,1.852V39Zm-2.4-1.1a2.54,2.54,0,0,0,1.289-.352,2.127,2.127,0,0,0,.883-.914V34.9H76.586q-2.656,0-2.656,1.555a1.316,1.316,0,0,0,.453,1.063A1.742,1.742,0,0,0,75.547,37.9Zm9.273.078a2.082,2.082,0,0,0,1.352-.469,1.649,1.649,0,0,0,.641-1.172H88.18a2.621,2.621,0,0,1-.5,1.383,3.293,3.293,0,0,1-1.23,1.047,3.55,3.55,0,0,1-1.629.391A3.482,3.482,0,0,1,82.074,38a4.59,4.59,0,0,1-1.02-3.152v-.242a5.089,5.089,0,0,1,.453-2.2,3.451,3.451,0,0,1,1.3-1.492,3.7,3.7,0,0,1,2-.531,3.39,3.39,0,0,1,2.363.852,3.043,3.043,0,0,1,1,2.211H86.813a1.992,1.992,0,0,0-.621-1.348,1.932,1.932,0,0,0-1.379-.527,2.023,2.023,0,0,0-1.707.793,3.724,3.724,0,0,0-.605,2.293v.273a3.65,3.65,0,0,0,.6,2.25A2.033,2.033,0,0,0,84.82,37.977ZM91.375,39H89.93V30.547h1.445ZM89.813,28.3a.863.863,0,0,1,.215-.594.807.807,0,0,1,.637-.242.819.819,0,0,1,.641.242.854.854,0,0,1,.219.594.826.826,0,0,1-.219.586.834.834,0,0,1-.641.234.821.821,0,0,1-.637-.234A.834.834,0,0,1,89.813,28.3ZM93.3,34.7a4.993,4.993,0,0,1,.488-2.234,3.643,3.643,0,0,1,1.359-1.531,3.7,3.7,0,0,1,1.988-.539,3.565,3.565,0,0,1,2.793,1.2A4.6,4.6,0,0,1,101,34.766v.1a5.036,5.036,0,0,1-.473,2.215,3.589,3.589,0,0,1-1.352,1.527,3.743,3.743,0,0,1-2.02.547,3.556,3.556,0,0,1-2.785-1.2A4.575,4.575,0,0,1,93.3,34.8Zm1.453.172a3.616,3.616,0,0,0,.652,2.258,2.211,2.211,0,0,0,3.5-.012,3.955,3.955,0,0,0,.648-2.418,3.61,3.61,0,0,0-.66-2.254,2.1,2.1,0,0,0-1.754-.863,2.075,2.075,0,0,0-1.727.852A3.925,3.925,0,0,0,94.758,34.867ZM97.8,27.016h1.75l-2.094,2.3-1.164,0Zm6.383,3.531.047,1.063a3.08,3.08,0,0,1,2.531-1.219q2.68,0,2.7,3.023V39h-1.445V33.406a1.946,1.946,0,0,0-.418-1.352,1.675,1.675,0,0,0-1.277-.437,2.086,2.086,0,0,0-1.234.375,2.546,2.546,0,0,0-.828.984V39h-1.445V30.547Z" transform="translate(905 656)" fill="#fff"/>
    <path id="Trazado_779462" data-name="Trazado 779462" d="M42.313,15h-1.5V3.625h1.5ZM46.2,6.547l.047,1.063a3.08,3.08,0,0,1,2.531-1.219q2.68,0,2.7,3.023V15H50.031V9.406a1.946,1.946,0,0,0-.418-1.352,1.675,1.675,0,0,0-1.277-.437,2.086,2.086,0,0,0-1.234.375,2.546,2.546,0,0,0-.828.984V15H44.828V6.547ZM54.367,15V7.664H53.031V6.547h1.336V5.68a2.878,2.878,0,0,1,.727-2.1,2.745,2.745,0,0,1,2.055-.742,3.816,3.816,0,0,1,.992.132l-.078,1.165a4.151,4.151,0,0,0-.781-.07,1.41,1.41,0,0,0-1.086.411,1.669,1.669,0,0,0-.383,1.18v.893h1.8V7.664h-1.8V15Zm4.461-4.3a4.993,4.993,0,0,1,.488-2.234A3.643,3.643,0,0,1,60.676,6.93a3.7,3.7,0,0,1,1.988-.539,3.565,3.565,0,0,1,2.793,1.2,4.6,4.6,0,0,1,1.066,3.18v.1a5.036,5.036,0,0,1-.473,2.215A3.589,3.589,0,0,1,64.7,14.609a3.743,3.743,0,0,1-2.02.547,3.556,3.556,0,0,1-2.785-1.2A4.575,4.575,0,0,1,58.828,10.8Zm1.453.172a3.616,3.616,0,0,0,.652,2.258,2.211,2.211,0,0,0,3.5-.012,3.955,3.955,0,0,0,.648-2.418,3.61,3.61,0,0,0-.66-2.254,2.1,2.1,0,0,0-1.754-.863,2.075,2.075,0,0,0-1.727.852A3.925,3.925,0,0,0,60.281,10.867ZM72.422,7.844a4.331,4.331,0,0,0-.711-.055A1.9,1.9,0,0,0,69.781,9v6H68.336V6.547h1.406l.023.977a2.251,2.251,0,0,1,2.016-1.133,1.477,1.477,0,0,1,.641.109Zm2.688-1.3.039.938a3.122,3.122,0,0,1,2.508-1.094A2.417,2.417,0,0,1,80.07,7.75a3.2,3.2,0,0,1,1.1-.984,3.242,3.242,0,0,1,1.6-.375q2.781,0,2.828,2.945V15H84.148V9.422a1.941,1.941,0,0,0-.414-1.355,1.823,1.823,0,0,0-1.391-.449,1.916,1.916,0,0,0-1.336.48,1.949,1.949,0,0,0-.617,1.293V15H78.938V9.461a1.613,1.613,0,0,0-1.8-1.844,1.934,1.934,0,0,0-1.945,1.211V15H73.742V6.547Zm16.172,8.609a3.693,3.693,0,0,1-2.8-1.129,4.19,4.19,0,0,1-1.078-3.02v-.266a5.073,5.073,0,0,1,.48-2.246A3.748,3.748,0,0,1,89.23,6.949,3.378,3.378,0,0,1,91.1,6.391a3.166,3.166,0,0,1,2.563,1.086,4.7,4.7,0,0,1,.914,3.109v.6H88.852a3,3,0,0,0,.73,2.02,2.3,2.3,0,0,0,1.777.77,2.517,2.517,0,0,0,1.3-.312,3.259,3.259,0,0,0,.93-.828l.883.688A3.55,3.55,0,0,1,91.281,15.156ZM91.1,7.578a1.928,1.928,0,0,0-1.469.637A3.1,3.1,0,0,0,88.9,10h4.234V9.891a2.753,2.753,0,0,0-.594-1.707A1.815,1.815,0,0,0,91.1,7.578ZM99.859,10.7a4.952,4.952,0,0,1,.922-3.129,3.137,3.137,0,0,1,4.766-.168V3h1.445V15h-1.328l-.07-.906a2.943,2.943,0,0,1-2.414,1.063,2.887,2.887,0,0,1-2.395-1.2,5.008,5.008,0,0,1-.926-3.141Zm1.445.164a3.749,3.749,0,0,0,.594,2.25,1.92,1.92,0,0,0,1.641.813,2.108,2.108,0,0,0,2.008-1.234V8.813a2.125,2.125,0,0,0-1.992-1.2,1.929,1.929,0,0,0-1.656.82A4.128,4.128,0,0,0,101.3,10.867Zm11.438,4.289a3.693,3.693,0,0,1-2.8-1.129,4.19,4.19,0,0,1-1.078-3.02v-.266a5.073,5.073,0,0,1,.48-2.246,3.748,3.748,0,0,1,1.344-1.547,3.378,3.378,0,0,1,1.871-.559,3.166,3.166,0,0,1,2.563,1.086,4.7,4.7,0,0,1,.914,3.109v.6h-5.727a3,3,0,0,0,.73,2.02,2.3,2.3,0,0,0,1.777.77,2.517,2.517,0,0,0,1.3-.312,3.259,3.259,0,0,0,.93-.828l.883.688A3.55,3.55,0,0,1,112.742,15.156Zm-.18-7.578a1.928,1.928,0,0,0-1.469.637A3.1,3.1,0,0,0,110.359,10h4.234V9.891A2.753,2.753,0,0,0,114,8.184,1.815,1.815,0,0,0,112.563,7.578ZM45.668,31.844a4.331,4.331,0,0,0-.711-.055A1.9,1.9,0,0,0,43.027,33v6H41.582V30.547h1.406l.023.977a2.251,2.251,0,0,1,2.016-1.133,1.477,1.477,0,0,1,.641.109Zm4.688,7.313a3.693,3.693,0,0,1-2.8-1.129,4.19,4.19,0,0,1-1.078-3.02v-.266a5.073,5.073,0,0,1,.48-2.246A3.748,3.748,0,0,1,48.3,30.949a3.378,3.378,0,0,1,1.871-.559,3.166,3.166,0,0,1,2.563,1.086,4.7,4.7,0,0,1,.914,3.109v.6H47.926a3,3,0,0,0,.73,2.02,2.3,2.3,0,0,0,1.777.77,2.517,2.517,0,0,0,1.3-.312,3.258,3.258,0,0,0,.93-.828l.883.688A3.55,3.55,0,0,1,50.355,39.156Zm-.18-7.578a1.928,1.928,0,0,0-1.469.637A3.1,3.1,0,0,0,47.973,34h4.234v-.109a2.753,2.753,0,0,0-.594-1.707A1.815,1.815,0,0,0,50.176,31.578Zm10.07,5.18a1.064,1.064,0,0,0-.441-.91,4.249,4.249,0,0,0-1.539-.559,7.277,7.277,0,0,1-1.742-.562,2.479,2.479,0,0,1-.953-.781,1.869,1.869,0,0,1-.309-1.078,2.193,2.193,0,0,1,.879-1.758,3.432,3.432,0,0,1,2.246-.719,3.532,3.532,0,0,1,2.332.742,2.357,2.357,0,0,1,.895,1.9H60.16a1.3,1.3,0,0,0-.5-1.023,1.888,1.888,0,0,0-1.27-.43,1.976,1.976,0,0,0-1.234.344,1.082,1.082,0,0,0-.445.9.877.877,0,0,0,.414.789,5.1,5.1,0,0,0,1.5.508,7.8,7.8,0,0,1,1.754.578,2.558,2.558,0,0,1,1,.809,1.988,1.988,0,0,1,.324,1.152,2.163,2.163,0,0,1-.906,1.816,3.8,3.8,0,0,1-2.352.684,4.257,4.257,0,0,1-1.8-.359,2.922,2.922,0,0,1-1.223-1,2.42,2.42,0,0,1-.441-1.395h1.445A1.5,1.5,0,0,0,57,37.551a2.258,2.258,0,0,0,1.434.426,2.331,2.331,0,0,0,1.316-.332A1.02,1.02,0,0,0,60.246,36.758Zm8.547,1.406a3.07,3.07,0,0,1-2.477.992,2.628,2.628,0,0,1-2.059-.785,3.4,3.4,0,0,1-.715-2.324v-5.5h1.445v5.461q0,1.922,1.563,1.922a2.163,2.163,0,0,0,2.2-1.234V30.547H70.2V39H68.824ZM73.965,39H72.52V27h1.445Zm4.273-10.5v2.047h1.578v1.117H78.238v5.249a1.173,1.173,0,0,0,.211.763.888.888,0,0,0,.719.254,3.5,3.5,0,0,0,.688-.094V39a4.215,4.215,0,0,1-1.109.155,1.8,1.8,0,0,1-1.461-.586,2.517,2.517,0,0,1-.492-1.664V31.664H75.254V30.547h1.539V28.5ZM86.723,39a3.036,3.036,0,0,1-.2-.891,3.225,3.225,0,0,1-2.406,1.047,2.984,2.984,0,0,1-2.051-.707,2.288,2.288,0,0,1-.8-1.793,2.39,2.39,0,0,1,1-2.051,4.733,4.733,0,0,1,2.824-.73H86.5v-.664A1.623,1.623,0,0,0,86.043,32a1.821,1.821,0,0,0-1.336-.449,2.108,2.108,0,0,0-1.3.391,1.151,1.151,0,0,0-.523.945H81.434a2,2,0,0,1,.449-1.223,3.066,3.066,0,0,1,1.219-.934,4.1,4.1,0,0,1,1.691-.344,3.342,3.342,0,0,1,2.289.73,2.635,2.635,0,0,1,.859,2.012v3.891a4.757,4.757,0,0,0,.3,1.852V39Zm-2.4-1.1a2.54,2.54,0,0,0,1.289-.352,2.127,2.127,0,0,0,.883-.914V34.9H85.363q-2.656,0-2.656,1.555a1.316,1.316,0,0,0,.453,1.063A1.742,1.742,0,0,0,84.324,37.9Zm5.531-3.2a4.952,4.952,0,0,1,.922-3.129,3.137,3.137,0,0,1,4.766-.168V27h1.445V39H95.66l-.07-.906a2.943,2.943,0,0,1-2.414,1.063,2.887,2.887,0,0,1-2.395-1.2,5.008,5.008,0,0,1-.926-3.141Zm1.445.164a3.749,3.749,0,0,0,.594,2.25,1.92,1.92,0,0,0,1.641.813A2.108,2.108,0,0,0,95.543,36.7V32.813a2.125,2.125,0,0,0-1.992-1.2,1.929,1.929,0,0,0-1.656.82A4.128,4.128,0,0,0,91.3,34.867Zm7.547-.172a4.993,4.993,0,0,1,.488-2.234A3.643,3.643,0,0,1,100.7,30.93a3.7,3.7,0,0,1,1.988-.539,3.565,3.565,0,0,1,2.793,1.2,4.6,4.6,0,0,1,1.066,3.18v.1a5.036,5.036,0,0,1-.473,2.215,3.589,3.589,0,0,1-1.352,1.527,3.743,3.743,0,0,1-2.02.547,3.556,3.556,0,0,1-2.785-1.2A4.575,4.575,0,0,1,98.848,34.8Zm1.453.172a3.616,3.616,0,0,0,.652,2.258,2.211,2.211,0,0,0,3.5-.012A3.955,3.955,0,0,0,105.1,34.7a3.61,3.61,0,0,0-.66-2.254,2.1,2.1,0,0,0-1.754-.863,2.075,2.075,0,0,0-1.727.852A3.925,3.925,0,0,0,100.3,34.867Zm12.977,1.891a1.064,1.064,0,0,0-.441-.91,4.249,4.249,0,0,0-1.539-.559,7.277,7.277,0,0,1-1.742-.562,2.479,2.479,0,0,1-.953-.781,1.869,1.869,0,0,1-.309-1.078,2.193,2.193,0,0,1,.879-1.758,3.432,3.432,0,0,1,2.246-.719,3.532,3.532,0,0,1,2.332.742,2.357,2.357,0,0,1,.895,1.9h-1.453a1.3,1.3,0,0,0-.5-1.023,1.888,1.888,0,0,0-1.27-.43,1.976,1.976,0,0,0-1.234.344,1.082,1.082,0,0,0-.445.9.877.877,0,0,0,.414.789,5.1,5.1,0,0,0,1.5.508,7.8,7.8,0,0,1,1.754.578,2.558,2.558,0,0,1,1,.809,1.988,1.988,0,0,1,.324,1.152,2.163,2.163,0,0,1-.906,1.816,3.8,3.8,0,0,1-2.352.684,4.257,4.257,0,0,1-1.8-.359,2.922,2.922,0,0,1-1.223-1A2.42,2.42,0,0,1,108,36.4h1.445a1.5,1.5,0,0,0,.582,1.152,2.258,2.258,0,0,0,1.434.426,2.331,2.331,0,0,0,1.316-.332A1.02,1.02,0,0,0,113.277,36.758Z" transform="translate(1082 656)" fill="#12263f"/>
    <g id="Grupo_1065015" data-name="Grupo 1065015" transform="translate(417.726 581.327)">
      <g id="Grupo_1065010" data-name="Grupo 1065010">
        <g id="Grupo_1064998" data-name="Grupo 1064998" transform="translate(1.393 8.686)">
          <g id="Grupo_1064997" data-name="Grupo 1064997" transform="translate(0 0)">
            <ellipse id="Elipse_8706" data-name="Elipse 8706" cx="28.332" cy="28.33" rx="28.332" ry="28.33" transform="translate(0 0.057) rotate(-0.057)" fill="#f6f6f6"/>
          </g>
        </g>
        <g id="Grupo_1065000" data-name="Grupo 1065000" transform="translate(8.291 15.574)">
          <g id="Grupo_1064999" data-name="Grupo 1064999">
            <path id="Trazado_779111" data-name="Trazado 779111" d="M85.137,162.529a21.459,21.459,0,0,1-13.05-38.5q.216-.166.437-.327a21.463,21.463,0,1,1,12.613,38.827Z" transform="translate(-63.67 -119.597)" fill="#f5737f"/>
          </g>
        </g>
        <g id="Grupo_1065001" data-name="Grupo 1065001" transform="translate(8.291 15.574)">
          <path id="Trazado_779112" data-name="Trazado 779112" d="M77.863,120.866a21.5,21.5,0,1,1-10.071,7.564" transform="translate(-63.67 -119.597)" fill="#e01650"/>
        </g>
        <g id="Grupo_1065004" data-name="Grupo 1065004">
          <g id="Grupo_1065002" data-name="Grupo 1065002">
            <path id="Trazado_779113" data-name="Trazado 779113" fill="#f5737f"/>
          </g>
          <g id="Grupo_1065003" data-name="Grupo 1065003" transform="translate(15.845 18.38)">
            <path id="Trazado_779114" data-name="Trazado 779114" d="M122.98,143.748a1.3,1.3,0,1,1,1.277-1.047A1.312,1.312,0,0,1,122.98,143.748Z" transform="translate(-121.681 -141.147)"/>
          </g>
        </g>
        <g id="Grupo_1065006" data-name="Grupo 1065006" transform="translate(15.12 22.4)">
          <g id="Grupo_1065005" data-name="Grupo 1065005">
            <ellipse id="Elipse_8707" data-name="Elipse 8707" cx="14.602" cy="14.603" rx="14.602" ry="14.603" transform="translate(0 29.204) rotate(-89.885)" fill="#f6f6f6"/>
          </g>
        </g>
        <g id="Grupo_1065008" data-name="Grupo 1065008" transform="translate(39.642 45.12)">
          <g id="Grupo_1065007" data-name="Grupo 1065007">
            <path id="Trazado_779115" data-name="Trazado 779115" d="M305.729,349.094a1.3,1.3,0,1,1,1.286-1.1,1.314,1.314,0,0,1-1.286,1.1Z" transform="translate(-304.427 -346.494)"/>
          </g>
        </g>
        <g id="Grupo_1065009" data-name="Grupo 1065009" transform="translate(21.983 29.264)">
          <ellipse id="Elipse_8708" data-name="Elipse 8708" cx="7.738" cy="7.738" rx="7.738" ry="7.738" transform="translate(0 15.476) rotate(-89.771)" fill="#e01650"/>
        </g>
      </g>
      <g id="Grupo_1065014" data-name="Grupo 1065014" transform="translate(0.124 0)">
        <g id="Grupo_1065011" data-name="Grupo 1065011" transform="translate(49.463 1.302)">
          <path id="Trazado_779116" data-name="Trazado 779116" d="M387.626,10l-5.675,5.674a3.943,3.943,0,0,0-1.152,2.644l.129,7.223,7.313-7.325Z" transform="translate(-380.799 -10.001)" fill="#ffb206"/>
        </g>
        <g id="Grupo_1065013" data-name="Grupo 1065013">
          <g id="Grupo_1065012" data-name="Grupo 1065012" transform="translate(49.591 9.519)">
            <path id="Trazado_779117" data-name="Trazado 779117" d="M397.315,73.712,389.1,73.1l-7.313,7.325,7.211.117a3.944,3.944,0,0,0,2.644-1.152Z" transform="translate(-381.785 -73.097)" fill="#ffb206"/>
          </g>
          <path id="Trazado_779118" data-name="Trazado 779118" d="M67.3,9.681a1.3,1.3,0,0,0-1.124-.846l-7.1-.531-.531-7.1A1.3,1.3,0,0,0,56.325.382L50.651,6.056a5.228,5.228,0,0,0-1.533,3.517c0,.024,0,.047,0,.071l.077,4.348a29.664,29.664,0,1,0,4.246,4.2l4.3.069h.069a5.229,5.229,0,0,0,3.517-1.533L67,11.055a1.3,1.3,0,0,0,.3-1.374ZM52.492,7.9l3.667-3.667.358,4.79-4.723,4.73-.073-4.115A2.631,2.631,0,0,1,52.492,7.9ZM30.59,64.069A27.028,27.028,0,1,1,48.624,16.925l-3.016,3.016a22.749,22.749,0,0,0-22.735-4.323,1.3,1.3,0,0,0,.885,2.45,20.148,20.148,0,0,1,20.006,3.718l-3.021,3.021a15.9,15.9,0,1,0-2.926,26.4,1.3,1.3,0,1,0-1.187-2.318,13.129,13.129,0,0,1-6.04,1.452,13.3,13.3,0,1,1,8.3-23.683L35.854,29.7A9.052,9.052,0,1,0,37.73,31.5l3.027-3.026a13.287,13.287,0,0,1,2.46,12.748,1.3,1.3,0,0,0,2.472.821A15.892,15.892,0,0,0,42.6,26.629l3.017-3.017A20.165,20.165,0,1,1,14.3,25.175a1.3,1.3,0,0,0-2.1-1.536,22.771,22.771,0,1,0,35.271-1.87l3.014-3.014A27.014,27.014,0,0,1,30.59,64.069Zm6.436-27.028a6.441,6.441,0,1,1-3.048-5.47l-4.154,4.153a1.3,1.3,0,1,0,1.842,1.842l4.2-4.2A6.4,6.4,0,0,1,37.026,37.041ZM59.482,14.887a2.633,2.633,0,0,1-1.74.77l-4.1-.066,2.5-2.5c.028-.028.054-.057.079-.086l2.138-2.141,4.789.358Z" transform="translate(-0.956 -0.001)"/>
        </g>
      </g>
    </g>
    <g id="Grupo_1065017" data-name="Grupo 1065017" transform="translate(591.195 585.525)">
      <path id="Trazado_779119" data-name="Trazado 779119" d="M146.012,8.638V64.069h28.059a7.108,7.108,0,0,0,7.108-7.108V8.638A1.138,1.138,0,0,0,180.04,7.5H147.15a1.138,1.138,0,0,0-1.138,1.138Zm0,0" transform="translate(-128.95 -6.646)" fill="#f3f9ff"/>
      <path id="Trazado_779120" data-name="Trazado 779120" d="M374.193,8.638V56.962a7.108,7.108,0,0,1-7.108,7.107h-3.268a7.108,7.108,0,0,0,7.108-7.107V8.638A1.139,1.139,0,0,0,369.787,7.5h3.268A1.139,1.139,0,0,1,374.193,8.638Zm0,0" transform="translate(-321.964 -6.647)" fill="#bddff4"/>
      <path id="Trazado_779121" data-name="Trazado 779121" d="M51.168,416.645a1.138,1.138,0,0,1,1.138,1.138v1.754a7.107,7.107,0,0,0,7.107,7.107H24.245a7.108,7.108,0,0,1-7.108-7.108v-1.754a1.138,1.138,0,0,1,1.138-1.138Zm0,0" transform="translate(-14.744 -369.222)" fill="#9cc6db"/>
      <g id="Grupo_1065016" data-name="Grupo 1065016" transform="translate(22.753 17.996)">
        <path id="Trazado_779122" data-name="Trazado 779122" d="M200.146,160.173a2.067,2.067,0,1,1-2.067-2.067A2.067,2.067,0,0,1,200.146,160.173Zm0,0" transform="translate(-196.012 -158.106)" fill="#f9b200"/>
        <path id="Trazado_779123" data-name="Trazado 779123" d="M200.146,239.4a2.067,2.067,0,1,1-2.067-2.067,2.067,2.067,0,0,1,2.067,2.067Zm0,0" transform="translate(-196.012 -228.314)" fill="#f9b200"/>
        <path id="Trazado_779124" data-name="Trazado 779124" d="M200.146,318.626a2.067,2.067,0,1,1-2.067-2.067A2.067,2.067,0,0,1,200.146,318.626Zm0,0" transform="translate(-196.012 -298.524)" fill="#f9b200"/>
      </g>
      <path id="Trazado_779125" data-name="Trazado 779125" d="M199.258,54.785H222.3v4.951H199.258Zm0,0" transform="translate(-176.135 -48.55)" fill="#e01650"/>
      <path id="Trazado_779126" data-name="Trazado 779126" d="M146.043,266.128l3.665,1.822a.5.5,0,0,0,.7-.626l-1.42-3.839Zm0,0" transform="translate(-128.977 -233.495)" fill="#4e7693"/>
      <path id="Trazado_779127" data-name="Trazado 779127" d="M22.915,129.945,8.205,113.569a.84.84,0,0,1,.064-1.187l2.341-2.1a.84.84,0,0,1,1.187.064l14.71,16.376a.84.84,0,0,1-.064,1.187l-2.341,2.1a.84.84,0,0,1-1.187-.064Zm0,0" transform="translate(-6.637 -97.537)" fill="#ffb206"/>
      <path id="Trazado_779128" data-name="Trazado 779128" d="M22.915,139.806,8.205,123.429a.84.84,0,0,1,.064-1.187l1.17-1.052,15.834,17.627L24.1,139.869a.84.84,0,0,1-1.187-.064Zm0,0" transform="translate(-6.637 -107.397)" fill="#ffb206"/>
      <path id="Trazado_779129" data-name="Trazado 779129" d="M9.8,115.343l-1.593-1.774a.84.84,0,0,1,.064-1.187l2.341-2.1a.84.84,0,0,1,1.187.064l1.593,1.774Zm0,0" transform="translate(-6.64 -97.537)" fill="#e01650"/>
      <path id="Trazado_779130" data-name="Trazado 779130" d="M51.09,0H18.2a1.994,1.994,0,0,0-1.992,1.992V23.829L5.795,12.236A1.695,1.695,0,0,0,3.4,12.107l-2.341,2.1A1.7,1.7,0,0,0,.933,16.6l14.71,16.376a1.688,1.688,0,0,0,.566.413V46.569H12.89a.854.854,0,0,0,0,1.707H36.425a.285.285,0,0,1,.285.285v1.755a7.951,7.951,0,0,0,3.039,6.253H9.5a6.261,6.261,0,0,1-6.254-6.254V48.561a.285.285,0,0,1,.285-.285H9.173a.854.854,0,0,0,0-1.707H3.532A1.994,1.994,0,0,0,1.54,48.561v1.754A7.97,7.97,0,0,0,9.5,58.276h35.62a7.97,7.97,0,0,0,7.961-7.961V27.085a.854.854,0,0,0-1.707,0v23.23a6.261,6.261,0,0,1-6.254,6.254H44.67a6.26,6.26,0,0,1-6.254-6.254V48.561a1.994,1.994,0,0,0-1.992-1.992H17.916V34.009l2.436,1.211a1.358,1.358,0,0,0,1.878-1.687l-1.309-3.54c.008-.052.013-.1.016-.158a1.682,1.682,0,0,0-.431-1.223L17.916,25.73V1.992a.285.285,0,0,1,.285-.285H51.09a.285.285,0,0,1,.285.285V13.124a.854.854,0,0,0,1.707,0V1.992A1.994,1.994,0,0,0,51.09,0ZM4.533,13.386l1.014,1.129L3.226,16.6,2.212,15.472Zm-.167,4.485.526-.473L17.43,31.356l-.526.473ZM18.713,32.5l.986-.886.624,1.686ZM18.7,30.215,6.163,16.257l.526-.472L19.226,29.743Zm0,0" transform="translate(0)"/>
      <path id="Trazado_779131" data-name="Trazado 779131" d="M448.327,140.469a.854.854,0,0,0-.854.854v6.526a.854.854,0,1,0,1.707,0v-6.526A.853.853,0,0,0,448.327,140.469Zm0,0" transform="translate(-396.098 -124.481)"/>
      <path id="Trazado_779132" data-name="Trazado 779132" d="M191.432,150.6a2.921,2.921,0,1,0,2.921,2.921A2.924,2.924,0,0,0,191.432,150.6Zm0,4.134a1.214,1.214,0,1,1,1.214-1.213A1.215,1.215,0,0,1,191.432,154.739Zm0,0" transform="translate(-166.612 -133.463)"/>
      <path id="Trazado_779133" data-name="Trazado 779133" d="M255.752,172.086h4.183a.854.854,0,1,0,0-1.707h-4.183a.854.854,0,1,0,0,1.707Zm0,0" transform="translate(-225.442 -150.987)"/>
      <path id="Trazado_779134" data-name="Trazado 779134" d="M270.334,188.355H255.753a.854.854,0,1,0,0,1.707h14.581a.854.854,0,1,0,0-1.707Zm0,0" transform="translate(-225.443 -166.916)"/>
      <path id="Trazado_779135" data-name="Trazado 779135" d="M255.76,150.891h.006a.854.854,0,0,0-.005-1.707h-.014a.854.854,0,0,0,.014,1.707Zm0,0" transform="translate(-225.446 -132.204)"/>
      <path id="Trazado_779136" data-name="Trazado 779136" d="M191.432,229.832a2.921,2.921,0,1,0,2.921,2.921A2.924,2.924,0,0,0,191.432,229.832Zm0,4.134a1.214,1.214,0,1,1,1.214-1.214A1.215,1.215,0,0,1,191.432,233.966Zm0,0" transform="translate(-166.612 -203.672)"/>
      <path id="Trazado_779137" data-name="Trazado 779137" d="M255.752,251.312h4.183a.854.854,0,1,0,0-1.707h-4.183a.854.854,0,1,0,0,1.707Zm0,0" transform="translate(-225.442 -221.195)"/>
      <path id="Trazado_779138" data-name="Trazado 779138" d="M270.334,267.582H255.753a.854.854,0,1,0,0,1.707h14.581a.854.854,0,1,0,0-1.707Zm0,0" transform="translate(-225.443 -237.126)"/>
      <path id="Trazado_779139" data-name="Trazado 779139" d="M255.76,230.113h.006a.854.854,0,0,0-.005-1.707h-.014a.854.854,0,0,0,.014,1.707Zm0,0" transform="translate(-225.446 -202.409)"/>
      <path id="Trazado_779140" data-name="Trazado 779140" d="M191.432,309.059a2.921,2.921,0,1,0,2.921,2.921A2.924,2.924,0,0,0,191.432,309.059Zm0,4.134a1.214,1.214,0,1,1,1.214-1.213A1.215,1.215,0,0,1,191.432,313.193Zm0,0" transform="translate(-166.612 -273.882)"/>
      <path id="Trazado_779141" data-name="Trazado 779141" d="M255.752,330.539h4.183a.854.854,0,1,0,0-1.707h-4.183a.854.854,0,1,0,0,1.707Zm0,0" transform="translate(-225.442 -291.404)"/>
      <path id="Trazado_779142" data-name="Trazado 779142" d="M255.752,348.516h14.581a.854.854,0,0,0,0-1.707H255.752a.854.854,0,1,0,0,1.707Zm0,0" transform="translate(-225.442 -307.335)"/>
      <path id="Trazado_779143" data-name="Trazado 779143" d="M255.76,309.344h.006a.854.854,0,0,0-.005-1.707h-.014a.854.854,0,0,0,.014,1.707Zm0,0" transform="translate(-225.446 -272.622)"/>
      <path id="Trazado_779144" data-name="Trazado 779144" d="M216.51,53.09V48.139a.854.854,0,0,0-.854-.854H192.611a.853.853,0,0,0-.854.854V53.09a.853.853,0,0,0,.854.854h23.046A.854.854,0,0,0,216.51,53.09Zm-1.707-.854H193.464V48.993H214.8Zm0,0" transform="translate(-169.488 -41.903)"/>
    </g>
    <g id="Grupo_1065041" data-name="Grupo 1065041" transform="translate(753.793 587.584)">
      <g id="Grupo_1065022" data-name="Grupo 1065022" transform="translate(28.395 1.043)">
        <g id="Grupo_1065018" data-name="Grupo 1065018" transform="translate(7.107 18.91)">
          <path id="Trazado_779145" data-name="Trazado 779145" d="M134.076,192.18a9.91,9.91,0,0,1-2.922-.438V215.31a2.754,2.754,0,0,1-2.754,2.754H105.476v2.859a2.754,2.754,0,0,0,2.754,2.754h27.278a2.754,2.754,0,0,0,2.754-2.754V191.256A9.876,9.876,0,0,1,134.076,192.18Z" transform="translate(-105.476 -191.256)" fill="#ccf5fc"/>
        </g>
        <g id="Grupo_1065019" data-name="Grupo 1065019" transform="translate(0 2.258)">
          <path id="Trazado_779146" data-name="Trazado 779146" d="M66.552,31.646H40.106A2.754,2.754,0,0,0,37.352,34.4V72.352a2.754,2.754,0,0,0,2.754,2.754H67.384a2.754,2.754,0,0,0,2.754-2.754V48.993" transform="translate(-37.352 -31.646)" fill="#faf7f5"/>
        </g>
        <g id="Grupo_1065020" data-name="Grupo 1065020" transform="translate(25.792)">
          <ellipse id="Elipse_8709" data-name="Elipse 8709" cx="9.915" cy="9.917" rx="9.915" ry="9.917" fill="#e01650"/>
        </g>
        <g id="Grupo_1065021" data-name="Grupo 1065021" transform="translate(6.993 10.498)">
          <path id="Trazado_779147" data-name="Trazado 779147" d="M104.377,110.62h18.8v4.406h-18.8Z" transform="translate(-104.377 -110.62)" fill="#ffb206"/>
        </g>
      </g>
      <g id="Grupo_1065040" data-name="Grupo 1065040" transform="translate(27.352)">
        <g id="Grupo_1065024" data-name="Grupo 1065024" transform="translate(35.712 8.55)">
          <g id="Grupo_1065023" data-name="Grupo 1065023">
            <path id="Trazado_779148" data-name="Trazado 779148" d="M370.7,91.176a1.043,1.043,0,0,1-1.043-1.043V83a1.043,1.043,0,0,1,2.087,0v7.134A1.043,1.043,0,0,1,370.7,91.176Z" transform="translate(-369.655 -81.956)"/>
          </g>
        </g>
        <g id="Grupo_1065026" data-name="Grupo 1065026" transform="translate(35.708 5.193)">
          <g id="Grupo_1065025" data-name="Grupo 1065025">
            <ellipse id="Elipse_8710" data-name="Elipse 8710" cx="1.043" cy="1.043" rx="1.043" ry="1.043"/>
          </g>
        </g>
        <g id="Grupo_1065029" data-name="Grupo 1065029" transform="translate(0)">
          <path id="Trazado_779149" data-name="Trazado 779149" d="M75.061,10.96a10.953,10.953,0,0,0-17.614-8.7h-26.3a3.8,3.8,0,0,0-3.8,3.8V44.007a3.8,3.8,0,0,0,3.8,3.8h3.31v1.815a3.8,3.8,0,0,0,3.8,3.8H65.534a3.8,3.8,0,0,0,3.8-3.8V35.149a1.043,1.043,0,1,0-2.087,0V49.619a1.712,1.712,0,0,1-1.71,1.71H38.256a1.712,1.712,0,0,1-1.71-1.71V47.8H58.427a3.8,3.8,0,0,0,3.8-3.8V21.76a11,11,0,0,0,5.021-.3v4.254a1.043,1.043,0,0,0,2.087,0V20.591a10.97,10.97,0,0,0,5.73-9.631ZM60.137,44.007a1.712,1.712,0,0,1-1.71,1.71H31.149a1.712,1.712,0,0,1-1.71-1.71V6.055a1.712,1.712,0,0,1,1.71-1.71H55.371A10.9,10.9,0,0,0,53.154,10.5H35.388a1.043,1.043,0,0,0-1.043,1.043v4.406a1.043,1.043,0,0,0,1.043,1.043h18.8a1.039,1.039,0,0,0,.631-.213,11.023,11.023,0,0,0,5.318,4.4ZM53.145,12.584V14.9H36.431v-2.32ZM64.1,19.834a8.874,8.874,0,1,1,8.872-8.874A8.883,8.883,0,0,1,64.1,19.834Z" transform="translate(-27.352)"/>
          <g id="Grupo_1065028" data-name="Grupo 1065028" transform="translate(39.894 29.373)">
            <g id="Grupo_1065027" data-name="Grupo 1065027">
              <path id="Trazado_779150" data-name="Trazado 779150" d="M410.783,283.625a1.043,1.043,0,1,1,1.016-.807A1.053,1.053,0,0,1,410.783,283.625Z" transform="translate(-409.742 -281.541)"/>
            </g>
          </g>
        </g>
        <g id="Grupo_1065039" data-name="Grupo 1065039" transform="translate(6.993 20.619)">
          <g id="Grupo_1065038" data-name="Grupo 1065038">
            <g id="Grupo_1065031" data-name="Grupo 1065031">
              <g id="Grupo_1065030" data-name="Grupo 1065030">
                <path id="Trazado_779151" data-name="Trazado 779151" d="M114.22,199.72H95.42a1.043,1.043,0,1,1,0-2.087h18.8a1.043,1.043,0,1,1,0,2.087Z" transform="translate(-94.377 -197.633)"/>
              </g>
            </g>
            <g id="Grupo_1065033" data-name="Grupo 1065033" transform="translate(0 4.948)">
              <g id="Grupo_1065032" data-name="Grupo 1065032">
                <path id="Trazado_779152" data-name="Trazado 779152" d="M114.22,247.15H95.42a1.043,1.043,0,0,1,0-2.087h18.8a1.043,1.043,0,1,1,0,2.087Z" transform="translate(-94.377 -245.063)"/>
              </g>
            </g>
            <g id="Grupo_1065035" data-name="Grupo 1065035" transform="translate(0 9.897)">
              <g id="Grupo_1065034" data-name="Grupo 1065034">
                <path id="Trazado_779153" data-name="Trazado 779153" d="M114.22,294.58H95.42a1.043,1.043,0,1,1,0-2.087h18.8a1.043,1.043,0,1,1,0,2.087Z" transform="translate(-94.377 -292.493)"/>
              </g>
            </g>
            <g id="Grupo_1065037" data-name="Grupo 1065037" transform="translate(0 14.845)">
              <g id="Grupo_1065036" data-name="Grupo 1065036">
                <path id="Trazado_779154" data-name="Trazado 779154" d="M114.22,342.01H95.42a1.043,1.043,0,1,1,0-2.087h18.8a1.043,1.043,0,1,1,0,2.087Z" transform="translate(-94.377 -339.923)"/>
              </g>
            </g>
          </g>
        </g>
      </g>
    </g>
    <g id="Grupo_1065042" data-name="Grupo 1065042" transform="translate(941.989 582.992)">
      <path id="Trazado_779155" data-name="Trazado 779155" d="M333.153,333.425a4.529,4.529,0,0,1-6.567-.168l-13.477-14.775,5.1-5.1,14.778,13.473A4.531,4.531,0,0,1,333.153,333.425Z" transform="translate(-277.631 -277.879)" fill="#b2bdc1"/>
      <path id="Trazado_779156" data-name="Trazado 779156" d="M275.949,271.949h0l-4.765,4.747h0l4.749,5.045,5.1-5.1Z" transform="translate(-240.455 -241.137)" fill="#fec459"/>
      <path id="Trazado_779157" data-name="Trazado 779157" d="M42.671,15.68a19.259,19.259,0,1,1-27.237,0A19.3,19.3,0,0,1,42.671,15.68Z" transform="translate(-8.68 -8.902)" fill="#ffb206"/>
      <path id="Trazado_779158" data-name="Trazado 779158" d="M74.129,53.382a14.843,14.843,0,1,1-20.991,0A14.873,14.873,0,0,1,74.129,53.382Z" transform="translate(-43.259 -43.479)" fill="#f3f9ff"/>
      <path id="Trazado_779159" data-name="Trazado 779159" d="M242.158,63.3a1.133,1.133,0,1,0-1.133-1.133A1.133,1.133,0,0,0,242.158,63.3Z" transform="translate(-213.714 -54.122)"/>
      <path id="Trazado_779160" data-name="Trazado 779160" d="M96.957,110.872l-1.191,3.573-1.191-3.573A1.133,1.133,0,0,0,93.5,110.1H92.12l-2.051-8.205a1.133,1.133,0,0,0-2.2,0L85.819,110.1H82.172a1.133,1.133,0,0,0,0,2.266H86.7a1.133,1.133,0,0,0,1.1-.858l1.167-4.667,1.167,4.667a1.133,1.133,0,0,0,1.1.858h1.449l2.008,6.023a1.133,1.133,0,0,0,2.149,0l2.008-6.023h3.715a1.133,1.133,0,1,0,0-2.266H98.032A1.132,1.132,0,0,0,96.957,110.872Z" transform="translate(-71.854 -89.588)"/>
      <path id="Trazado_779161" data-name="Trazado 779161" d="M34.82,5.977a20.392,20.392,0,1,0-3.532,31.715c.017.018,17.044,18.646,17.058,18.66a5.664,5.664,0,1,0,7.794-8.216C54.674,46.8,39.785,33.225,37.681,31.308A20.46,20.46,0,0,0,34.82,5.977ZM33.251,36.45l-.088-.088a20.5,20.5,0,0,0,3.2-3.195l2.606,2.376-3.42,3.42-2.257-2.475Zm21.5,18.3a3.4,3.4,0,0,1-4.929-.13L37.072,40.639l3.568-3.568L54.619,49.816A3.393,3.393,0,0,1,54.748,54.745Zm-21.5-21.5a18.15,18.15,0,1,1-.033-25.667A18.128,18.128,0,0,1,33.25,33.246Z" transform="translate(0 0)"/>
      <path id="Trazado_779162" data-name="Trazado 779162" d="M66.878,46.035a1.133,1.133,0,0,0-.155,1.595,13.6,13.6,0,1,1-6.935-4.483,1.133,1.133,0,1,0,.591-2.187,15.855,15.855,0,1,0,8.094,5.231A1.133,1.133,0,0,0,66.878,46.035Z" transform="translate(-35.786 -35.833)"/>
    </g>
    <g id="Grupo_1065047" data-name="Grupo 1065047" transform="translate(1119.044 571.463)">
      <path id="Trazado_779163" data-name="Trazado 779163" d="M359.112,89.968h-5.327L352,88.183,352.027,40l1.758.317,13.384,2.36Z" transform="translate(-298.524 -21.323)" fill="#e01650"/>
      <path id="Trazado_779164" data-name="Trazado 779164" d="M394.65,174.959H392v-1.785h1.9l6.562-38.518,1.759.3-6.689,39.261A.892.892,0,0,1,394.65,174.959Z" transform="translate(-334.063 -105.422)"/>
      <path id="Trazado_779165" data-name="Trazado 779165" d="M401.289,48.357l-1.759-.3.915-5.371-9.834-1.734.31-1.757,10.707,1.888a.892.892,0,0,1,.725,1.029Z" transform="translate(-332.828 -20.607)"/>
      <g id="Grupo_1065046" data-name="Grupo 1065046" transform="translate(16 16)">
        <path id="Trazado_779166" data-name="Trazado 779166" d="M24,24H62.368V75.753H24Z" transform="translate(-23.108 -23.108)" fill="#8f52f5"/>
        <rect id="Rectngulo_374070" data-name="Rectngulo 374070" width="8.937" height="8.937" rx="4.469" transform="translate(4.921 26.769)" fill="#fcfeff"/>
        <rect id="Rectngulo_374071" data-name="Rectngulo 374071" width="8.937" height="8.937" rx="4.469" transform="translate(4.921 39.678)" fill="#fcfeff"/>
        <path id="Trazado_779167" data-name="Trazado 779167" d="M55.261,69.537H16.892A.892.892,0,0,1,16,68.645V55.261h1.785V67.753H54.368V17.785H17.785V53.476H16V16.892A.892.892,0,0,1,16.892,16H55.261a.892.892,0,0,1,.892.892V68.645A.892.892,0,0,1,55.261,69.537Z" transform="translate(-16 -16)"/>
        <g id="Grupo_1065045" data-name="Grupo 1065045" transform="translate(4.461 25.876)">
          <g id="Grupo_1065043" data-name="Grupo 1065043">
            <path id="Trazado_779168" data-name="Trazado 779168" d="M85.651,258.512a.892.892,0,0,1-.631-.261l-2.677-2.677,1.262-1.262,2,2,4.727-5.514,1.355,1.162L86.328,258.2a.892.892,0,0,1-.643.311Z" transform="translate(-79.405 -250.481)"/>
            <path id="Trazado_779169" data-name="Trazado 779169" d="M63.584,258.707H59.123A3.127,3.127,0,0,1,56,255.584v-4.461A3.127,3.127,0,0,1,59.123,248h4.015v1.785H59.123a1.34,1.34,0,0,0-1.338,1.338v4.461a1.34,1.34,0,0,0,1.338,1.338h4.461a1.34,1.34,0,0,0,1.338-1.338v-.446h1.785v.446A3.127,3.127,0,0,1,63.584,258.707Z" transform="translate(-56 -248)"/>
          </g>
          <g id="Grupo_1065044" data-name="Grupo 1065044" transform="translate(0 13.384)">
            <path id="Trazado_779170" data-name="Trazado 779170" d="M85.651,378.512a.892.892,0,0,1-.631-.261l-2.677-2.677,1.262-1.262,2,2,4.727-5.514,1.355,1.162L86.328,378.2a.892.892,0,0,1-.643.311Z" transform="translate(-79.405 -370.481)"/>
            <path id="Trazado_779171" data-name="Trazado 779171" d="M63.584,378.707H59.123A3.127,3.127,0,0,1,56,375.584v-4.461A3.127,3.127,0,0,1,59.123,368h4.015v1.785H59.123a1.34,1.34,0,0,0-1.338,1.338v4.461a1.34,1.34,0,0,0,1.338,1.338h4.461a1.34,1.34,0,0,0,1.338-1.338v-.446h1.785v.446A3.127,3.127,0,0,1,63.584,378.707Z" transform="translate(-56 -368)"/>
          </g>
          <path id="Trazado_779172" data-name="Trazado 779172" d="M184,368h13.384v1.785H184Z" transform="translate(-169.723 -354.616)"/>
          <path id="Trazado_779173" data-name="Trazado 779173" d="M184,408h4.461v1.785H184Z" transform="translate(-169.723 -390.154)"/>
        </g>
        <path id="Trazado_779174" data-name="Trazado 779174" d="M240,408h7.138v1.785H240Z" transform="translate(-215.016 -364.278)"/>
        <path id="Trazado_779175" data-name="Trazado 779175" d="M184,248h13.384v1.785H184Z" transform="translate(-165.262 -222.124)"/>
        <path id="Trazado_779176" data-name="Trazado 779176" d="M184,288h4.461v1.785H184Z" transform="translate(-165.262 -257.662)"/>
        <path id="Trazado_779177" data-name="Trazado 779177" d="M240,288h7.138v1.785H240Z" transform="translate(-215.016 -257.662)"/>
        <path id="Trazado_779178" data-name="Trazado 779178" d="M134.081,72.42a13.716,13.716,0,0,1-5.413-8.6L128,59.576,136.019,56l8.019,3.576-.675,4.279a13.712,13.712,0,0,1-5.484,8.651l-1.853,1.347Z" transform="translate(-115.508 -51.539)" fill="#fcfeff"/>
        <path id="Trazado_779179" data-name="Trazado 779179" d="M128.921,67.637a.891.891,0,0,1-.529-.174l-1.945-1.433a14.605,14.605,0,0,1-5.762-9.159l0-.021-.668-4.244a.892.892,0,0,1,.518-.954l8.019-3.576a.892.892,0,0,1,.727,0l8.019,3.576a.892.892,0,0,1,.518.954l-.675,4.279,0,.021a14.6,14.6,0,0,1-5.837,9.213l-1.853,1.347A.891.891,0,0,1,128.921,67.637Zm-6.478-11.074a12.828,12.828,0,0,0,5.062,8.031l1.42,1.046,1.325-.963a12.824,12.824,0,0,0,5.129-8.079L135.945,53l-7.032-3.135L121.882,53Z" transform="translate(-108.402 -44.43)"/>
        <path id="Trazado_779180" data-name="Trazado 779180" d="M165.461,105.277a.889.889,0,0,1-.631-.261l-2.677-2.677,1.262-1.262,2.046,2.046,4.723-4.723,1.262,1.262-5.354,5.354A.89.89,0,0,1,165.461,105.277Z" transform="translate(-145.852 -89.209)"/>
        <path id="Trazado_779181" data-name="Trazado 779181" d="M56,48h5.354v1.785H56Z" transform="translate(-51.539 -44.431)"/>
        <path id="Trazado_779182" data-name="Trazado 779182" d="M56,80h3.569v1.785H56Z" transform="translate(-51.539 -72.862)"/>
        <path id="Trazado_779183" data-name="Trazado 779183" d="M296,48h1.785v1.785H296Z" transform="translate(-264.77 -44.431)"/>
        <path id="Trazado_779184" data-name="Trazado 779184" d="M328,48h1.785v1.785H328Z" transform="translate(-293.201 -44.431)"/>
      </g>
    </g>
  </g>
</svg>
